SplineFontDB: 3.0
FontName: Amarante-Regular
FullName: Amarante Regular
FamilyName: Amarante
Weight: Book
Copyright: Copyright (c) 2011, Sorkin Type Co (www.sorkintype.com) with Reserved Font Name "Amarante".
Version: 1.001
ItalicAngle: 0
UnderlinePosition: -103
UnderlineWidth: 102
Ascent: 1638
Descent: 410
LayerCount: 2
Layer: 0 1 "Back"  1
Layer: 1 1 "Fore"  0
XUID: [1021 631 1661839179 3888696]
FSType: 0
OS2Version: 3
OS2_WeightWidthSlopeOnly: 0
OS2_UseTypoMetrics: 1
CreationTime: 1334658480
ModificationTime: 1334679143
PfmFamily: 17
TTFWeight: 400
TTFWidth: 5
LineGap: 0
VLineGap: 0
Panose: 2 0 0 0 0 0 0 0 0 0
OS2TypoAscent: 382
OS2TypoAOffset: 1
OS2TypoDescent: -130
OS2TypoDOffset: 1
OS2TypoLinegap: 0
OS2WinAscent: 0
OS2WinAOffset: 1
OS2WinDescent: 0
OS2WinDOffset: 1
HheadAscent: 0
HheadAOffset: 1
HheadDescent: 0
HheadDOffset: 1
OS2SubXSize: 1434
OS2SubYSize: 1331
OS2SubXOff: 0
OS2SubYOff: 287
OS2SupXSize: 1434
OS2SupYSize: 1331
OS2SupXOff: 0
OS2SupYOff: 977
OS2StrikeYSize: 102
OS2StrikeYPos: 512
OS2Vendor: 'STC '
OS2CodePages: 20000093.00000000
OS2UnicodeRanges: a00000af.4000204a.00000000.00000000
DEI: 91125
TtTable: prep
MPPEM
PUSHW_1
 150
GT
IF
PUSHB_2
 1
 1
INSTCTRL
EIF
PUSHW_2
 2048
 2048
MUL
DUP
PUSHB_1
 1
SWAP
WCVTP
DUP
PUSHB_1
 3
SWAP
WCVTF
PUSHB_1
 21
RCVT
DUP
DUP
PUSHB_1
 40
ADD
FLOOR
DUP
ROLL
NEQ
IF
PUSHB_1
 2
CINDEX
SUB
PUSHB_1
 1
RCVT
MUL
SWAP
DIV
PUSHB_1
 2
SWAP
WCVTP
PUSHB_4
 10
 11
 3
 2
CALL
PUSHB_4
 12
 17
 3
 2
CALL
PUSHB_4
 18
 23
 3
 2
CALL
EIF
PUSHB_3
 4
 40
 7
RCVT
GT
WCVTP
PUSHB_4
 12
 17
 4
 2
CALL
PUSHW_1
 511
SCANCTRL
PUSHB_1
 4
SCANTYPE
PUSHB_2
 5
 0
WCVTP
EndTTInstrs
TtTable: fpgm
PUSHB_1
 0
FDEF
DUP
ABS
PUSHB_1
 32
ADD
FLOOR
SWAP
PUSHB_1
 0
LT
IF
NEG
EIF
ENDF
PUSHB_1
 1
FDEF
DUP
ABS
DUP
PUSHB_1
 192
LT
PUSHB_1
 4
MINDEX
AND
PUSHB_1
 4
RCVT
OR
IF
POP
SWAP
POP
ELSE
ROLL
IF
DUP
PUSHB_1
 80
LT
IF
POP
PUSHB_1
 64
EIF
ELSE
DUP
PUSHB_1
 56
LT
IF
POP
PUSHB_1
 56
EIF
EIF
DUP
PUSHB_1
 10
RCVT
SUB
ABS
PUSHB_1
 40
LT
IF
POP
PUSHB_1
 10
RCVT

StartChar: .notdef
Encoding: 65536 -1 0
Width: 1364
Flags: W
LayerCount: 2
Fore
SplineSet
1229 1530 m 1,0,1
 1209 1466 1209 1466 1209 1345 c 2,2,-1
 1209 185 l 2,3,4
 1209 64 1209 64 1229 0 c 1,5,-1
 138 0 l 1,6,7
 138 0 138 0 146 31 c 0,8,9
 158 76 158 76 158 185 c 2,10,-1
 158 1345 l 2,11,12
 158 1454 158 1454 150 1484 c 2,13,-1
 138 1530 l 1,14,-1
 1229 1530 l 1,0,1
896 100 m 2,15,16
 1016 100 1016 100 1062 160 c 0,17,18
 1079 182 1079 182 1079 213 c 2,19,-1
 1079 1317 l 2,20,21
 1079 1372 1079 1372 985 1404 c 0,22,23
 911 1430 911 1430 826 1430 c 2,24,-1
 471 1430 l 2,25,26
 351 1430 351 1430 304 1370 c 0,27,28
 288 1348 288 1348 288 1317 c 2,29,-1
 288 213 l 2,30,31
 288 156 288 156 347 126 c 0,32,33
 396 100 396 100 471 100 c 2,34,-1
 896 100 l 2,15,16
459 885 m 1,35,36
 412 908 412 908 412 1097 c 0,37,38
 412 1208 412 1208 431.5 1256 c 128,-1,39
 451 1304 451 1304 469 1311 c 1,40,41
 498 1271 498 1271 518.5 1268.5 c 128,-1,42
 539 1266 539 1266 556 1266 c 128,-1,43
 573 1266 573 1266 590.5 1268.5 c 128,-1,44
 608 1271 608 1271 628 1274 c 0,45,46
 677 1283 677 1283 730.5 1283 c 128,-1,47
 784 1283 784 1283 831.5 1270.5 c 128,-1,48
 879 1258 879 1258 913 1231 c 0,49,50
 984 1175 984 1175 986 1062 c 0,51,52
 988 947 988 947 840 819 c 1,53,-1
 768 755 l 1,54,55
 690 683 690 683 690 628 c 0,56,57
 690 577 690 577 700 561 c 128,-1,58
 710 545 710 545 717 535 c 1,59,-1
 559 535 l 1,60,61
 551 634 551 634 610 726 c 0,62,63
 631 760 631 760 655 792 c 2,64,-1
 704 857 l 2,65,66
 792 973 792 973 792 1088 c 128,-1,67
 792 1203 792 1203 710 1203 c 0,68,69
 613 1203 613 1203 538 1094 c 0,70,71
 473 1001 473 1001 459 885 c 1,35,36
532 303 m 128,-1,73
 523 324 523 324 523 347.5 c 128,-1,74
 523 371 523 371 532 392 c 128,-1,75
 541 413 541 413 556 428 c 0,76,77
 588 462 588 462 635 462 c 256,78,79
 682 462 682 462 705 438 c 0,80,81
 747 394 747 394 747 359 c 128,-1,82
 747 324 747 324 738 303 c 128,-1,83
 729 282 729 282 714 266 c 0,84,85
 682 233 682 233 635 233 c 256,86,87
 588 233 588 233 564.5 257.5 c 128,-1,72
 541 282 541 282 532 303 c 128,-1,73
EndSplineSet
EndChar

StartChar: exclam
Encoding: 33 33 23
Width: 682
GlyphClass: 2
Flags: W
LayerCount: 2
Fore
SplineSet
261 470 m 1,0,1
 261 676 261 676 240 913 c 2,2,-1
 212 1240 l 2,3,4
 199 1381 199 1381 161 1512 c 1,5,-1
 349 1584 l 1,6,-1
 537 1512 l 1,7,8
 485 1334 485 1334 450 920 c 0,9,10
 434 731 434 731 434 629.5 c 128,-1,11
 434 528 434 528 437 470 c 1,12,-1
 261 470 l 1,0,1
183 161 m 0,13,14
 183 231 183 231 230 282 c 0,15,16
 277 332 277 332 344 332 c 256,17,18
 411 332 411 332 458 282 c 0,19,20
 505 231 505 231 505 161 c 0,21,22
 505 89 505 89 458 40 c 0,23,24
 410 -10 410 -10 344 -10 c 256,25,26
 278 -10 278 -10 230 40 c 0,27,28
 183 89 183 89 183 161 c 0,13,14
EndSplineSet
EndChar

StartChar: quotedbl
Encoding: 34 34 24
Width: 969
GlyphClass: 2
Flags: W
LayerCount: 2
Fore
SplineSet
611 940 m 1,0,1
 611 1082 611 1082 592 1221.5 c 128,-1,2
 573 1361 573 1361 567 1388.5 c 128,-1,3
 561 1416 561 1416 556 1436.5 c 128,-1,4
 551 1457 551 1457 547.5 1473 c 128,-1,5
 544 1489 544 1489 540 1502 c 2,6,-1
 531 1530 l 1,7,-1
 827 1530 l 1,8,-1
 818 1502 l 2,9,10
 814 1489 814 1489 810.5 1473 c 128,-1,11
 807 1457 807 1457 802 1436.5 c 128,-1,12
 797 1416 797 1416 791 1388.5 c 128,-1,13
 785 1361 785 1361 777.5 1306 c 128,-1,14
 770 1251 770 1251 763 1186 c 0,15,16
 747 1039 747 1039 747 940 c 1,17,-1
 611 940 l 1,0,1
221 940 m 1,18,19
 221 1082 221 1082 202 1221.5 c 128,-1,20
 183 1361 183 1361 177 1388.5 c 128,-1,21
 171 1416 171 1416 166 1436.5 c 128,-1,22
 161 1457 161 1457 157.5 1473 c 128,-1,23
 154 1489 154 1489 150 1502 c 2,24,-1
 141 1530 l 1,25,-1
 437 1530 l 1,26,-1
 428 1502 l 2,27,28
 424 1489 424 1489 420.5 1473 c 128,-1,29
 417 1457 417 1457 412 1436.5 c 128,-1,30
 407 1416 407 1416 401 1388.5 c 128,-1,31
 395 1361 395 1361 387.5 1306 c 128,-1,32
 380 1251 380 1251 373 1186 c 0,33,34
 357 1039 357 1039 357 940 c 1,35,-1
 221 940 l 1,18,19
EndSplineSet
EndChar

StartChar: numbersign
Encoding: 35 35 25
Width: 1542
GlyphClass: 2
Flags: W
LayerCount: 2
Fore
SplineSet
489 1084 m 1,0,1
 510 1326 510 1326 510 1393 c 128,-1,2
 510 1460 510 1460 491 1532 c 1,3,-1
 746 1532 l 1,4,5
 697 1408 697 1408 659 1080 c 1,6,-1
 959 1080 l 1,7,8
 980 1325 980 1325 980 1392.5 c 128,-1,9
 980 1460 980 1460 961 1532 c 1,10,-1
 1216 1532 l 1,11,12
 1168 1412 1168 1412 1130 1084 c 1,13,14
 1325 1091 1325 1091 1440 1110 c 1,15,-1
 1410 900 l 1,16,17
 1293 918 1293 918 1112 925 c 1,18,19
 1092 732 1092 732 1082 625 c 1,20,21
 1278 632 1278 632 1380 650 c 1,22,-1
 1350 440 l 1,23,24
 1246 457 1246 457 1068 464 c 1,25,-1
 1057 330 l 2,26,27
 1047 204 1047 204 1047 134.5 c 128,-1,28
 1047 65 1047 65 1066 0 c 1,29,-1
 811 0 l 1,30,31
 863 129 863 129 899 469 c 1,32,33
 854 470 854 470 812 470 c 2,34,-1
 598 470 l 1,35,-1
 587 332 l 2,36,37
 577 204 577 204 577 134.5 c 128,-1,38
 577 65 577 65 596 0 c 1,39,-1
 341 0 l 1,40,41
 375 86 375 86 390 177 c 0,42,43
 415 339 415 339 429 467 c 1,44,45
 197 460 197 460 98 440 c 1,46,-1
 128 650 l 1,47,48
 228 631 228 631 446 624 c 1,49,-1
 475 926 l 1,50,51
 272 922 272 922 158 900 c 1,52,-1
 188 1110 l 1,53,54
 285 1091 285 1091 489 1084 c 1,0,1
916 620 m 1,55,56
 936 815 936 815 946 929 c 1,57,58
 905 930 905 930 866 930 c 0,59,60
 792 930 792 930 736 930 c 128,-1,61
 680 930 680 930 642 929 c 1,62,63
 634 854 634 854 626 776 c 2,64,-1
 612 620 l 1,65,-1
 916 620 l 1,55,56
EndSplineSet
EndChar

StartChar: dollar
Encoding: 36 36 26
Width: 994
GlyphClass: 2
Flags: W
LayerCount: 2
Fore
SplineSet
304 530 m 1,0,1
 291 426 291 426 291 350 c 128,-1,2
 291 274 291 274 322 205 c 128,-1,3
 353 136 353 136 412 104 c 1,4,5
 426 188 426 188 437 292 c 0,6,7
 461 527 461 527 472 648 c 1,8,-1
 350 767 l 1,9,10
 126 990 126 990 126 1232 c 0,11,12
 126 1359 126 1359 203 1445 c 0,13,14
 297 1550 297 1550 473 1550 c 0,15,16
 503 1550 503 1550 527 1548 c 1,17,18
 527 1621 527 1621 523 1657 c 2,19,-1
 517 1712 l 1,20,-1
 682 1712 l 1,21,22
 665 1662 665 1662 651 1531 c 1,23,24
 656 1530 656 1530 662 1530 c 2,25,-1
 675 1530 l 2,26,27
 733 1530 733 1530 765 1566 c 0,28,29
 777 1579 777 1579 791 1600 c 1,30,31
 864 1559 864 1559 864 1299 c 0,32,33
 864 1133 864 1133 831 1054 c 0,34,35
 820 1027 820 1027 806 1020 c 1,36,37
 789 1174 789 1174 700 1301 c 0,38,39
 670 1343 670 1343 633 1373 c 1,40,-1
 612 1152 l 1,41,42
 601 1025 601 1025 591 886 c 1,43,-1
 710 764 l 1,44,45
 926 538 926 538 926 345 c 0,46,47
 926 202 926 202 822 102 c 0,48,49
 717 1 717 1 545 -17 c 1,50,51
 543 -108 543 -108 541 -170 c 1,52,-1
 366 -170 l 1,53,54
 377 -134 377 -134 394 -13 c 1,55,56
 255 8 255 8 166 86 c 0,57,58
 68 173 68 173 68 300 c 1,59,60
 107 439 107 439 238 504 c 0,61,62
 273 522 273 522 304 530 c 1,0,1
525 1426 m 1,63,64
 505 1430 505 1430 474 1430 c 128,-1,65
 443 1430 443 1430 414.5 1416.5 c 128,-1,66
 386 1403 386 1403 368 1381 c 0,67,68
 336 1340 336 1340 336 1288.5 c 128,-1,69
 336 1237 336 1237 348.5 1200 c 128,-1,70
 361 1163 361 1163 382 1126 c 1,71,72
 421 1062 421 1062 498 980 c 1,73,74
 522 1295 522 1295 525 1426 c 1,63,64
566 551 m 1,75,76
 545 240 545 240 545 102 c 2,77,-1
 545 82 l 1,78,79
 697 102 697 102 697 274 c 0,80,81
 697 354 697 354 660 421 c 128,-1,82
 623 488 623 488 566 551 c 1,75,76
EndSplineSet
EndChar

StartChar: percent
Encoding: 37 37 27
Width: 2055
GlyphClass: 2
Flags: W
LayerCount: 2
Fore
SplineSet
383.5 1396 m 128,-1,1
 354 1322 354 1322 354 1149 c 0,2,3
 354 780 354 780 481 780 c 0,4,5
 548 780 548 780 578 878 c 128,-1,6
 608 976 608 976 608 1149 c 128,-1,7
 608 1322 608 1322 578.5 1396 c 128,-1,8
 549 1470 549 1470 481 1470 c 256,9,0
 413 1470 413 1470 383.5 1396 c 128,-1,1
481 1550 m 256,10,11
 842 1550 842 1550 842 1179 c 0,12,13
 842 955 842 955 742 826 c 0,14,15
 645 700 645 700 481 700 c 256,16,17
 317 700 317 700 220 826 c 0,18,19
 120 955 120 955 120 1179 c 0,20,21
 120 1550 120 1550 481 1550 c 256,10,11
1102 1325 m 1,22,23
 1124 1401 1124 1401 1124 1442.5 c 128,-1,24
 1124 1484 1124 1484 1111 1530 c 1,25,-1
 1356 1530 l 1,26,27
 1348 1510 1348 1510 1338 1488 c 0,28,29
 1291 1375 1291 1375 1271 1313 c 2,30,-1
 974 371 l 2,31,32
 947 283 947 283 932 228 c 1,33,34
 904 132 904 132 904 86 c 128,-1,35
 904 40 904 40 916 0 c 1,36,-1
 671 0 l 1,37,38
 679 20 679 20 688 42 c 2,39,-1
 709 89 l 1,40,41
 734 149 734 149 755 216 c 2,42,-1
 1102 1325 l 1,22,23
1485.5 675 m 128,-1,44
 1456 601 1456 601 1456 428 c 0,45,46
 1456 59 1456 59 1583 59 c 0,47,48
 1650 59 1650 59 1680 157 c 128,-1,49
 1710 255 1710 255 1710 428 c 128,-1,50
 1710 601 1710 601 1680.5 675 c 128,-1,51
 1651 749 1651 749 1583 749 c 256,52,43
 1515 749 1515 749 1485.5 675 c 128,-1,44
1583 829 m 256,53,54
 1944 829 1944 829 1944 458 c 0,55,56
 1944 234 1944 234 1844 106 c 1,57,58
 1747 -21 1747 -21 1583 -21 c 256,59,60
 1419 -21 1419 -21 1322 106 c 1,61,62
 1222 234 1222 234 1222 458 c 0,63,64
 1222 829 1222 829 1583 829 c 256,53,54
EndSplineSet
EndChar

StartChar: ampersand
Encoding: 38 38 28
Width: 1440
GlyphClass: 2
Flags: W
LayerCount: 2
Fore
SplineSet
627 1440 m 0,0,1
 468 1440 468 1440 468 1322 c 0,2,3
 468 1219 468 1219 550 1158 c 0,4,5
 629 1100 629 1100 759 1100 c 2,6,-1
 1342 1100 l 1,7,8
 1430 1085 1430 1085 1430 919 c 0,9,10
 1430 831 1430 831 1399 773 c 1,11,12
 1343 898 1343 898 1312 941 c 0,13,14
 1255 1020 1255 1020 1195 1020 c 0,15,16
 1142 1020 1142 1020 1130 988 c 0,17,18
 1115 949 1115 949 1115 856 c 2,19,-1
 1115 741 l 2,20,21
 1115 680 1115 680 1118 581 c 2,22,-1
 1122 406 l 2,23,24
 1124 329 1124 329 1126 239 c 0,25,26
 1129 90 1129 90 1162 0 c 1,27,28
 1149 -1 1149 -1 1136 -1 c 2,29,-1
 1112 -1 l 2,30,31
 826 -1 826 -1 614 126 c 1,32,33
 424 238 424 238 320 428 c 1,34,35
 223 603 223 603 223 791 c 0,36,37
 223 952 223 952 332 1034 c 0,38,39
 363 1058 363 1058 396 1070 c 1,40,41
 286 1144 286 1144 247 1265 c 0,42,43
 233 1308 233 1308 233 1353 c 128,-1,44
 233 1398 233 1398 246.5 1433 c 128,-1,45
 260 1468 260 1468 291 1494 c 0,46,47
 358 1550 358 1550 494 1550 c 0,48,49
 544 1550 544 1550 604 1543 c 0,50,51
 714 1530 714 1530 752 1530 c 0,52,53
 849 1530 849 1530 862 1600 c 1,54,55
 896 1585 896 1585 922 1488 c 0,56,57
 945 1404 945 1404 945 1331 c 0,58,59
 945 1205 945 1205 897 1160 c 1,60,61
 883 1265 883 1265 816 1346 c 1,62,63
 736 1440 736 1440 627 1440 c 0,0,1
902 514 m 1,64,-1
 901 596 l 1,65,-1
 901 778 l 2,66,67
 901 925 901 925 882.5 952 c 128,-1,68
 864 979 864 979 836.5 984.5 c 128,-1,69
 809 990 809 990 762 990 c 2,70,-1
 650 990 l 2,71,72
 479 990 479 990 479 825.5 c 128,-1,73
 479 661 479 661 514.5 539 c 128,-1,74
 550 417 550 417 603 335 c 128,-1,75
 656 253 656 253 717 211.5 c 128,-1,76
 778 170 778 170 826 170 c 128,-1,77
 874 170 874 170 888.5 204 c 128,-1,78
 903 238 903 238 903 294 c 2,79,-1
 903 444 l 1,80,-1
 902 514 l 1,64,-1
EndSplineSet
EndChar

StartChar: quotesingle
Encoding: 39 39 29
Width: 581
GlyphClass: 2
Flags: W
LayerCount: 2
Fore
SplineSet
221 940 m 1,0,1
 221 1082 221 1082 202 1221.5 c 128,-1,2
 183 1361 183 1361 177 1388.5 c 128,-1,3
 171 1416 171 1416 166 1436.5 c 128,-1,4
 161 1457 161 1457 157.5 1473 c 128,-1,5
 154 1489 154 1489 150 1502 c 2,6,-1
 141 1530 l 1,7,-1
 437 1530 l 1,8,-1
 428 1502 l 2,9,10
 424 1489 424 1489 420.5 1473 c 128,-1,11
 417 1457 417 1457 412 1436.5 c 128,-1,12
 407 1416 407 1416 401 1388.5 c 128,-1,13
 395 1361 395 1361 387.5 1306 c 128,-1,14
 380 1251 380 1251 373 1186 c 0,15,16
 357 1039 357 1039 357 940 c 1,17,-1
 221 940 l 1,0,1
EndSplineSet
EndChar

StartChar: parenleft
Encoding: 40 40 30
Width: 682
GlyphClass: 2
Flags: W
LayerCount: 2
Fore
SplineSet
590 -160 m 1,0,1
 571 -189 571 -189 530 -210 c 1,2,3
 370 -93 370 -93 247 180 c 0,4,5
 110 486 110 486 110 830 c 0,6,7
 110 1487 110 1487 530 1770 c 1,8,9
 571 1749 571 1749 590 1720 c 1,10,11
 487 1607 487 1607 420 1368 c 0,12,13
 350 1121 350 1121 350 830 c 0,14,15
 350 344 350 344 496 4 c 0,16,17
 539 -97 539 -97 590 -160 c 1,0,1
EndSplineSet
EndChar

StartChar: parenright
Encoding: 41 41 31
Width: 682
GlyphClass: 2
Flags: W
LayerCount: 2
Fore
SplineSet
92 -160 m 1,0,1
 111 -189 111 -189 152 -210 c 1,2,3
 312 -93 312 -93 435 180 c 0,4,5
 572 486 572 486 572 830 c 0,6,7
 572 1487 572 1487 152 1770 c 1,8,9
 111 1749 111 1749 92 1720 c 1,10,11
 195 1607 195 1607 262 1368 c 0,12,13
 332 1121 332 1121 332 830 c 0,14,15
 332 344 332 344 186 4 c 0,16,17
 143 -97 143 -97 92 -160 c 1,0,1
EndSplineSet
EndChar

StartChar: asterisk
Encoding: 42 42 32
Width: 1013
GlyphClass: 2
Flags: W
LayerCount: 2
Fore
SplineSet
571 1225 m 1,0,1
 729 1282 729 1282 839 1373 c 1,2,-1
 913 1145 l 1,3,4
 902 1146 902 1146 890 1146 c 2,5,-1
 867 1146 l 2,6,7
 744 1146 744 1146 607 1104 c 1,8,9
 712 969 712 969 830 896 c 1,10,-1
 636 755 l 1,11,12
 601 892 601 892 502 1033 c 1,13,14
 409 898 409 898 373 757 c 1,15,-1
 179 898 l 1,16,17
 297 973 297 973 401 1111 c 1,18,19
 264 1150 264 1150 146 1150 c 2,20,-1
 122 1150 l 2,21,22
 111 1150 111 1150 100 1149 c 1,23,-1
 174 1377 l 1,24,25
 281 1286 281 1286 443 1230 c 1,26,27
 439 1403 439 1403 388 1530 c 1,28,-1
 628 1530 l 1,29,30
 575 1395 575 1395 571 1225 c 1,0,1
EndSplineSet
EndChar

StartChar: plus
Encoding: 43 43 33
Width: 1286
GlyphClass: 2
Flags: W
LayerCount: 2
Fore
SplineSet
569 570 m 1,0,1
 305 570 305 570 178 540 c 1,2,-1
 178 750 l 1,3,4
 305 720 305 720 569 720 c 1,5,6
 569 991 569 991 539 1111 c 1,7,-1
 749 1111 l 1,8,9
 719 991 719 991 719 720 c 1,10,11
 990 720 990 720 1110 750 c 1,12,-1
 1110 540 l 1,13,14
 990 570 990 570 719 570 c 1,15,16
 719 306 719 306 749 179 c 1,17,-1
 539 179 l 1,18,19
 569 306 569 306 569 570 c 1,0,1
EndSplineSet
EndChar

StartChar: comma
Encoding: 44 44 34
Width: 711
GlyphClass: 2
Flags: W
LayerCount: 2
Fore
SplineSet
479 340 m 1,0,1
 502 253 502 253 502 214 c 0,2,3
 502 69 502 69 467 -24.5 c 128,-1,4
 432 -118 432 -118 393 -180 c 0,5,6
 315 -303 315 -303 236 -350 c 1,7,8
 224 -343 224 -343 204 -328 c 2,9,-1
 164 -300 l 1,10,11
 265 -154 265 -154 265 66 c 0,12,13
 265 191 265 191 193 295 c 0,14,15
 173 324 173 324 153 340 c 1,16,-1
 479 340 l 1,0,1
EndSplineSet
EndChar

StartChar: hyphen
Encoding: 45 45 35
Width: 978
GlyphClass: 2
Flags: W
LayerCount: 2
Fore
SplineSet
88 710 m 1,0,1
 198 681 198 681 486 681 c 128,-1,2
 774 681 774 681 890 710 c 1,3,-1
 890 490 l 1,4,5
 774 519 774 519 498 519 c 2,6,-1
 452 519 l 2,7,8
 184 519 184 519 88 490 c 1,9,-1
 88 710 l 1,0,1
EndSplineSet
EndChar

StartChar: period
Encoding: 46 46 36
Width: 683
GlyphClass: 2
Flags: W
LayerCount: 2
Fore
SplineSet
183 161 m 0,0,1
 183 231 183 231 230 282 c 0,2,3
 277 332 277 332 344 332 c 256,4,5
 411 332 411 332 458 282 c 0,6,7
 505 231 505 231 505 161 c 0,8,9
 505 89 505 89 458 40 c 0,10,11
 410 -10 410 -10 344 -10 c 256,12,13
 278 -10 278 -10 230 40 c 0,14,15
 183 89 183 89 183 161 c 0,0,1
EndSplineSet
EndChar

StartChar: slash
Encoding: 47 47 37
Width: 739
GlyphClass: 2
Flags: W
LayerCount: 2
Fore
SplineSet
286 102 m 2,0,1
 269 17 269 17 269 -30 c 128,-1,2
 269 -77 269 -77 282 -120 c 1,3,-1
 47 -120 l 1,4,-1
 64 -79 l 1,5,6
 101 7 101 7 117 77 c 1,7,-1
 413 1488 l 2,8,9
 431 1576 431 1576 431 1620 c 128,-1,10
 431 1664 431 1664 417 1710 c 1,11,-1
 652 1710 l 1,12,-1
 635 1669 l 1,13,14
 598 1583 598 1583 576 1488 c 1,15,-1
 286 102 l 2,0,1
EndSplineSet
EndChar

StartChar: zero
Encoding: 48 48 38
Width: 1210
GlyphClass: 2
Flags: W
LayerCount: 2
Fore
SplineSet
400 920 m 0,0,1
 400 80 400 80 609 80 c 256,2,3
 818 80 818 80 818 920 c 0,4,5
 818 1326 818 1326 708 1417 c 0,6,7
 668 1450 668 1450 609 1450 c 0,8,9
 442 1450 442 1450 410 1152 c 0,10,11
 400 1052 400 1052 400 920 c 0,0,1
609 -20 m 0,12,13
 375 -20 375 -20 246 240 c 0,14,15
 128 477 128 477 128 862 c 0,16,17
 128 1352 128 1352 388 1498 c 0,18,19
 479 1550 479 1550 609 1550 c 0,20,21
 857 1550 857 1550 980 1356 c 1,22,23
 1090 1180 1090 1180 1090 862 c 0,24,25
 1090 332 1090 332 879 101 c 0,26,27
 768 -20 768 -20 609 -20 c 0,12,13
EndSplineSet
EndChar

StartChar: one
Encoding: 49 49 39
Width: 729
GlyphClass: 2
Flags: W
LayerCount: 2
Fore
SplineSet
259 1253 m 1,0,1
 209 1231 209 1231 164 1231 c 0,2,3
 79 1231 79 1231 66 1270 c 1,4,5
 134 1298 134 1298 202 1359 c 0,6,7
 325 1471 325 1471 348 1530 c 1,8,-1
 534 1530 l 1,9,-1
 524 1486 l 1,10,11
 511 1423 511 1423 508 1337 c 128,-1,12
 505 1251 505 1251 502 1183 c 128,-1,13
 499 1115 499 1115 498 1042 c 0,14,15
 494 870 494 870 494 732 c 0,16,17
 494 206 494 206 527 90 c 0,18,19
 539 47 539 47 561 0 c 1,20,-1
 205 0 l 1,21,-1
 223 45 l 1,22,23
 269 166 269 166 269 738 c 0,24,25
 269 1065 269 1065 259 1253 c 1,0,1
EndSplineSet
EndChar

StartChar: two
Encoding: 50 50 40
Width: 1025
GlyphClass: 2
Flags: W
LayerCount: 2
Fore
SplineSet
571 1550 m 0,0,1
 892 1550 892 1550 892 1278 c 0,2,3
 892 1051 892 1051 632 634 c 1,4,-1
 454 354 l 1,5,6
 372 221 372 221 372 179 c 0,7,8
 372 139 372 139 395 125 c 0,9,10
 436 100 436 100 517 100 c 128,-1,11
 598 100 598 100 659 118 c 128,-1,12
 720 136 720 136 772 168 c 1,13,14
 880 237 880 237 916 350 c 1,15,16
 959 291 959 291 959 198 c 0,17,18
 959 104 959 104 940 68 c 0,19,20
 903 0 903 0 819 0 c 2,21,-1
 71 0 l 1,22,23
 81 55 81 55 149 181 c 1,24,25
 419 671 419 671 474.5 782 c 128,-1,26
 530 893 530 893 570 987 c 0,27,28
 657 1195 657 1195 657 1312 c 0,29,30
 657 1372 657 1372 630.5 1401 c 128,-1,31
 604 1430 604 1430 547 1430 c 128,-1,32
 490 1430 490 1430 446.5 1409 c 128,-1,33
 403 1388 403 1388 365.5 1352 c 128,-1,34
 328 1316 328 1316 297.5 1269 c 128,-1,35
 267 1222 267 1222 244 1170 c 0,36,37
 199 1064 199 1064 188 960 c 1,38,39
 110 999 110 999 110 1219 c 0,40,41
 110 1458 110 1458 168 1564 c 0,42,43
 183 1591 183 1591 203 1600 c 1,44,45
 235 1556 235 1556 251 1546 c 0,46,47
 278 1530 278 1530 314.5 1530 c 128,-1,48
 351 1530 351 1530 376.5 1533 c 128,-1,49
 402 1536 402 1536 431 1540 c 0,50,51
 504 1550 504 1550 571 1550 c 0,0,1
EndSplineSet
EndChar

StartChar: three
Encoding: 51 51 41
Width: 1026
GlyphClass: 2
Flags: W
LayerCount: 2
Fore
SplineSet
868 1407.5 m 128,-1,1
 883 1369 883 1369 883 1324.5 c 128,-1,2
 883 1280 883 1280 863.5 1235 c 128,-1,3
 844 1190 844 1190 812 1153 c 0,4,5
 753 1083 753 1083 659 1036 c 1,6,7
 859 990 859 990 919 840 c 0,8,9
 938 792 938 792 938 714.5 c 128,-1,10
 938 637 938 637 904.5 541.5 c 128,-1,11
 871 446 871 446 812.5 362 c 128,-1,12
 754 278 754 278 675 208 c 128,-1,13
 596 138 596 138 506 87 c 0,14,15
 319 -20 319 -20 130 -20 c 1,16,17
 92 -6 92 -6 74.5 24.5 c 128,-1,18
 57 55 57 55 55 80 c 1,19,20
 208 80 208 80 352 168 c 1,21,22
 487 252 487 252 574 391 c 1,23,24
 661 532 661 532 661 686 c 0,25,26
 661 807 661 807 608 868 c 0,27,28
 537 950 537 950 357 950 c 1,29,30
 322 990 322 990 322 1040 c 1,31,32
 427 1047 427 1047 529 1127 c 0,33,34
 640 1215 640 1215 640 1332 c 0,35,36
 640 1383 640 1383 613.5 1406.5 c 128,-1,37
 587 1430 587 1430 520 1430 c 128,-1,38
 453 1430 453 1430 401 1412 c 128,-1,39
 349 1394 349 1394 310 1354 c 1,40,41
 232 1277 232 1277 191 1100 c 1,42,43
 150 1120 150 1120 136.5 1186 c 128,-1,44
 123 1252 123 1252 123 1306.5 c 128,-1,45
 123 1361 123 1361 125.5 1382.5 c 128,-1,46
 128 1404 128 1404 133.5 1430 c 128,-1,47
 139 1456 139 1456 146 1484 c 128,-1,48
 153 1512 153 1512 162 1536 c 0,49,50
 183 1589 183 1589 206 1600 c 1,51,52
 238 1556 238 1556 254 1546 c 0,53,54
 281 1530 281 1530 328.5 1530 c 128,-1,55
 376 1530 376 1530 443 1540 c 128,-1,56
 510 1550 510 1550 592.5 1550 c 128,-1,57
 675 1550 675 1550 730 1529.5 c 128,-1,58
 785 1509 785 1509 819 1477.5 c 128,-1,0
 853 1446 853 1446 868 1407.5 c 128,-1,1
EndSplineSet
EndChar

StartChar: four
Encoding: 52 52 42
Width: 1133
GlyphClass: 2
Flags: W
LayerCount: 2
Fore
SplineSet
647 610 m 1,0,1
 650 713 650 713 650 899.5 c 128,-1,2
 650 1086 650 1086 620 1230 c 1,3,-1
 895 1230 l 1,4,-1
 888 1186 l 2,5,6
 877 1122 877 1122 869 1029 c 0,7,8
 854 854 854 854 854 654 c 2,9,-1
 854 612 l 1,10,11
 959 618 959 618 1050 660 c 1,12,-1
 1050 450 l 1,13,-1
 1009 462 l 1,14,15
 929 484 929 484 856 490 c 1,16,17
 865 144 865 144 898 45 c 0,18,19
 905 24 905 24 915 0 c 1,20,-1
 560 0 l 1,21,22
 598 59 598 59 609.5 118.5 c 128,-1,23
 621 178 621 178 626 228 c 0,24,25
 638 354 638 354 644 500 c 1,26,-1
 66 500 l 1,27,28
 181 731 181 731 241 1188 c 0,29,30
 258 1318 258 1318 258 1421 c 128,-1,31
 258 1524 258 1524 252 1530 c 1,32,-1
 573 1530 l 1,33,34
 566 1507 566 1507 559 1487 c 2,35,-1
 544 1444 l 2,36,37
 527 1394 527 1394 510 1332 c 2,38,-1
 386 858 l 2,39,40
 355 736 355 736 347.5 689 c 128,-1,41
 340 642 340 642 375 625 c 128,-1,42
 410 608 410 608 484 610 c 1,43,-1
 647 610 l 1,0,1
EndSplineSet
EndChar

StartChar: five
Encoding: 53 53 43
Width: 1008
GlyphClass: 2
Flags: W
LayerCount: 2
Fore
SplineSet
309 1070 m 1,0,1
 394 1100 394 1100 498.5 1100 c 128,-1,2
 603 1100 603 1100 680 1070.5 c 128,-1,3
 757 1041 757 1041 807 990 c 0,4,5
 904 891 904 891 904 721 c 0,6,7
 904 535 904 535 798 360 c 1,8,9
 697 191 697 191 534 88 c 0,10,11
 365 -20 365 -20 189 -20 c 1,12,13
 145 -11 145 -11 122 50 c 0,14,15
 115 66 115 66 114 80 c 1,16,17
 334 80 334 80 490 250 c 0,18,19
 650 424 650 424 650 676 c 0,20,21
 650 874 650 874 498 944 c 0,22,23
 442 970 442 970 354.5 970 c 128,-1,24
 267 970 267 970 146 930 c 1,25,-1
 146 1268 l 2,26,27
 146 1409 146 1409 120 1479 c 0,28,29
 110 1504 110 1504 96 1530 c 1,30,-1
 828 1530 l 2,31,32
 894 1530 894 1530 912 1412 c 0,33,34
 918 1377 918 1377 918 1336 c 128,-1,35
 918 1295 918 1295 912 1262.5 c 128,-1,36
 906 1230 906 1230 897.5 1205 c 128,-1,37
 889 1180 889 1180 880 1162 c 2,38,-1
 865 1130 l 1,39,40
 804 1290 804 1290 736 1346 c 0,41,42
 659 1410 659 1410 507 1410 c 2,43,-1
 456 1410 l 2,44,45
 366 1410 366 1410 344 1390 c 0,46,47
 308 1357 308 1357 308 1248 c 2,48,-1
 308 1142 l 2,49,50
 308 1122 308 1122 308.5 1105.5 c 128,-1,51
 309 1089 309 1089 309 1070 c 1,0,1
EndSplineSet
EndChar

StartChar: six
Encoding: 54 54 44
Width: 1086
GlyphClass: 2
Flags: W
LayerCount: 2
Fore
SplineSet
472 1045 m 1,0,1
 526 1060 526 1060 604 1060 c 128,-1,2
 682 1060 682 1060 760.5 1028.5 c 128,-1,3
 839 997 839 997 894 934 c 1,4,5
 1009 806 1009 806 1009 560 c 0,6,7
 1009 322 1009 322 880 155 c 0,8,9
 746 -20 746 -20 535 -20 c 0,10,11
 341 -20 341 -20 225 130 c 0,12,13
 101 290 101 290 101 581 c 0,14,15
 101 869 101 869 233 1108 c 0,16,17
 348 1315 348 1315 533 1441 c 0,18,19
 703 1556 703 1556 856 1552 c 1,20,21
 900 1540 900 1540 924 1482 c 0,22,23
 930 1466 930 1466 931 1450 c 1,24,25
 786 1444 786 1444 653 1318 c 0,26,27
 539 1209 539 1209 472 1045 c 1,0,1
359 566 m 0,28,29
 359 80 359 80 561 80 c 0,30,31
 660 80 660 80 710 234 c 0,32,33
 753 366 753 366 753 576 c 0,34,35
 753 813 753 813 646 908 c 0,36,37
 610 940 610 940 561 940 c 0,38,39
 457 940 457 940 408 849.5 c 128,-1,40
 359 759 359 759 359 566 c 0,28,29
EndSplineSet
EndChar

StartChar: seven
Encoding: 55 55 45
Width: 980
GlyphClass: 2
Flags: W
LayerCount: 2
Fore
SplineSet
601 109.5 m 128,-1,1
 601 68 601 68 618 0 c 1,2,-1
 257 0 l 1,3,4
 285 28 285 28 323.5 186.5 c 128,-1,5
 362 345 362 345 396 468 c 0,6,7
 487 788 487 788 524 904 c 2,8,-1
 626 1229 l 2,9,10
 642 1281 642 1281 646.5 1304.5 c 128,-1,11
 651 1328 651 1328 642 1351 c 128,-1,12
 633 1374 633 1374 612 1390 c 0,13,14
 572 1420 572 1420 496 1420 c 2,15,-1
 444 1420 l 2,16,17
 331 1420 331 1420 242 1299 c 0,18,19
 165 1194 165 1194 140 1050 c 1,20,21
 86 1158 86 1158 86 1317 c 0,22,23
 86 1530 86 1530 170 1530 c 2,24,-1
 961 1530 l 1,25,26
 935 1498 935 1498 912 1446 c 2,27,-1
 853 1310 l 1,28,29
 758 1083 758 1083 657 544 c 0,30,31
 611 301 611 301 606 226 c 128,-1,0
 601 151 601 151 601 109.5 c 128,-1,1
EndSplineSet
EndChar

StartChar: eight
Encoding: 56 56 46
Width: 1203
GlyphClass: 2
Flags: W
LayerCount: 2
Fore
SplineSet
750 6 m 0,0,1
 683 -20 683 -20 599.5 -20 c 128,-1,2
 516 -20 516 -20 449 6.5 c 128,-1,3
 382 33 382 33 330.5 78.5 c 128,-1,4
 279 124 279 124 241.5 186 c 128,-1,5
 204 248 204 248 180 318 c 0,6,7
 134 457 134 457 134 578 c 128,-1,8
 134 699 134 699 152 766 c 128,-1,9
 170 833 170 833 204 881 c 0,10,11
 269 973 269 973 400 1008 c 1,12,13
 295 1045 295 1045 240 1125 c 0,14,15
 194 1193 194 1193 194 1274.5 c 128,-1,16
 194 1356 194 1356 229 1407.5 c 128,-1,17
 264 1459 264 1459 322 1490 c 1,18,19
 430 1550 430 1550 600 1550 c 0,20,21
 874 1550 874 1550 971 1408 c 0,22,23
 1006 1356 1006 1356 1006 1299 c 128,-1,24
 1006 1242 1006 1242 995 1202.5 c 128,-1,25
 984 1163 984 1163 960 1127 c 0,26,27
 907 1048 907 1048 803 1010 c 1,28,29
 933 978 933 978 996 888 c 0,30,31
 1066 788 1066 788 1066 611 c 0,32,33
 1066 367 1066 367 958 186 c 0,34,35
 882 59 882 59 750 6 c 0,0,1
600 951 m 256,36,37
 498 951 498 951 440 844 c 0,38,39
 388 746 388 746 388 619 c 128,-1,40
 388 492 388 492 400.5 396 c 128,-1,41
 413 300 413 300 440 230 c 0,42,43
 496 80 496 80 600 80 c 256,44,45
 704 80 704 80 760 230 c 0,46,47
 812 367 812 367 812 606 c 0,48,49
 812 746 812 746 760 844 c 0,50,51
 702 951 702 951 600 951 c 256,36,37
600 1450 m 256,52,53
 513 1450 513 1450 472 1392 c 1,54,55
 438 1346 438 1346 438 1295.5 c 128,-1,56
 438 1245 438 1245 448 1208.5 c 128,-1,57
 458 1172 458 1172 478 1140 c 0,58,59
 525 1067 525 1067 600 1067 c 256,60,61
 675 1067 675 1067 722 1140 c 1,62,63
 762 1204 762 1204 762 1255 c 128,-1,64
 762 1306 762 1306 754.5 1336.5 c 128,-1,65
 747 1367 747 1367 728 1392 c 1,66,67
 687 1450 687 1450 600 1450 c 256,52,53
EndSplineSet
EndChar

StartChar: nine
Encoding: 57 57 47
Width: 1079
GlyphClass: 2
Flags: W
LayerCount: 2
Fore
SplineSet
719 874 m 1,0,1
 634 780 634 780 487 780 c 0,2,3
 301 780 301 780 195 908 c 0,4,5
 102 1019 102 1019 102 1172 c 0,6,7
 102 1344 102 1344 228 1450 c 0,8,9
 348 1550 348 1550 536 1550 c 0,10,11
 764 1550 764 1550 872 1412.5 c 128,-1,12
 980 1275 980 1275 980 1001 c 0,13,14
 980 719 980 719 858 468 c 1,15,16
 750 249 750 249 578 111 c 0,17,18
 415 -20 415 -20 275 -20 c 1,19,20
 245 -14 245 -14 227 10 c 0,21,22
 194 53 194 53 200 80 c 1,23,24
 341 111 341 111 463 232 c 0,25,26
 643 411 643 411 700 692 c 0,27,28
 719 782 719 782 719 874 c 1,0,1
604 1431 m 0,29,30
 572 1450 572 1450 526.5 1450 c 128,-1,31
 481 1450 481 1450 445 1430 c 128,-1,32
 409 1410 409 1410 386 1376 c 0,33,34
 339 1307 339 1307 339 1196 c 0,35,36
 339 1005 339 1005 452 941 c 0,37,38
 490 920 490 920 531 920 c 128,-1,39
 572 920 572 920 601.5 934 c 128,-1,40
 631 948 631 948 654 980 c 1,41,42
 703 1052 703 1052 703 1196 c 0,43,44
 703 1372 703 1372 604 1431 c 0,29,30
EndSplineSet
EndChar

StartChar: colon
Encoding: 58 58 48
Width: 683
GlyphClass: 2
Flags: W
LayerCount: 2
Fore
SplineSet
183 161 m 0,0,1
 183 231 183 231 230 282 c 0,2,3
 277 332 277 332 344 332 c 256,4,5
 411 332 411 332 458 282 c 0,6,7
 505 231 505 231 505 161 c 0,8,9
 505 89 505 89 458 40 c 0,10,11
 410 -10 410 -10 344 -10 c 256,12,13
 278 -10 278 -10 230 40 c 0,14,15
 183 89 183 89 183 161 c 0,0,1
183 861 m 0,16,17
 183 931 183 931 230 982 c 0,18,19
 277 1032 277 1032 344 1032 c 256,20,21
 411 1032 411 1032 458 982 c 0,22,23
 505 931 505 931 505 861 c 0,24,25
 505 789 505 789 458 740 c 0,26,27
 410 690 410 690 344 690 c 256,28,29
 278 690 278 690 230 740 c 0,30,31
 183 789 183 789 183 861 c 0,16,17
EndSplineSet
EndChar

StartChar: semicolon
Encoding: 59 59 49
Width: 711
GlyphClass: 2
Flags: W
LayerCount: 2
Fore
SplineSet
479 340 m 1,0,1
 502 253 502 253 502 214 c 0,2,3
 502 69 502 69 467 -24.5 c 128,-1,4
 432 -118 432 -118 393 -180 c 0,5,6
 315 -303 315 -303 236 -350 c 1,7,8
 224 -343 224 -343 204 -328 c 2,9,-1
 164 -300 l 1,10,11
 265 -154 265 -154 265 66 c 0,12,13
 265 191 265 191 193 295 c 0,14,15
 173 324 173 324 153 340 c 1,16,-1
 479 340 l 1,0,1
183 861 m 0,17,18
 183 931 183 931 230 982 c 0,19,20
 277 1032 277 1032 344 1032 c 256,21,22
 411 1032 411 1032 458 982 c 0,23,24
 505 931 505 931 505 861 c 0,25,26
 505 789 505 789 458 740 c 0,27,28
 410 690 410 690 344 690 c 256,29,30
 278 690 278 690 230 740 c 0,31,32
 183 789 183 789 183 861 c 0,17,18
EndSplineSet
EndChar

StartChar: less
Encoding: 60 60 50
Width: 973
GlyphClass: 2
Flags: W
LayerCount: 2
Fore
SplineSet
921 960 m 1,0,1
 923 942 923 942 923 924 c 0,2,3
 923 889 923 889 916 870 c 1,4,5
 872 831 872 831 815 786 c 1,6,7
 570 604 570 604 414 515 c 1,8,9
 694 352 694 352 916 160 c 1,10,11
 923 141 923 141 923 119 c 0,12,13
 923 88 923 88 921 70 c 1,14,-1
 332 344 l 1,15,-1
 218 394 l 1,16,17
 106 440 106 440 82 440 c 1,18,-1
 82 590 l 1,19,20
 106 590 106 590 188 624 c 1,21,-1
 462 745 l 1,22,-1
 921 960 l 1,0,1
EndSplineSet
EndChar

StartChar: equal
Encoding: 61 61 51
Width: 1286
GlyphClass: 2
Flags: W
LayerCount: 2
Fore
SplineSet
178 950 m 1,0,1
 301 920 301 920 642.5 920 c 128,-1,2
 984 920 984 920 1110 950 c 1,3,-1
 1110 740 l 1,4,5
 984 770 984 770 642.5 770 c 128,-1,6
 301 770 301 770 178 740 c 1,7,-1
 178 950 l 1,0,1
178 550 m 1,8,9
 301 520 301 520 642.5 520 c 128,-1,10
 984 520 984 520 1110 550 c 1,11,-1
 1110 340 l 1,12,13
 984 370 984 370 642.5 370 c 128,-1,14
 301 370 301 370 178 340 c 1,15,-1
 178 550 l 1,8,9
EndSplineSet
EndChar

StartChar: greater
Encoding: 62 62 52
Width: 973
GlyphClass: 2
Flags: W
LayerCount: 2
Fore
SplineSet
52 960 m 1,0,1
 50 942 50 942 50 924 c 0,2,3
 50 889 50 889 57 870 c 1,4,5
 101 831 101 831 158 786 c 1,6,7
 403 604 403 604 559 515 c 1,8,9
 279 352 279 352 57 160 c 1,10,11
 50 141 50 141 50 119 c 0,12,13
 50 88 50 88 52 70 c 1,14,-1
 641 344 l 1,15,-1
 755 394 l 1,16,17
 867 440 867 440 891 440 c 1,18,-1
 891 590 l 1,19,20
 867 590 867 590 785 624 c 1,21,-1
 511 745 l 1,22,-1
 52 960 l 1,0,1
EndSplineSet
EndChar

StartChar: question
Encoding: 63 63 53
Width: 1025
GlyphClass: 2
Flags: W
LayerCount: 2
Fore
SplineSet
191 963 m 1,0,1
 123 997 123 997 123 1277 c 0,2,3
 123 1483 123 1483 176 1569 c 0,4,5
 189 1590 189 1590 206 1597 c 1,6,7
 237 1554 237 1554 254 1545 c 0,8,9
 280 1530 280 1530 317 1530 c 128,-1,10
 354 1530 354 1530 380 1534 c 2,11,-1
 434 1542 l 2,12,13
 515 1555 515 1555 586.5 1555 c 128,-1,14
 658 1555 658 1555 726 1536 c 128,-1,15
 794 1517 794 1517 843 1478 c 0,16,17
 944 1396 944 1396 948 1226 c 1,18,19
 950 1052 950 1052 738 864 c 0,20,21
 603 745 603 745 563 687 c 128,-1,22
 523 629 523 629 523 588 c 128,-1,23
 523 547 523 547 525.5 527.5 c 128,-1,24
 528 508 528 508 532.5 493.5 c 128,-1,25
 537 479 537 479 544 468 c 2,26,-1
 562 440 l 1,27,-1
 334 440 l 1,28,29
 326 591 326 591 408 726 c 0,30,31
 438 776 438 776 472 824 c 2,32,-1
 542 921 l 1,33,34
 670 1093 670 1093 670 1264.5 c 128,-1,35
 670 1436 670 1436 551 1436 c 0,36,37
 458 1436 458 1436 374 1357 c 0,38,39
 262 1253 262 1253 211 1066 c 0,40,41
 196 1012 196 1012 191 963 c 1,0,1
283 161 m 0,42,43
 283 231 283 231 330 282 c 0,44,45
 377 332 377 332 444 332 c 256,46,47
 511 332 511 332 558 282 c 0,48,49
 605 231 605 231 605 161 c 0,50,51
 605 89 605 89 558 40 c 0,52,53
 510 -10 510 -10 444 -10 c 256,54,55
 378 -10 378 -10 330 40 c 0,56,57
 283 89 283 89 283 161 c 0,42,43
EndSplineSet
EndChar

StartChar: at
Encoding: 64 64 54
Width: 1914
GlyphClass: 2
Flags: W
LayerCount: 2
Fore
SplineSet
1247 271 m 0,0,1
 1247 145 1247 145 1328 145 c 0,2,3
 1375 145 1375 145 1425 186 c 128,-1,4
 1475 227 1475 227 1516 308 c 0,5,6
 1610 494 1610 494 1610 792 c 0,7,8
 1610 1036 1610 1036 1484 1186 c 0,9,10
 1347 1350 1347 1350 1094 1350 c 0,11,12
 851 1350 851 1350 666 1191 c 0,13,14
 506 1053 506 1053 416 816 c 1,15,16
 333 601 333 601 333 410.5 c 128,-1,17
 333 220 333 220 374.5 98 c 128,-1,18
 416 -24 416 -24 494 -110 c 0,19,20
 648 -281 648 -281 939 -314 c 1,21,22
 929 -351 929 -351 878 -388 c 0,23,24
 863 -399 863 -399 851 -405 c 1,25,26
 518 -405 518 -405 312 -197 c 0,27,28
 100 17 100 17 100 379 c 0,29,30
 100 681 100 681 233 928 c 0,31,32
 363 1170 363 1170 590 1308 c 0,33,34
 824 1450 824 1450 1108 1450 c 0,35,36
 1605 1450 1605 1450 1753 1114 c 0,37,38
 1812 981 1812 981 1812 796 c 0,39,40
 1812 488 1812 488 1672 270 c 0,41,42
 1581 128 1581 128 1449 73 c 0,43,44
 1382 45 1382 45 1307 45 c 0,45,46
 1141 45 1141 45 1085 197 c 1,47,48
 972 45 972 45 817 45 c 0,49,50
 702 45 702 45 632 128 c 0,51,52
 562 212 562 212 562 352 c 128,-1,53
 562 492 562 492 610 609 c 128,-1,54
 658 726 658 726 742 810 c 0,55,56
 920 990 920 990 1190 990 c 2,57,-1
 1405 990 l 1,58,59
 1377 936 1377 936 1360 874 c 2,60,-1
 1331 768 l 1,61,62
 1247 471 1247 471 1247 271 c 0,0,1
1064 509 m 0,63,64
 1071 549 1071 549 1082 598 c 0,65,66
 1133 838 1133 838 1146 893 c 1,67,68
 984 875 984 875 880 716 c 0,69,70
 772 550 772 550 772 313 c 0,71,72
 772 202 772 202 819 168 c 0,73,74
 835 157 835 157 857 157 c 0,75,76
 918 157 918 157 973.5 245.5 c 128,-1,77
 1029 334 1029 334 1064 509 c 0,63,64
EndSplineSet
EndChar

StartChar: A
Encoding: 65 65 55
Width: 1161
GlyphClass: 2
Flags: W
LayerCount: 2
Fore
SplineSet
813 0 m 1,0,1
 826 63 826 63 826 100.5 c 128,-1,2
 826 138 826 138 824.5 157 c 128,-1,3
 823 176 823 176 820.5 197.5 c 128,-1,4
 818 219 818 219 814.5 245.5 c 128,-1,5
 811 272 811 272 808 307 c 0,6,7
 785 546 785 546 645 700 c 0,8,9
 583 768 583 768 511 803.5 c 128,-1,10
 439 839 439 839 392.5 839 c 128,-1,11
 346 839 346 839 321 833 c 1,12,13
 265 665 265 665 265 482 c 0,14,15
 265 320 265 320 282 240 c 0,16,17
 309 120 309 120 365 -1 c 1,18,-1
 66 -1 l 1,19,20
 90 59 90 59 90 251.5 c 128,-1,21
 90 444 90 444 119 611.5 c 128,-1,22
 148 779 148 779 194.5 910 c 128,-1,23
 241 1041 241 1041 298.5 1139.5 c 128,-1,24
 356 1238 356 1238 413.5 1311.5 c 128,-1,25
 471 1385 471 1385 522 1437.5 c 128,-1,26
 573 1490 573 1490 607 1530 c 1,27,-1
 922 1530 l 1,28,29
 879 1481 879 1481 879 1393 c 0,30,31
 879 1353 879 1353 892 1262 c 2,32,-1
 917 1080 l 1,33,34
 1054 136 1054 136 1162 0 c 1,35,-1
 813 0 l 1,0,1
362 939 m 1,36,37
 401 954 401 954 444 954 c 128,-1,38
 487 954 487 954 521.5 948 c 128,-1,39
 556 942 556 942 590 928 c 0,40,41
 663 900 663 900 712 839 c 1,42,43
 663 1096 663 1096 652 1153 c 2,44,-1
 617 1328 l 1,45,-1
 560 1260 l 2,46,47
 440 1116 440 1116 362 939 c 1,36,37
EndSplineSet
EndChar

StartChar: B
Encoding: 66 66 56
Width: 1154
GlyphClass: 2
Flags: W
LayerCount: 2
Fore
SplineSet
1052 1311 m 0,0,1
 1052 1143 1052 1143 806 1035 c 1,2,3
 1010 997 1010 997 1072 850 c 0,4,5
 1092 801 1092 801 1092 720.5 c 128,-1,6
 1092 640 1092 640 1068.5 546.5 c 128,-1,7
 1045 453 1045 453 994.5 370.5 c 128,-1,8
 944 288 944 288 866 220 c 128,-1,9
 788 152 788 152 679 103 c 0,10,11
 450 0 450 0 113 0 c 1,12,13
 145 76 145 76 150.5 127 c 128,-1,14
 156 178 156 178 160 236 c 0,15,16
 168 354 168 354 168 553 c 0,17,18
 168 794 168 794 160 993 c 2,19,-1
 149 1268 l 2,20,21
 145 1372 145 1372 131 1413 c 0,22,23
 109 1478 109 1478 59 1530 c 1,24,-1
 588 1530 l 2,25,26
 830 1530 830 1530 938 1482 c 0,27,28
 1052 1432 1052 1432 1052 1311 c 0,0,1
401 793 m 2,29,-1
 402 285 l 2,30,31
 402 228 402 228 414.5 199 c 128,-1,32
 427 170 427 170 465 170 c 0,33,34
 619 170 619 170 722 316 c 0,35,36
 828 466 828 466 828 706 c 0,37,38
 828 825 828 825 775 883 c 0,39,40
 705 960 705 960 524 960 c 0,41,42
 483 960 483 960 459 956.5 c 128,-1,43
 435 953 435 953 422 937 c 0,44,45
 401 911 401 911 401 793 c 2,29,-1
775 1204 m 128,-1,47
 788 1238 788 1238 788 1267.5 c 128,-1,48
 788 1297 788 1297 779.5 1327 c 128,-1,49
 771 1357 771 1357 746 1380 c 0,50,51
 690 1430 690 1430 554 1430 c 0,52,53
 451 1430 451 1430 431 1409.5 c 128,-1,54
 411 1389 411 1389 406 1355 c 128,-1,55
 401 1321 401 1321 401 1267.5 c 128,-1,56
 401 1214 401 1214 404 1178.5 c 128,-1,57
 407 1143 407 1143 420 1119 c 0,58,59
 445 1070 445 1070 522.5 1070 c 128,-1,60
 600 1070 600 1070 650.5 1090 c 128,-1,61
 701 1110 701 1110 731.5 1140 c 128,-1,46
 762 1170 762 1170 775 1204 c 128,-1,47
EndSplineSet
EndChar

StartChar: C
Encoding: 67 67 57
Width: 1026
GlyphClass: 2
Flags: W
LayerCount: 2
Fore
SplineSet
938 1600 m 1,0,1
 967 1559 967 1559 967 1474.5 c 128,-1,2
 967 1390 967 1390 961.5 1337.5 c 128,-1,3
 956 1285 956 1285 945 1236 c 0,4,5
 921 1126 921 1126 878 1070 c 1,6,7
 841 1263 841 1263 782 1346 c 1,8,9
 720 1430 720 1430 620.5 1430 c 128,-1,10
 521 1430 521 1430 465 1392 c 128,-1,11
 409 1354 409 1354 379 1292 c 0,12,13
 329 1189 329 1189 329 988.5 c 128,-1,14
 329 788 329 788 374.5 621.5 c 128,-1,15
 420 455 420 455 504 335 c 0,16,17
 681 80 681 80 965 80 c 1,18,19
 961 35 961 35 918 2 c 0,20,21
 905 -8 905 -8 890 -10 c 1,22,23
 527 -10 527 -10 298 257 c 0,24,25
 55 541 55 541 55 1031 c 0,26,27
 55 1287 55 1287 205 1416 c 0,28,29
 338 1530 338 1530 569 1530 c 1,30,-1
 736 1528 l 1,31,32
 854 1528 854 1528 902 1562 c 0,33,34
 922 1577 922 1577 938 1600 c 1,0,1
EndSplineSet
EndChar

StartChar: D
Encoding: 68 68 58
Width: 1194
GlyphClass: 2
Flags: W
LayerCount: 2
Fore
SplineSet
395 1261 m 2,0,-1
 396 265 l 2,1,2
 397 208 397 208 409 179 c 128,-1,3
 421 150 421 150 459 150 c 0,4,5
 637 150 637 150 736 376 c 0,6,7
 832 596 832 596 832 986 c 0,8,9
 832 1191 832 1191 784 1297 c 0,10,11
 719 1440 719 1440 558 1440 c 0,12,13
 455 1440 455 1440 431.5 1416 c 128,-1,14
 408 1392 408 1392 401.5 1356.5 c 128,-1,15
 395 1321 395 1321 395 1261 c 2,0,-1
117 0 m 1,16,17
 149 76 149 76 154.5 127 c 128,-1,18
 160 178 160 178 164 236 c 0,19,20
 172 354 172 354 172 553 c 0,21,22
 172 794 172 794 164 993 c 2,23,-1
 153 1268 l 2,24,25
 149 1372 149 1372 135 1413 c 0,26,27
 113 1478 113 1478 63 1530 c 1,28,-1
 612 1530 l 2,29,30
 954 1530 954 1530 1059 1261 c 0,31,32
 1096 1166 1096 1166 1096 1031 c 0,33,34
 1096 276 1096 276 584 69 c 0,35,36
 411 -1 411 -1 177 -1 c 0,37,38
 162 -1 162 -1 147 -1 c 128,-1,39
 132 -1 132 -1 117 0 c 1,16,17
EndSplineSet
EndChar

StartChar: E
Encoding: 69 69 59
Width: 985
GlyphClass: 2
Flags: W
LayerCount: 2
Fore
SplineSet
910 370 m 1,0,1
 937 333 937 333 937 263 c 128,-1,2
 937 193 937 193 931 151.5 c 128,-1,3
 925 110 925 110 912 76 c 0,4,5
 882 0 882 0 833 0 c 2,6,-1
 23 0 l 1,7,8
 100 41 100 41 125 79 c 0,9,10
 172 150 172 150 172 259 c 0,11,12
 171 526 171 526 171 742 c 2,13,-1
 171 1268 l 2,14,15
 171 1417 171 1417 124 1484 c 0,16,17
 106 1508 106 1508 81 1530 c 1,18,-1
 833 1530 l 1,19,20
 901 1506 901 1506 926 1362 c 0,21,22
 933 1322 933 1322 933 1284 c 0,23,24
 933 1206 933 1206 910 1160 c 1,25,-1
 856 1268 l 2,26,27
 802 1374 802 1374 701 1410 c 0,28,29
 645 1430 645 1430 575 1430 c 128,-1,30
 505 1430 505 1430 475 1425.5 c 128,-1,31
 445 1421 445 1421 429 1404 c 0,32,33
 403 1375 403 1375 403 1293.5 c 128,-1,34
 403 1212 403 1212 407 1180.5 c 128,-1,35
 411 1149 411 1149 426 1129 c 0,36,37
 457 1090 457 1090 557 1090 c 2,38,-1
 871 1090 l 1,39,40
 848 1032 848 1032 824 1008 c 0,41,42
 776 960 776 960 694 960 c 0,43,44
 662 960 662 960 633 967 c 0,45,46
 579 980 579 980 538 980 c 128,-1,47
 497 980 497 980 470.5 972.5 c 128,-1,48
 444 965 444 965 429 949 c 0,49,50
 403 921 403 921 403 848 c 2,51,-1
 403 371 l 2,52,53
 403 183 403 183 424 148 c 128,-1,54
 445 113 445 113 475 106.5 c 128,-1,55
 505 100 505 100 575 100 c 128,-1,56
 645 100 645 100 702 120 c 128,-1,57
 759 140 759 140 797.5 176 c 128,-1,58
 836 212 836 212 861 261.5 c 128,-1,59
 886 311 886 311 910 370 c 1,0,1
EndSplineSet
EndChar

StartChar: F
Encoding: 70 70 60
Width: 957
GlyphClass: 2
Flags: W
LayerCount: 2
Fore
SplineSet
409 848 m 2,0,-1
 409 641 l 2,1,2
 409 323 409 323 416.5 249.5 c 128,-1,3
 424 176 424 176 431 144 c 128,-1,4
 438 112 438 112 452 87 c 0,5,6
 474 46 474 46 536 0 c 1,7,-1
 29 0 l 1,8,9
 108 49 108 49 132 85 c 0,10,11
 178 153 178 153 178 261 c 0,12,13
 177 527 177 527 177 743 c 2,14,-1
 177 1268 l 2,15,16
 177 1417 177 1417 130 1484 c 0,17,18
 112 1508 112 1508 87 1530 c 1,19,-1
 839 1530 l 1,20,21
 907 1506 907 1506 932 1362 c 0,22,23
 939 1322 939 1322 939 1284 c 0,24,25
 939 1206 939 1206 916 1160 c 1,26,-1
 862 1268 l 2,27,28
 808 1374 808 1374 707 1410 c 0,29,30
 651 1430 651 1430 581 1430 c 128,-1,31
 511 1430 511 1430 481 1425.5 c 128,-1,32
 451 1421 451 1421 435 1404 c 0,33,34
 409 1375 409 1375 409 1293.5 c 128,-1,35
 409 1212 409 1212 413 1180.5 c 128,-1,36
 417 1149 417 1149 432 1129 c 0,37,38
 463 1090 463 1090 563 1090 c 2,39,-1
 877 1090 l 1,40,41
 854 1032 854 1032 830 1008 c 0,42,43
 782 960 782 960 700 960 c 0,44,45
 668 960 668 960 639 967 c 0,46,47
 585 980 585 980 544 980 c 128,-1,48
 503 980 503 980 476.5 972.5 c 128,-1,49
 450 965 450 965 435 949 c 0,50,51
 409 921 409 921 409 848 c 2,0,-1
EndSplineSet
EndChar

StartChar: G
Encoding: 71 71 61
Width: 1137
GlyphClass: 2
Flags: W
LayerCount: 2
Fore
SplineSet
775 489 m 2,0,-1
 774 619 l 2,1,2
 774 732 774 732 752 769.5 c 128,-1,3
 730 807 730 807 706 824.5 c 128,-1,4
 682 842 682 842 647 860 c 1,5,-1
 1086 860 l 1,6,7
 1023 802 1023 802 1006 712 c 0,8,9
 990 626 990 626 990 446 c 0,10,11
 990 96 990 96 1032 -20 c 1,12,13
 1018 -21 1018 -21 1004 -21 c 2,14,-1
 977 -21 l 2,15,16
 537 -21 537 -21 310 262 c 0,17,18
 93 533 93 533 93 1031 c 0,19,20
 93 1277 93 1277 238 1408 c 0,21,22
 372 1530 372 1530 597 1530 c 1,23,-1
 773 1528 l 1,24,25
 912 1528 912 1528 967 1562 c 0,26,27
 990 1577 990 1577 1006 1600 c 1,28,29
 1031 1552 1031 1552 1031 1468 c 128,-1,30
 1031 1384 1031 1384 1026 1332.5 c 128,-1,31
 1021 1281 1021 1281 1011 1232 c 0,32,33
 990 1128 990 1128 946 1070 c 1,34,35
 908 1270 908 1270 851 1346 c 0,36,37
 787 1430 787 1430 651 1430 c 0,38,39
 479 1430 479 1430 408 1292 c 0,40,41
 357 1191 357 1191 357 986 c 0,42,43
 357 705 357 705 444 447 c 0,44,45
 505 266 505 266 596 190 c 0,46,47
 643 150 643 150 693.5 150 c 128,-1,48
 744 150 744 150 758 179 c 128,-1,49
 772 208 772 208 773 278 c 0,50,51
 775 416 775 416 775 489 c 2,0,-1
EndSplineSet
EndChar

StartChar: H
Encoding: 72 72 62
Width: 1248
GlyphClass: 2
Flags: W
LayerCount: 2
Fore
SplineSet
849 595 m 2,0,-1
 848 869 l 2,1,2
 848 925 848 925 830 945 c 0,3,4
 797 982 797 982 708 982 c 2,5,-1
 550 982 l 2,6,7
 426 982 426 982 414 912 c 0,8,9
 411 892 411 892 411 869 c 2,10,-1
 410 569 l 1,11,12
 410 181 410 181 450 83 c 0,13,14
 466 45 466 45 500 0 c 1,15,-1
 125 0 l 1,16,17
 157 76 157 76 162.5 127 c 128,-1,18
 168 178 168 178 174 253 c 0,19,20
 185 410 185 410 185 612 c 128,-1,21
 185 814 185 814 184 890.5 c 128,-1,22
 183 967 183 967 182 1040 c 0,23,24
 175 1343 175 1343 163 1403.5 c 128,-1,25
 151 1464 151 1464 143 1485 c 2,26,-1
 125 1530 l 1,27,-1
 500 1530 l 1,28,29
 428 1450 428 1450 420 1314 c 0,30,31
 417 1273 417 1273 417 1228 c 128,-1,32
 417 1183 417 1183 425.5 1157.5 c 128,-1,33
 434 1132 434 1132 454 1120 c 1,34,35
 481 1102 481 1102 581 1102 c 2,36,-1
 676 1102 l 2,37,38
 778 1102 778 1102 802 1117 c 0,39,40
 842 1143 842 1143 842 1230 c 0,41,42
 842 1443 842 1443 758 1530 c 1,43,-1
 1133 1530 l 1,44,45
 1103 1464 1103 1464 1096.5 1408 c 128,-1,46
 1090 1352 1090 1352 1087 1300.5 c 128,-1,47
 1084 1249 1084 1249 1081 1181 c 128,-1,48
 1078 1113 1078 1113 1076 1040 c 0,49,50
 1073 870 1073 870 1073 732 c 0,51,52
 1073 171 1073 171 1115 45 c 0,53,54
 1122 24 1122 24 1133 0 c 1,55,-1
 758 0 l 1,56,57
 808 67 808 67 819 115.5 c 128,-1,58
 830 164 830 164 836 230 c 0,59,60
 849 357 849 357 849 595 c 2,0,-1
EndSplineSet
EndChar

StartChar: I
Encoding: 73 73 63
Width: 666
GlyphClass: 2
Flags: W
LayerCount: 2
Fore
SplineSet
507 1530 m 1,0,1
 470 1437 470 1437 464 1343.5 c 128,-1,2
 458 1250 458 1250 455 1183 c 128,-1,3
 452 1116 452 1116 450 1044 c 0,4,5
 447 876 447 876 447 738 c 0,6,7
 447 172 447 172 489 44 c 0,8,9
 496 22 496 22 507 0 c 1,10,-1
 162 0 l 1,11,12
 193 68 193 68 199 123 c 128,-1,13
 205 178 205 178 210 254 c 0,14,15
 222 411 222 411 222 616 c 128,-1,16
 222 821 222 821 221 896.5 c 128,-1,17
 220 972 220 972 218 1044 c 0,18,19
 211 1395 211 1395 176 1490 c 1,20,-1
 162 1530 l 1,21,-1
 507 1530 l 1,0,1
EndSplineSet
EndChar

StartChar: J
Encoding: 74 74 64
Width: 874
GlyphClass: 2
Flags: W
LayerCount: 2
Fore
SplineSet
736 808 m 2,0,-1
 737 430 l 2,1,2
 737 249 737 249 646 124 c 1,3,4
 539 -20 539 -20 348 -20 c 0,5,6
 198 -20 198 -20 108 80 c 0,7,8
 26 171 26 171 26 300 c 1,9,10
 71 404 71 404 122 459 c 0,11,12
 206 550 206 550 262 560 c 1,13,14
 246 469 246 469 246 393 c 128,-1,15
 246 317 246 317 252.5 264.5 c 128,-1,16
 259 212 259 212 274 171 c 0,17,18
 307 80 307 80 378 80 c 0,19,20
 440 80 440 80 472 160 c 0,21,22
 499 226 499 226 499 337 c 2,23,-1
 499 577 l 2,24,25
 499 1011 499 1011 493 1308 c 0,26,27
 491 1387 491 1387 469.5 1438.5 c 128,-1,28
 448 1490 448 1490 397 1530 c 1,29,-1
 792 1530 l 1,30,31
 762 1476 762 1476 755.5 1414 c 128,-1,32
 749 1352 749 1352 744 1278 c 0,33,34
 736 1137 736 1137 736 808 c 2,0,-1
EndSplineSet
EndChar

StartChar: K
Encoding: 75 75 65
Width: 1151
GlyphClass: 2
Flags: W
LayerCount: 2
Fore
SplineSet
845.5 1392 m 128,-1,1
 856 1433 856 1433 856 1471.5 c 128,-1,2
 856 1510 856 1510 841 1531 c 1,3,-1
 1150 1531 l 1,4,5
 1127 1498 1127 1498 1111 1458 c 2,6,-1
 1074 1367 l 1,7,8
 983 1147 983 1147 809 1036 c 1,9,10
 820 702 820 702 952 406 c 1,11,12
 1071 135 1071 135 1232 0 c 1,13,-1
 887 0 l 1,14,15
 748 148 748 148 690 538 c 0,16,17
 668 681 668 681 653 874 c 0,18,19
 649 925 649 925 622.5 952.5 c 128,-1,20
 596 980 596 980 548 980 c 128,-1,21
 500 980 500 980 481 971 c 128,-1,22
 462 962 462 962 452 944 c 0,23,24
 435 913 435 913 435 800 c 0,25,26
 435 149 435 149 467 42 c 0,27,28
 473 22 473 22 482 0 c 1,29,-1
 147 0 l 1,30,31
 179 76 179 76 184.5 127 c 128,-1,32
 190 178 190 178 194 236 c 0,33,34
 202 354 202 354 202 553 c 0,35,36
 202 792 202 792 194 991 c 2,37,-1
 183 1266 l 2,38,39
 177 1417 177 1417 145 1479 c 0,40,41
 132 1504 132 1504 113 1530 c 1,42,-1
 505 1530 l 1,43,44
 465 1478 465 1478 453 1433 c 0,45,46
 435 1360 435 1360 435 1287.5 c 128,-1,47
 435 1215 435 1215 438 1183 c 128,-1,48
 441 1151 441 1151 452 1130 c 0,49,50
 475 1090 475 1090 534 1089.5 c 128,-1,51
 593 1089 593 1089 632.5 1107.5 c 128,-1,52
 672 1126 672 1126 706 1157 c 128,-1,53
 740 1188 740 1188 768 1227.5 c 128,-1,54
 796 1267 796 1267 815.5 1309 c 128,-1,0
 835 1351 835 1351 845.5 1392 c 128,-1,1
EndSplineSet
EndChar

StartChar: L
Encoding: 76 76 66
Width: 911
GlyphClass: 2
Flags: W
LayerCount: 2
Fore
SplineSet
911 370 m 1,0,1
 938 331 938 331 938 276 c 128,-1,2
 938 221 938 221 930.5 181 c 128,-1,3
 923 141 923 141 910 105 c 0,4,5
 880 26 880 26 834 0 c 1,6,-1
 30 0 l 1,7,8
 109 49 109 49 133 85 c 0,9,10
 179 153 179 153 179 261 c 0,11,12
 178 527 178 527 178 742 c 2,13,-1
 178 1266 l 2,14,15
 178 1411 178 1411 130 1479 c 0,16,17
 113 1504 113 1504 88 1530 c 1,18,-1
 499 1530 l 1,19,20
 440 1445 440 1445 432 1355 c 0,21,22
 430 1325 430 1325 430 1289 c 2,23,-1
 430 373 l 2,24,25
 430 186 430 186 450 149.5 c 128,-1,26
 470 113 470 113 498 106.5 c 128,-1,27
 526 100 526 100 583 100 c 128,-1,28
 640 100 640 100 691 120 c 128,-1,29
 742 140 742 140 782 176 c 0,30,31
 850 238 850 238 911 370 c 1,0,1
EndSplineSet
EndChar

StartChar: M
Encoding: 77 77 67
Width: 1489
GlyphClass: 2
Flags: W
LayerCount: 2
Fore
SplineSet
351 1183 m 1,0,1
 347 1037 347 1037 347 881 c 0,2,3
 347 668 347 668 354 422 c 128,-1,4
 361 176 361 176 364.5 142.5 c 128,-1,5
 368 109 368 109 374 84 c 0,6,7
 385 38 385 38 410 0 c 1,8,-1
 131 0 l 1,9,10
 169 54 169 54 176.5 116 c 128,-1,11
 184 178 184 178 188 236 c 0,12,13
 196 354 196 354 196 553 c 0,14,15
 196 794 196 794 188 993 c 2,16,-1
 177 1268 l 2,17,18
 171 1420 171 1420 128 1484 c 0,19,20
 112 1508 112 1508 87 1530 c 1,21,-1
 478 1530 l 1,22,23
 517 1359 517 1359 575 1167 c 1,24,-1
 757 586 l 1,25,-1
 1036 1530 l 1,26,-1
 1426 1530 l 1,27,28
 1377 1487 1377 1487 1362 1442 c 0,29,30
 1340 1373 1340 1373 1337 1282 c 2,31,-1
 1330 1105 l 2,32,33
 1317 794 1317 794 1317 553 c 0,34,35
 1317 149 1317 149 1354 40 c 0,36,37
 1361 20 1361 20 1372 0 c 1,38,-1
 1057 0 l 1,39,40
 1084 53 1084 53 1087.5 114.5 c 128,-1,41
 1091 176 1091 176 1094 284 c 0,42,43
 1106 639 1106 639 1106 801 c 0,44,45
 1106 1068 1106 1068 1101 1198 c 1,46,-1
 733 0 l 1,47,-1
 538 614 l 1,48,-1
 351 1183 l 1,0,1
EndSplineSet
EndChar

StartChar: N
Encoding: 78 78 68
Width: 1265
GlyphClass: 2
Flags: W
LayerCount: 2
Fore
SplineSet
359 1089 m 1,0,1
 357 985 357 985 357 852 c 0,2,3
 357 663 357 663 364 419.5 c 128,-1,4
 371 176 371 176 375 142.5 c 128,-1,5
 379 109 379 109 385 84 c 0,6,7
 395 43 395 43 416 0 c 1,8,-1
 148 0 l 1,9,10
 178 61 178 61 184.5 119.5 c 128,-1,11
 191 178 191 178 195 236 c 0,12,13
 203 354 203 354 203 553 c 0,14,15
 203 794 203 794 195 993 c 2,16,-1
 184 1268 l 2,17,18
 178 1420 178 1420 136 1484 c 1,19,20
 119 1508 119 1508 94 1530 c 1,21,-1
 405 1530 l 1,22,23
 464 1394 464 1394 530 1260 c 1,24,-1
 666 994 l 1,25,-1
 958 457 l 1,26,27
 959 520 959 520 959 592 c 2,28,-1
 959 748 l 2,29,30
 959 1248 959 1248 898 1470 c 0,31,32
 886 1511 886 1511 872 1530 c 1,33,-1
 1173 1531 l 1,34,35
 1123 1431 1123 1431 1110 968 c 0,36,37
 1108 896 1108 896 1108 830 c 2,38,-1
 1109 746 l 1,39,-1
 1109 338 l 2,40,41
 1109 79 1109 79 1113 0 c 1,42,-1
 951 0 l 1,43,-1
 661 540 l 1,44,-1
 359 1089 l 1,0,1
EndSplineSet
EndChar

StartChar: O
Encoding: 79 79 69
Width: 1318
GlyphClass: 2
Flags: W
LayerCount: 2
Fore
SplineSet
661 80 m 0,0,1
 853 80 853 80 909 548 c 0,2,3
 928 706 928 706 928 920 c 0,4,5
 928 1450 928 1450 659 1450 c 256,6,7
 390 1450 390 1450 390 920 c 0,8,9
 390 295 390 295 551 131 c 0,10,11
 601 80 601 80 661 80 c 0,0,1
659 -20 m 256,12,13
 393 -20 393 -20 258 230 c 0,14,15
 128 471 128 471 128 920 c 0,16,17
 128 1387 128 1387 415 1508 c 0,18,19
 516 1550 516 1550 659 1550 c 0,20,21
 1069 1550 1069 1550 1160 1186 c 0,22,23
 1190 1069 1190 1069 1190 885 c 128,-1,24
 1190 701 1190 701 1158 526.5 c 128,-1,25
 1126 352 1126 352 1060 230 c 0,26,27
 925 -20 925 -20 659 -20 c 256,12,13
EndSplineSet
EndChar

StartChar: P
Encoding: 80 80 70
Width: 1064
GlyphClass: 2
Flags: W
LayerCount: 2
Fore
SplineSet
484 950 m 0,0,1
 408 950 408 950 408 813 c 2,2,-1
 408 687 l 2,3,4
 408 339 408 339 415.5 257.5 c 128,-1,5
 423 176 423 176 430.5 144 c 128,-1,6
 438 112 438 112 451 87 c 0,7,8
 472 46 472 46 535 0 c 1,9,-1
 110 0 l 1,10,11
 147 74 147 74 155 126 c 128,-1,12
 163 178 163 178 167 236 c 0,13,14
 175 354 175 354 175 553 c 0,15,16
 175 794 175 794 167 993 c 2,17,-1
 156 1268 l 2,18,19
 152 1372 152 1372 138 1413 c 0,20,21
 116 1478 116 1478 66 1530 c 1,22,-1
 625 1530 l 2,23,24
 851 1530 851 1530 952 1482 c 0,25,26
 1059 1432 1059 1432 1059 1311 c 0,27,28
 1059 1163 1059 1163 932 1066 c 0,29,30
 782 950 782 950 484 950 c 0,0,1
780 1200.5 m 128,-1,32
 795 1236 795 1236 795 1266.5 c 128,-1,33
 795 1297 795 1297 786.5 1327 c 128,-1,34
 778 1357 778 1357 753 1380 c 0,35,36
 697 1430 697 1430 561 1430 c 0,37,38
 479 1430 479 1430 454 1410 c 0,39,40
 408 1372 408 1372 408 1261 c 0,41,42
 408 1136 408 1136 428 1106.5 c 128,-1,43
 448 1077 448 1077 474 1068.5 c 128,-1,44
 500 1060 500 1060 553.5 1060 c 128,-1,45
 607 1060 607 1060 654.5 1081 c 128,-1,46
 702 1102 702 1102 733.5 1133.5 c 128,-1,31
 765 1165 765 1165 780 1200.5 c 128,-1,32
EndSplineSet
EndChar

StartChar: Q
Encoding: 81 81 71
Width: 1318
GlyphClass: 2
Flags: W
LayerCount: 2
Fore
SplineSet
1190 920 m 0,0,1
 1190 307 1190 307 951 88 c 1,2,3
 1064 -194 1064 -194 1212 -340 c 1,4,-1
 857 -340 l 1,5,6
 808 -266 808 -266 754 -11 c 1,7,8
 709 -20 709 -20 659 -20 c 0,9,10
 393 -20 393 -20 258 230 c 0,11,12
 128 471 128 471 128 920 c 0,13,14
 128 1387 128 1387 415 1508 c 0,15,16
 516 1550 516 1550 659 1550 c 0,17,18
 1069 1550 1069 1550 1160 1186 c 0,19,20
 1190 1069 1190 1069 1190 920 c 0,0,1
870 337 m 1,21,22
 928 552 928 552 928 920 c 0,23,24
 928 1450 928 1450 659 1450 c 256,25,26
 390 1450 390 1450 390 920 c 0,27,28
 390 634 390 634 427 437 c 1,29,30
 451 524 451 524 506.5 572 c 128,-1,31
 562 620 562 620 621.5 620 c 128,-1,32
 681 620 681 620 716 599 c 128,-1,33
 751 578 751 578 779 540 c 0,34,35
 831 471 831 471 870 337 c 1,21,22
661 80 m 0,36,37
 698 80 698 80 732 100 c 1,38,-1
 726 140 l 2,39,40
 723 161 723 161 715.5 207 c 128,-1,41
 708 253 708 253 695 310 c 128,-1,42
 682 367 682 367 666 406 c 0,43,44
 633 488 633 488 587 488 c 0,45,46
 543 488 543 488 516 438 c 1,47,48
 490 393 490 393 490 337 c 0,49,50
 490 236 490 236 525 162 c 1,51,52
 583 80 583 80 661 80 c 0,36,37
EndSplineSet
EndChar

StartChar: R
Encoding: 82 82 72
Width: 1179
GlyphClass: 2
Flags: W
LayerCount: 2
Fore
SplineSet
541 950 m 0,0,1
 425 950 425 950 425 813 c 0,2,3
 425 245 425 245 444 144 c 0,4,5
 455 83 455 83 472 53 c 2,6,-1
 502 0 l 1,7,-1
 147 0 l 1,8,9
 179 76 179 76 184.5 127 c 128,-1,10
 190 178 190 178 194 236 c 0,11,12
 202 354 202 354 202 553 c 0,13,14
 202 794 202 794 194 993 c 2,15,-1
 183 1268 l 2,16,17
 179 1372 179 1372 165 1413 c 0,18,19
 143 1478 143 1478 93 1530 c 1,20,-1
 622 1530 l 2,21,22
 864 1530 864 1530 972 1482 c 0,23,24
 1086 1432 1086 1432 1086 1311 c 0,25,26
 1086 1205 1086 1205 1007 1112 c 0,27,28
 933 1026 933 1026 813 975 c 1,29,30
 828 591 828 591 1054 238 c 0,31,32
 1151 85 1151 85 1252 0 c 1,33,-1
 877 0 l 1,34,35
 779 134 779 134 696 543 c 0,36,37
 668 685 668 685 659.5 779 c 128,-1,38
 651 873 651 873 645.5 892.5 c 128,-1,39
 640 912 640 912 628 924 c 0,40,41
 604 950 604 950 541 950 c 0,0,1
810.5 1192 m 128,-1,43
 822 1226 822 1226 822 1257.5 c 128,-1,44
 822 1289 822 1289 813.5 1320.5 c 128,-1,45
 805 1352 805 1352 780 1376 c 0,46,47
 725 1430 725 1430 588 1430 c 0,48,49
 537 1430 537 1430 505.5 1426 c 128,-1,50
 474 1422 474 1422 456 1404 c 0,51,52
 425 1374 425 1374 425 1251 c 0,53,54
 425 1143 425 1143 448 1113 c 0,55,56
 489 1060 489 1060 572 1060 c 128,-1,57
 655 1060 655 1060 699.5 1079.5 c 128,-1,58
 744 1099 744 1099 771.5 1128.5 c 128,-1,42
 799 1158 799 1158 810.5 1192 c 128,-1,43
EndSplineSet
EndChar

StartChar: S
Encoding: 83 83 73
Width: 1031
GlyphClass: 2
Flags: W
LayerCount: 2
Fore
SplineSet
344 530 m 1,0,1
 331 426 331 426 331 364.5 c 128,-1,2
 331 303 331 303 346 251 c 128,-1,3
 361 199 361 199 389 161 c 0,4,5
 449 80 449 80 541 80 c 0,6,7
 717 80 717 80 717 274 c 0,8,9
 717 430 717 430 536 605 c 2,10,-1
 432 706 l 2,11,12
 295 838 295 838 245 918 c 0,13,14
 146 1076 146 1076 146 1232 c 0,15,16
 146 1359 146 1359 228 1445 c 0,17,18
 327 1550 327 1550 513 1550 c 0,19,20
 586 1550 586 1550 623 1543 c 0,21,22
 692 1530 692 1530 715 1530 c 0,23,24
 773 1530 773 1530 805 1566 c 0,25,26
 817 1579 817 1579 831 1600 c 1,27,28
 904 1559 904 1559 904 1299 c 0,29,30
 904 1133 904 1133 871 1054 c 0,31,32
 860 1027 860 1027 846 1020 c 1,33,34
 830 1171 830 1171 748 1290 c 0,35,36
 652 1430 652 1430 526 1430 c 0,37,38
 418 1430 418 1430 393 1331 c 0,39,40
 386 1303 386 1303 386 1261.5 c 128,-1,41
 386 1220 386 1220 411 1167 c 128,-1,42
 436 1114 436 1114 476.5 1061.5 c 128,-1,43
 517 1009 517 1009 570 956 c 0,44,45
 730 792 730 792 782.5 734 c 128,-1,46
 835 676 835 676 876 614 c 0,47,48
 966 475 966 475 966 345 c 0,49,50
 966 188 966 188 844 85 c 1,51,52
 718 -20 718 -20 520 -20 c 0,53,54
 356 -20 356 -20 238 62 c 0,55,56
 108 152 108 152 108 300 c 1,57,58
 147 439 147 439 278 504 c 0,59,60
 313 522 313 522 344 530 c 1,0,1
EndSplineSet
EndChar

StartChar: T
Encoding: 84 84 74
Width: 1073
GlyphClass: 2
Flags: W
LayerCount: 2
Fore
SplineSet
36 1080 m 1,0,1
 12 1138 12 1138 12 1217 c 128,-1,2
 12 1296 12 1296 18 1346.5 c 128,-1,3
 24 1397 24 1397 34 1438 c 0,4,5
 58 1530 58 1530 93 1530 c 2,6,-1
 974 1530 l 2,7,8
 1032 1530 1032 1530 1052 1358 c 0,9,10
 1057 1310 1057 1310 1057 1259 c 0,11,12
 1057 1139 1057 1139 1031 1080 c 1,13,14
 945 1347 945 1347 808 1422 c 0,15,16
 777 1440 777 1440 747 1440 c 128,-1,17
 717 1440 717 1440 700 1424.5 c 128,-1,18
 683 1409 683 1409 672 1375 c 0,19,20
 654 1315 654 1315 654 1231 c 2,21,-1
 654 856 l 1,22,-1
 655 550 l 1,23,-1
 655 260 l 2,24,25
 655 162 655 162 680.5 115.5 c 128,-1,26
 706 69 706 69 732.5 45 c 128,-1,27
 759 21 759 21 795 0 c 1,28,-1
 284 0 l 1,29,30
 356 59 356 59 376 97 c 0,31,32
 413 166 413 166 413 260 c 2,33,-1
 413 1161 l 2,34,35
 413 1318 413 1318 401 1363.5 c 128,-1,36
 389 1409 389 1409 372 1424.5 c 128,-1,37
 355 1440 355 1440 325 1440 c 128,-1,38
 295 1440 295 1440 264 1422.5 c 128,-1,39
 233 1405 233 1405 203.5 1376.5 c 128,-1,40
 174 1348 174 1348 147.5 1310.5 c 128,-1,41
 121 1273 121 1273 99 1233 c 0,42,43
 56 1154 56 1154 36 1080 c 1,0,1
EndSplineSet
EndChar

StartChar: U
Encoding: 85 85 75
Width: 1199
GlyphClass: 2
Flags: W
LayerCount: 2
Fore
SplineSet
903 513 m 1,0,-1
 908 897 l 1,1,2
 908 1300 908 1300 878 1412 c 0,3,4
 864 1466 864 1466 844.5 1491 c 128,-1,5
 825 1516 825 1516 813 1530 c 1,6,-1
 1141 1530 l 1,7,-1
 1120 1502 l 1,8,9
 1075 1436 1075 1436 1070 1353 c 128,-1,10
 1065 1270 1065 1270 1062.5 1185 c 128,-1,11
 1060 1100 1060 1100 1058 1016 c 0,12,13
 1056 875 1056 875 1056 701 c 2,14,-1
 1056 579 l 2,15,16
 1056 256 1056 256 952 116 c 1,17,18
 849 -20 849 -20 616 -20 c 0,19,20
 165 -20 165 -20 167 559 c 1,21,-1
 168 1308 l 2,22,23
 168 1466 168 1466 112 1530 c 1,24,-1
 491 1530 l 1,25,26
 432 1459 432 1459 432 1328 c 0,27,28
 432 1252 432 1252 431 1172 c 2,29,-1
 427 852 l 2,30,31
 426 773 426 773 426 689 c 0,32,33
 426 388 426 388 444 307.5 c 128,-1,34
 462 227 462 227 488 182 c 0,35,36
 548 80 548 80 666 80 c 0,37,38
 848 80 848 80 890 346 c 0,39,40
 903 425 903 425 903 513 c 1,0,-1
EndSplineSet
EndChar

StartChar: V
Encoding: 86 86 76
Width: 1129
GlyphClass: 2
Flags: W
LayerCount: 2
Fore
SplineSet
348 1530 m 1,0,1
 331 1475 331 1475 331 1426 c 0,2,3
 331 1343 331 1343 360 1186 c 1,4,5
 482 573 482 573 502 478 c 0,6,7
 544 282 544 282 553.5 240.5 c 128,-1,8
 563 199 563 199 571 161 c 1,9,10
 757 382 757 382 828 764 c 0,11,12
 854 904 854 904 854 1028 c 128,-1,13
 854 1152 854 1152 849 1220 c 128,-1,14
 844 1288 844 1288 832 1344 c 0,15,16
 808 1456 808 1456 756 1531 c 1,17,-1
 1105 1531 l 1,18,19
 1084 1471 1084 1471 1083 1411 c 128,-1,20
 1082 1351 1082 1351 1079 1228.5 c 128,-1,21
 1076 1106 1076 1106 1048 937 c 128,-1,22
 1020 768 1020 768 978 635 c 128,-1,23
 936 502 936 502 885 401 c 128,-1,24
 834 300 834 300 783 224 c 128,-1,25
 732 148 732 148 686 94 c 2,26,-1
 608 0 l 1,27,-1
 293 0 l 1,28,29
 308 38 308 38 308 74 c 0,30,31
 308 133 308 133 292 247 c 1,32,33
 121 1389 121 1389 -1 1530 c 1,34,-1
 348 1530 l 1,0,1
EndSplineSet
EndChar

StartChar: W
Encoding: 87 87 77
Width: 1616
GlyphClass: 2
Flags: W
LayerCount: 2
Fore
SplineSet
1378 1375 m 0,0,1
 1378 1472 1378 1472 1316 1530 c 1,2,-1
 1671 1530 l 1,3,4
 1610 1477 1610 1477 1572 1382 c 0,5,6
 1559 1350 1559 1350 1546 1313 c 128,-1,7
 1533 1276 1533 1276 1516 1208 c 1,8,-1
 1480 1052 l 2,9,10
 1459 962 1459 962 1437 856 c 0,11,12
 1322 306 1322 306 1307.5 241.5 c 128,-1,13
 1293 177 1293 177 1293 118.5 c 128,-1,14
 1293 60 1293 60 1319 -1 c 1,15,-1
 969 0 l 1,16,17
 993 37 993 37 997.5 69.5 c 128,-1,18
 1002 102 1002 102 1002 149 c 128,-1,19
 1002 196 1002 196 986 289 c 128,-1,20
 970 382 970 382 944 501 c 1,21,-1
 817 1041 l 1,22,23
 665 371 665 371 644.5 274 c 128,-1,24
 624 177 624 177 624 119 c 128,-1,25
 624 61 624 61 649 -1 c 1,26,-1
 299 0 l 1,27,28
 332 53 332 53 332 142 c 0,29,30
 332 290 332 290 200 830 c 1,31,32
 63 1396 63 1396 -33 1530 c 1,33,-1
 322 1530 l 1,34,35
 304 1486 304 1486 304 1424.5 c 128,-1,36
 304 1363 304 1363 314.5 1290 c 128,-1,37
 325 1217 325 1217 342.5 1125 c 128,-1,38
 360 1033 360 1033 382 928 c 1,39,-1
 518 330 l 1,40,41
 536 407 536 407 556 502 c 0,42,43
 612 774 612 774 632 883 c 2,44,-1
 666 1074 l 1,45,46
 696 1250 696 1250 696 1312 c 128,-1,47
 696 1374 696 1374 688.5 1431 c 128,-1,48
 681 1488 681 1488 650 1530 c 1,49,-1
 1024 1530 l 1,50,51
 982 1451 982 1451 982 1349 c 0,52,53
 982 1273 982 1273 1030 1041 c 1,54,-1
 1146 498 l 1,55,-1
 1188 317 l 1,56,-1
 1272 717 l 1,57,58
 1293 825 1293 825 1312 930 c 2,59,-1
 1346 1124 l 1,60,61
 1378 1315 1378 1315 1378 1375 c 0,0,1
EndSplineSet
EndChar

StartChar: X
Encoding: 88 88 78
Width: 1022
GlyphClass: 2
Flags: W
LayerCount: 2
Fore
SplineSet
544 985 m 1,0,1
 645 1146 645 1146 693 1307 c 0,2,3
 717 1387 717 1387 717 1429 c 128,-1,4
 717 1471 717 1471 698 1530 c 1,5,-1
 998 1530 l 1,6,7
 970 1491 970 1491 950 1454 c 2,8,-1
 682 952 l 1,9,-1
 620 831 l 1,10,11
 888 294 888 294 920 236 c 2,12,-1
 969 146 l 2,13,14
 987 115 987 115 1002 90 c 1,15,-1
 1063 0 l 1,16,-1
 648 0 l 1,17,18
 673 72 673 72 673 104 c 0,19,20
 673 210 673 210 580 422 c 0,21,22
 530 535 530 535 470 657 c 1,23,24
 261 293 261 293 261 108 c 0,25,26
 261 62 261 62 283 0 c 1,27,-1
 -32 0 l 1,28,29
 -8 25 -8 25 20 79 c 2,30,-1
 389 812 l 1,31,-1
 176 1200 l 2,32,33
 145 1258 145 1258 121.5 1305.5 c 128,-1,34
 98 1353 98 1353 80 1386 c 1,35,-1
 46 1444 l 2,36,37
 19 1489 19 1489 -14 1530 c 1,38,-1
 401 1530 l 1,39,40
 377 1472 377 1472 377 1435 c 0,41,42
 377 1338 377 1338 422 1234 c 0,43,44
 438 1196 438 1196 458 1156 c 2,45,-1
 544 985 l 1,0,1
EndSplineSet
EndChar

StartChar: Y
Encoding: 89 89 79
Width: 864
GlyphClass: 2
Flags: W
LayerCount: 2
Fore
SplineSet
343 385 m 1,0,-1
 344 594 l 1,1,-1
 344 708 l 2,2,3
 344 798 344 798 270 964 c 1,4,5
 213 1089 213 1089 193 1129 c 2,6,-1
 160 1195 l 1,7,8
 31 1465 31 1465 -66 1530 c 1,9,-1
 337 1530 l 1,10,11
 330 1510 330 1510 330 1479 c 128,-1,12
 330 1448 330 1448 335 1413.5 c 128,-1,13
 340 1379 340 1379 348 1343 c 0,14,15
 363 1274 363 1274 387 1216 c 2,16,-1
 435 1100 l 2,17,18
 460 1042 460 1042 497 982 c 1,19,20
 544 1053 544 1053 572 1121 c 2,21,-1
 610 1215 l 1,22,23
 667 1360 667 1360 667 1491 c 0,24,25
 667 1513 667 1513 664 1530 c 1,26,-1
 939 1530 l 1,27,28
 884 1472 884 1472 824 1361 c 128,-1,29
 764 1250 764 1250 740 1200 c 2,30,-1
 689 1089 l 1,31,32
 585 859 585 859 585 721 c 2,33,-1
 585 264 l 2,34,35
 585 162 585 162 609 117 c 128,-1,36
 633 72 633 72 660 47 c 128,-1,37
 687 22 687 22 725 0 c 1,38,-1
 214 0 l 1,39,40
 343 66 343 66 343 241 c 2,41,-1
 343 385 l 1,0,-1
EndSplineSet
EndChar

StartChar: Z
Encoding: 90 90 80
Width: 934
GlyphClass: 2
Flags: W
LayerCount: 2
Fore
SplineSet
868 370 m 1,0,1
 891 324 891 324 891 261.5 c 128,-1,2
 891 199 891 199 884 156 c 128,-1,3
 877 113 877 113 864 78 c 0,4,5
 836 0 836 0 791 0 c 2,6,-1
 11 0 l 1,7,8
 72 65 72 65 120 180 c 1,9,-1
 204 388 l 1,10,11
 494 1170 494 1170 523 1258.5 c 128,-1,12
 552 1347 552 1347 552 1377.5 c 128,-1,13
 552 1408 552 1408 517.5 1419 c 128,-1,14
 483 1430 483 1430 416 1430 c 128,-1,15
 349 1430 349 1430 304.5 1407 c 128,-1,16
 260 1384 260 1384 226 1343 c 0,17,18
 167 1274 167 1274 113 1120 c 1,19,20
 86 1147 86 1147 86 1225 c 128,-1,21
 86 1303 86 1303 92.5 1351 c 128,-1,22
 99 1399 99 1399 112 1439 c 0,23,24
 140 1530 140 1530 190 1530 c 2,25,-1
 904 1530 l 1,26,27
 855 1455 855 1455 811 1348 c 1,28,-1
 734 1154 l 1,29,30
 570 711 570 711 529 594 c 0,31,32
 428 302 428 302 410 247 c 128,-1,33
 392 192 392 192 392 169 c 0,34,35
 392 100 392 100 504 100 c 0,36,37
 633 100 633 100 714 161 c 0,38,39
 793 220 793 220 868 370 c 1,0,1
EndSplineSet
EndChar

StartChar: bracketleft
Encoding: 91 91 81
Width: 921
GlyphClass: 2
Flags: W
LayerCount: 2
Fore
SplineSet
180 1489 m 2,0,1
 180 1596 180 1596 172 1625 c 128,-1,2
 164 1654 164 1654 160 1670 c 1,3,-1
 750 1670 l 1,4,5
 773 1635 773 1635 780 1560 c 1,6,-1
 740 1569 l 2,7,8
 691 1580 691 1580 543 1580 c 0,9,10
 478 1580 478 1580 444 1556.5 c 128,-1,11
 410 1533 410 1533 410 1471 c 2,12,-1
 410 39 l 2,13,14
 410 -23 410 -23 444 -46.5 c 128,-1,15
 478 -70 478 -70 540.5 -70 c 128,-1,16
 603 -70 603 -70 639 -69 c 128,-1,17
 675 -68 675 -68 698.5 -65.5 c 128,-1,18
 722 -63 722 -63 740 -59 c 2,19,-1
 780 -50 l 1,20,21
 773 -125 773 -125 750 -160 c 1,22,-1
 160 -160 l 1,23,-1
 168 -130 l 2,24,25
 180 -86 180 -86 180 21 c 2,26,-1
 180 1489 l 2,0,1
EndSplineSet
EndChar

StartChar: backslash
Encoding: 92 92 82
Width: 739
GlyphClass: 2
Flags: W
LayerCount: 2
Fore
SplineSet
322 1710 m 1,0,1
 308 1664 308 1664 308 1630 c 0,2,3
 308 1576 308 1576 322 1510 c 0,4,5
 597 189 597 189 611.5 124 c 128,-1,6
 626 59 626 59 636 26.5 c 128,-1,7
 646 -6 646 -6 656 -32 c 128,-1,8
 666 -58 666 -58 675 -79 c 2,9,-1
 692 -120 l 1,10,-1
 457 -120 l 1,11,12
 470 -77 470 -77 470 -42 c 0,13,14
 470 17 470 17 453 102 c 0,15,16
 216 1250 216 1250 195 1347 c 2,17,-1
 163 1488 l 2,18,19
 141 1583 141 1583 118 1636.5 c 128,-1,20
 95 1690 95 1690 87 1710 c 1,21,-1
 322 1710 l 1,0,1
EndSplineSet
EndChar

StartChar: bracketright
Encoding: 93 93 83
Width: 921
GlyphClass: 2
Flags: W
LayerCount: 2
Fore
SplineSet
741 1489 m 2,0,1
 741 1596 741 1596 749 1625 c 128,-1,2
 757 1654 757 1654 761 1670 c 1,3,-1
 171 1670 l 1,4,5
 148 1635 148 1635 141 1560 c 1,6,-1
 181 1569 l 2,7,8
 230 1580 230 1580 378 1580 c 0,9,10
 443 1580 443 1580 477 1556.5 c 128,-1,11
 511 1533 511 1533 511 1471 c 2,12,-1
 511 39 l 2,13,14
 511 -23 511 -23 477 -46.5 c 128,-1,15
 443 -70 443 -70 380.5 -70 c 128,-1,16
 318 -70 318 -70 282 -69 c 128,-1,17
 246 -68 246 -68 222.5 -65.5 c 128,-1,18
 199 -63 199 -63 181 -59 c 2,19,-1
 141 -50 l 1,20,21
 148 -125 148 -125 171 -160 c 1,22,-1
 761 -160 l 1,23,-1
 753 -130 l 2,24,25
 741 -86 741 -86 741 21 c 2,26,-1
 741 1489 l 2,0,1
EndSplineSet
EndChar

StartChar: asciicircum
Encoding: 94 94 84
Width: 935
GlyphClass: 2
Flags: W
LayerCount: 2
Fore
SplineSet
722 540 m 1,0,1
 581 799 581 799 468 1096 c 1,2,3
 408 938 408 938 354 824 c 0,4,5
 248 603 248 603 214 540 c 1,6,-1
 100 540 l 1,7,8
 298 1226 298 1226 323 1327 c 1,9,10
 365 1504 365 1504 365 1530 c 1,11,-1
 571 1530 l 1,12,13
 571 1483 571 1483 614 1321 c 1,14,15
 773 749 773 749 799 664 c 2,16,-1
 836 540 l 1,17,-1
 722 540 l 1,0,1
EndSplineSet
EndChar

StartChar: underscore
Encoding: 95 95 85
Width: 1209
GlyphClass: 2
Flags: W
LayerCount: 2
Fore
SplineSet
1230 -80 m 1,0,-1
 1230 -220 l 1,1,-1
 -22 -220 l 1,2,-1
 -22 -80 l 1,3,-1
 1230 -80 l 1,0,-1
EndSplineSet
EndChar

StartChar: grave
Encoding: 96 96 86
Width: 652
GlyphClass: 2
Flags: W
LayerCount: 2
Fore
SplineSet
306 1530 m 1,0,1
 306 1520 306 1520 329 1456 c 1,2,3
 381 1320 381 1320 403 1267 c 1,4,5
 403 1267 403 1267 442 1178 c 0,6,7
 459 1141 459 1141 471 1120 c 1,8,-1
 357 1120 l 1,9,10
 305 1157 305 1157 238 1240 c 0,11,12
 111 1397 111 1397 50 1530 c 1,13,-1
 306 1530 l 1,0,1
EndSplineSet
EndChar

StartChar: a
Encoding: 97 97 87
Width: 1017
GlyphClass: 2
Flags: W
LayerCount: 2
Fore
SplineSet
854 534 m 1,0,-1
 851 342 l 1,1,2
 851 163 851 163 884 98 c 0,3,4
 904 59 904 59 931 38 c 2,5,-1
 978 0 l 1,6,-1
 688 0 l 1,7,-1
 657 116 l 1,8,9
 544 -20 544 -20 335 -20 c 0,10,11
 216 -20 216 -20 143 60 c 1,12,13
 79 132 79 132 79 230 c 128,-1,14
 79 328 79 328 125.5 401 c 128,-1,15
 172 474 172 474 248 522 c 0,16,17
 398 615 398 615 625 619 c 1,18,-1
 625 630 l 2,19,20
 625 873 625 873 550 915 c 0,21,22
 523 930 523 930 480.5 930 c 128,-1,23
 438 930 438 930 396 902 c 128,-1,24
 354 874 354 874 320 830 c 0,25,26
 252 741 252 741 223 620 c 1,27,28
 134 673 134 673 134 823 c 0,29,30
 134 884 134 884 150 960 c 1,31,32
 188 960 188 960 222 971 c 2,33,-1
 299 995 l 2,34,35
 412 1030 412 1030 520 1030 c 128,-1,36
 628 1030 628 1030 692.5 998 c 128,-1,37
 757 966 757 966 793 903 c 0,38,39
 854 796 854 796 854 534 c 1,0,-1
323.5 114 m 128,-1,41
 352 80 352 80 395 80 c 128,-1,42
 438 80 438 80 478 102.5 c 128,-1,43
 518 125 518 125 550 164 c 0,44,45
 625 253 625 253 625 373 c 2,46,-1
 625 521 l 1,47,48
 485 508 485 508 394 428 c 0,49,50
 295 342 295 342 295 210 c 0,51,40
 295 148 295 148 323.5 114 c 128,-1,41
EndSplineSet
EndChar

StartChar: b
Encoding: 98 98 88
Width: 1046
GlyphClass: 2
Flags: W
LayerCount: 2
Fore
SplineSet
384 979 m 1,0,1
 484 1030 484 1030 584.5 1030 c 128,-1,2
 685 1030 685 1030 747 1007.5 c 128,-1,3
 809 985 809 985 853 942 c 0,4,5
 945 851 945 851 945 682 c 0,6,7
 945 348 945 348 770 164 c 0,8,9
 613 0 613 0 378 0 c 2,10,-1
 106 0 l 1,11,-1
 125 46 l 2,12,13
 155 119 155 119 160 196.5 c 128,-1,14
 165 274 165 274 167.5 338.5 c 128,-1,15
 170 403 170 403 172 478 c 0,16,17
 177 613 177 613 177 743 c 128,-1,18
 177 873 177 873 176 940 c 128,-1,19
 175 1007 175 1007 174 1070 c 0,20,21
 168 1308 168 1308 154.5 1359.5 c 128,-1,22
 141 1411 141 1411 128.5 1436.5 c 128,-1,23
 116 1462 116 1462 100 1484 c 2,24,-1
 66 1530 l 1,25,-1
 431 1530 l 1,26,27
 394 1398 394 1398 384 979 c 1,0,1
385 716 m 2,28,-1
 382 348 l 1,29,30
 382 155 382 155 392 77 c 1,31,32
 529 107 529 107 612 260 c 0,33,34
 695 411 695 411 695 632 c 0,35,36
 695 769 695 769 674.5 824.5 c 128,-1,37
 654 880 654 880 625.5 905 c 128,-1,38
 597 930 597 930 557.5 930 c 128,-1,39
 518 930 518 930 488 916 c 128,-1,40
 458 902 458 902 435 875 c 0,41,42
 385 816 385 816 385 716 c 2,28,-1
EndSplineSet
EndChar

StartChar: c
Encoding: 99 99 89
Width: 872
GlyphClass: 2
Flags: W
LayerCount: 2
Fore
SplineSet
761 1070 m 1,0,1
 786 1010 786 1010 786 938.5 c 128,-1,2
 786 867 786 867 781 820 c 128,-1,3
 776 773 776 773 766 729 c 0,4,5
 745 636 745 636 701 580 c 1,6,7
 657 852 657 852 558 910 c 0,8,9
 523 930 523 930 482.5 930 c 128,-1,10
 442 930 442 930 412 911 c 128,-1,11
 382 892 382 892 361 856 c 0,12,13
 318 784 318 784 318 669.5 c 128,-1,14
 318 555 318 555 341 472.5 c 128,-1,15
 364 390 364 390 401.5 324.5 c 128,-1,16
 439 259 439 259 486.5 211.5 c 128,-1,17
 534 164 534 164 582 132 c 1,18,19
 679 70 679 70 754 70 c 1,20,21
 750 44 750 44 728 19 c 128,-1,22
 706 -6 706 -6 680 -20 c 1,23,24
 574 -20 574 -20 437 52 c 0,25,26
 182 187 182 187 93 446 c 0,27,28
 60 541 60 541 60 640.5 c 128,-1,29
 60 740 60 740 83 808.5 c 128,-1,30
 106 877 106 877 150 926 c 1,31,32
 240 1030 240 1030 400 1030 c 0,33,34
 454 1030 454 1030 505 1023 c 0,35,36
 601 1010 601 1010 639.5 1010 c 128,-1,37
 678 1010 678 1010 708 1020.5 c 128,-1,38
 738 1031 738 1031 761 1070 c 1,0,1
EndSplineSet
EndChar

StartChar: d
Encoding: 100 100 90
Width: 1016
GlyphClass: 2
Flags: W
LayerCount: 2
Fore
SplineSet
687 79 m 1,0,1
 578 -20 578 -20 410 -20 c 0,2,3
 256 -20 256 -20 167 69 c 0,4,5
 75 161 75 161 75 328.5 c 128,-1,6
 75 496 75 496 124 621.5 c 128,-1,7
 173 747 173 747 253 832 c 0,8,9
 411 1000 411 1000 641 1009 c 1,10,11
 633 1317 633 1317 620.5 1362.5 c 128,-1,12
 608 1408 608 1408 595.5 1434.5 c 128,-1,13
 583 1461 583 1461 567 1483 c 2,14,-1
 533 1530 l 1,15,-1
 898 1530 l 1,16,17
 870 1429 870 1429 865.5 1334 c 128,-1,18
 861 1239 861 1239 859 1167 c 128,-1,19
 857 1095 857 1095 856 1016 c 0,20,21
 853 884 853 884 853 753.5 c 128,-1,22
 853 623 853 623 853.5 556 c 128,-1,23
 854 489 854 489 856 429 c 0,24,25
 861 204 861 204 873 161.5 c 128,-1,26
 885 119 885 119 897.5 93.5 c 128,-1,27
 910 68 910 68 926 46 c 2,28,-1
 960 0 l 1,29,-1
 701 0 l 1,30,-1
 687 79 l 1,0,1
647 655.5 m 128,-1,32
 647 790 647 790 644 912 c 1,33,34
 499 890 499 890 412 741 c 0,35,36
 325 593 325 593 325 368 c 0,37,38
 325 235 325 235 345.5 182 c 128,-1,39
 366 129 366 129 394.5 104.5 c 128,-1,40
 423 80 423 80 463.5 80 c 128,-1,41
 504 80 504 80 534.5 96.5 c 128,-1,42
 565 113 565 113 588 145 c 0,43,44
 638 213 638 213 642.5 367 c 128,-1,31
 647 521 647 521 647 655.5 c 128,-1,32
EndSplineSet
EndChar

StartChar: e
Encoding: 101 101 91
Width: 956
GlyphClass: 2
Flags: W
LayerCount: 2
Fore
SplineSet
810 340 m 1,0,1
 846 316 846 316 846 256.5 c 128,-1,2
 846 197 846 197 830 152 c 128,-1,3
 814 107 814 107 774 68 c 0,4,5
 684 -20 684 -20 500 -20 c 0,6,7
 286 -20 286 -20 174 138 c 0,8,9
 75 279 75 279 75 519 c 0,10,11
 75 761 75 761 209 899 c 0,12,13
 336 1030 336 1030 553 1030 c 0,14,15
 704 1030 704 1030 789 942 c 0,16,17
 856 872 856 872 856 780.5 c 128,-1,18
 856 689 856 689 820.5 615.5 c 128,-1,19
 785 542 785 542 716 489 c 0,20,21
 574 379 574 379 319 373 c 1,22,23
 340 172 340 172 445 104 c 0,24,25
 483 80 483 80 546 80 c 128,-1,26
 609 80 609 80 680 146 c 128,-1,27
 751 212 751 212 810 340 c 1,0,1
313 468 m 1,28,29
 629 489 629 489 629 774 c 0,30,31
 629 881 629 881 565 918 c 0,32,33
 543 930 543 930 507 930 c 128,-1,34
 471 930 471 930 434.5 908 c 128,-1,35
 398 886 398 886 371 836 c 0,36,37
 313 727 313 727 313 499 c 2,38,-1
 313 468 l 1,28,29
EndSplineSet
EndChar

StartChar: f
Encoding: 102 102 92
Width: 738
GlyphClass: 2
Flags: W
LayerCount: 2
Fore
SplineSet
136 0 m 1,0,1
 183 161 183 161 183 650 c 0,2,3
 183 736 183 736 181 761.5 c 128,-1,4
 179 787 179 787 163 790 c 0,5,6
 97 805 97 805 84 866 c 0,7,8
 81 882 81 882 76 900 c 1,9,-1
 140 900 l 2,10,11
 168 900 168 900 174.5 912.5 c 128,-1,12
 181 925 181 925 181 983 c 0,13,14
 181 1096 181 1096 172.5 1205 c 128,-1,15
 164 1314 164 1314 181 1370 c 128,-1,16
 198 1426 198 1426 234 1466 c 0,17,18
 310 1550 310 1550 449 1550 c 0,19,20
 501 1550 501 1550 544 1540 c 128,-1,21
 587 1530 587 1530 627 1530 c 128,-1,22
 667 1530 667 1530 697 1541 c 128,-1,23
 727 1552 727 1552 750 1590 c 1,24,25
 763 1575 763 1575 774 1536.5 c 128,-1,26
 785 1498 785 1498 785 1452.5 c 128,-1,27
 785 1407 785 1407 778.5 1356.5 c 128,-1,28
 772 1306 772 1306 760 1258 c 0,29,30
 735 1158 735 1158 690 1099 c 1,31,32
 666 1303 666 1303 645.5 1353 c 128,-1,33
 625 1403 625 1403 600.5 1421.5 c 128,-1,34
 576 1440 576 1440 528 1440 c 128,-1,35
 480 1440 480 1440 442.5 1389.5 c 128,-1,36
 405 1339 405 1339 405 1251 c 2,37,-1
 405 1219 l 2,38,39
 405 1019 405 1019 416 977.5 c 128,-1,40
 427 936 427 936 446 923 c 128,-1,41
 465 910 465 910 500 910 c 2,42,-1
 684 910 l 1,43,44
 659 820 659 820 622 794 c 1,45,46
 604 780 604 780 581.5 780 c 128,-1,47
 559 780 559 780 546 783 c 128,-1,48
 533 786 533 786 521 790 c 0,49,50
 491 800 491 800 466.5 800 c 128,-1,51
 442 800 442 800 429 793.5 c 128,-1,52
 416 787 416 787 408 775 c 0,53,54
 396 755 396 755 396 711 c 2,55,-1
 396 540 l 2,56,57
 396 229 396 229 418 151 c 0,58,59
 434 93 434 93 459 59 c 2,60,-1
 501 0 l 1,61,-1
 136 0 l 1,0,1
EndSplineSet
EndChar

StartChar: g
Encoding: 103 103 93
Width: 980
GlyphClass: 2
Flags: W
LayerCount: 2
Fore
SplineSet
622 24 m 1,0,1
 525 -20 525 -20 431 -20 c 128,-1,2
 337 -20 337 -20 275 4 c 128,-1,3
 213 28 213 28 169 74 c 0,4,5
 77 170 77 170 77 339 c 0,6,7
 77 665 77 665 264 847 c 0,8,9
 431 1010 431 1010 666 1010 c 2,10,-1
 894 1010 l 1,11,12
 866 913 866 913 862 824 c 128,-1,13
 858 735 858 735 856.5 678.5 c 128,-1,14
 855 622 855 622 854 564 c 0,15,16
 852 448 852 448 852 327 c 128,-1,17
 852 206 852 206 833 92.5 c 128,-1,18
 814 -21 814 -21 782.5 -106 c 128,-1,19
 751 -191 751 -191 710.5 -251 c 128,-1,20
 670 -311 670 -311 626 -352 c 0,21,22
 554 -419 554 -419 459 -450 c 1,23,24
 439 -442 439 -442 420.5 -421 c 128,-1,25
 402 -400 402 -400 398 -380 c 1,26,27
 512 -334 512 -334 579 -151 c 0,28,29
 605 -80 605 -80 622 24 c 1,0,1
644 334 m 1,30,-1
 647 634 l 1,31,32
 647 815 647 815 634 908 c 1,33,34
 492 880 492 880 410 740 c 0,35,36
 327 597 327 597 327 379 c 0,37,38
 327 244 327 244 347.5 188 c 128,-1,39
 368 132 368 132 396.5 106 c 128,-1,40
 425 80 425 80 465.5 80 c 128,-1,41
 506 80 506 80 537 96 c 128,-1,42
 568 112 568 112 592 144 c 0,43,44
 644 213 644 213 644 334 c 1,30,-1
EndSplineSet
EndChar

StartChar: h
Encoding: 104 104 94
Width: 1137
GlyphClass: 2
Flags: W
LayerCount: 2
Fore
SplineSet
698 0 m 1,0,1
 744 158 744 158 744 543 c 0,2,3
 744 704 744 704 727 757.5 c 128,-1,4
 710 811 710 811 684.5 835.5 c 128,-1,5
 659 860 659 860 616.5 860 c 128,-1,6
 574 860 574 860 539.5 844 c 128,-1,7
 505 828 505 828 478 802 c 0,8,9
 427 754 427 754 395 674 c 1,10,-1
 395 483 l 2,11,12
 395 202 395 202 406 135 c 1,13,14
 419 47 419 47 433 0 c 1,15,-1
 138 0 l 1,16,17
 162 84 162 84 170 223 c 0,18,19
 188 571 188 571 188 735.5 c 128,-1,20
 188 900 188 900 187 960.5 c 128,-1,21
 186 1021 186 1021 184 1081 c 0,22,23
 179 1299 179 1299 164.5 1354.5 c 128,-1,24
 150 1410 150 1410 137.5 1435.5 c 128,-1,25
 125 1461 125 1461 110 1482 c 2,26,-1
 76 1529 l 1,27,-1
 441 1529 l 1,28,29
 413 1428 413 1428 408.5 1341 c 128,-1,30
 404 1254 404 1254 402 1199.5 c 128,-1,31
 400 1145 400 1145 398 1085 c 0,32,33
 395 945 395 945 395 838 c 1,34,35
 474 971 474 971 604 1014 c 0,36,37
 650 1030 650 1030 707 1030 c 128,-1,38
 764 1030 764 1030 810.5 1005.5 c 128,-1,39
 857 981 857 981 888 936 c 0,40,41
 952 845 952 845 952 687 c 2,42,-1
 952 580 l 2,43,44
 952 274 952 274 960.5 196.5 c 128,-1,45
 969 119 969 119 972 94 c 0,46,47
 979 50 979 50 993 0 c 1,48,-1
 698 0 l 1,0,1
EndSplineSet
EndChar

StartChar: i
Encoding: 105 105 95
Width: 595
GlyphClass: 2
Flags: W
LayerCount: 2
Fore
SplineSet
377 1223.5 m 128,-1,1
 348 1201 348 1201 311 1201 c 128,-1,2
 274 1201 274 1201 245 1223.5 c 128,-1,3
 216 1246 216 1246 196 1279 c 0,4,5
 155 1347 155 1347 155 1423 c 0,6,7
 155 1515 155 1515 239 1546 c 0,8,9
 269 1557 269 1557 312 1557 c 0,10,11
 431 1557 431 1557 460 1473 c 0,12,13
 469 1449 469 1449 469 1419.5 c 128,-1,14
 469 1390 469 1390 458 1351 c 128,-1,15
 447 1312 447 1312 426.5 1279 c 128,-1,0
 406 1246 406 1246 377 1223.5 c 128,-1,1
155 0 m 1,16,17
 201 158 201 158 201 543 c 0,18,19
 201 814 201 814 153 916 c 0,20,21
 141 942 141 942 126 964 c 2,22,-1
 93 1010 l 1,23,-1
 448 1010 l 1,24,25
 404 845 404 845 404 501.5 c 128,-1,26
 404 158 404 158 450 0 c 1,27,-1
 155 0 l 1,16,17
EndSplineSet
EndChar

StartChar: j
Encoding: 106 106 96
Width: 583
GlyphClass: 2
Flags: W
LayerCount: 2
Fore
SplineSet
384 1223.5 m 128,-1,1
 355 1201 355 1201 318 1201 c 128,-1,2
 281 1201 281 1201 252 1223.5 c 128,-1,3
 223 1246 223 1246 203 1279 c 0,4,5
 162 1347 162 1347 162 1423 c 0,6,7
 162 1515 162 1515 246 1546 c 0,8,9
 276 1557 276 1557 319 1557 c 0,10,11
 438 1557 438 1557 468 1473 c 0,12,13
 476 1449 476 1449 476 1419.5 c 128,-1,14
 476 1390 476 1390 465 1351 c 128,-1,15
 454 1312 454 1312 433.5 1279 c 128,-1,0
 413 1246 413 1246 384 1223.5 c 128,-1,1
214 331 m 1,16,-1
 217 559 l 1,17,18
 217 862 217 862 142 970 c 0,19,20
 128 991 128 991 108 1010 c 1,21,-1
 463 1010 l 1,22,23
 439 956 439 956 435 891 c 128,-1,24
 431 826 431 826 429 778.5 c 128,-1,25
 427 731 427 731 425.5 672.5 c 128,-1,26
 424 614 424 614 423 554 c 0,27,28
 421 432 421 432 421 319 c 128,-1,29
 421 206 421 206 402 99.5 c 128,-1,30
 383 -7 383 -7 351.5 -93.5 c 128,-1,31
 320 -180 320 -180 278 -246 c 128,-1,32
 236 -312 236 -312 190 -358 c 0,33,34
 99 -448 99 -448 8 -450 c 1,35,36
 -11 -448 -11 -448 -28 -430 c 0,37,38
 -59 -397 -59 -397 -53 -380 c 1,39,40
 12 -349 12 -349 51 -302 c 128,-1,41
 90 -255 90 -255 117.5 -203 c 128,-1,42
 145 -151 145 -151 166 -76 c 0,43,44
 214 90 214 90 214 331 c 1,16,-1
EndSplineSet
EndChar

StartChar: k
Encoding: 107 107 97
Width: 975
GlyphClass: 2
Flags: W
LayerCount: 2
Fore
SplineSet
371 424 m 2,0,1
 371 134 371 134 410 0 c 1,2,-1
 115 0 l 1,3,4
 143 97 143 97 150 229 c 0,5,6
 165 548 165 548 165 724 c 128,-1,7
 165 900 165 900 164 960.5 c 128,-1,8
 163 1021 163 1021 162 1082 c 0,9,10
 156 1297 156 1297 141.5 1355.5 c 128,-1,11
 127 1414 127 1414 114 1440 c 1,12,13
 95 1482 95 1482 53 1530 c 1,14,-1
 418 1530 l 1,15,16
 390 1429 390 1429 385 1339 c 2,17,-1
 378 1194 l 2,18,19
 371 1029 371 1029 371 943 c 128,-1,20
 371 857 371 857 372.5 827 c 128,-1,21
 374 797 374 797 380 778 c 0,22,23
 392 738 392 738 440.5 740 c 128,-1,24
 489 742 489 742 528 760.5 c 128,-1,25
 567 779 567 779 592 808 c 0,26,27
 642 864 642 864 642 927 c 128,-1,28
 642 990 642 990 627 1010 c 1,29,-1
 916 1010 l 1,30,31
 904 986 904 986 894.5 961.5 c 128,-1,32
 885 937 885 937 874 912 c 0,33,34
 803 754 803 754 650 683 c 1,35,36
 660 476 660 476 786 268 c 1,37,38
 905 75 905 75 1048 0 c 1,39,-1
 713 0 l 1,40,41
 613 48 613 48 551 322 c 0,42,43
 530 415 530 415 523 501 c 128,-1,44
 516 587 516 587 501 613.5 c 128,-1,45
 486 640 486 640 447 640 c 0,46,47
 371 640 371 640 371 498 c 2,48,-1
 371 424 l 2,0,1
EndSplineSet
EndChar

StartChar: l
Encoding: 108 108 98
Width: 562
GlyphClass: 2
Flags: W
LayerCount: 2
Fore
SplineSet
387 458 m 1,0,1
 387 134 387 134 426 0 c 1,2,-1
 131 0 l 1,3,4
 159 97 159 97 166 229 c 0,5,6
 181 548 181 548 181 724 c 128,-1,7
 181 900 181 900 180 960.5 c 128,-1,8
 179 1021 179 1021 178 1082 c 0,9,10
 172 1299 172 1299 157.5 1355.5 c 128,-1,11
 143 1412 143 1412 130.5 1437.5 c 128,-1,12
 118 1463 118 1463 102 1484 c 2,13,-1
 69 1530 l 1,14,-1
 434 1530 l 1,15,16
 406 1429 406 1429 401.5 1336.5 c 128,-1,17
 397 1244 397 1244 394.5 1173 c 128,-1,18
 392 1102 392 1102 390 1025 c 0,19,20
 388 897 388 897 388 720 c 2,21,-1
 387 458 l 1,0,1
EndSplineSet
EndChar

StartChar: m
Encoding: 109 109 99
Width: 1663
GlyphClass: 2
Flags: W
LayerCount: 2
Fore
SplineSet
145 0 m 1,0,1
 191 158 191 158 191 543 c 0,2,3
 191 817 191 817 143 917 c 0,4,5
 131 942 131 942 116 964 c 2,6,-1
 83 1010 l 1,7,-1
 430 1010 l 1,8,9
 415 951 415 951 410 916 c 2,10,-1
 403 856 l 1,11,12
 519 1030 519 1030 698.5 1030 c 128,-1,13
 878 1030 878 1030 931 835 c 1,14,15
 1010 970 1010 970 1140 1014 c 0,16,17
 1186 1030 1186 1030 1243.5 1030 c 128,-1,18
 1301 1030 1301 1030 1347.5 1005.5 c 128,-1,19
 1394 981 1394 981 1426 936 c 0,20,21
 1489 845 1489 845 1489 687 c 2,22,-1
 1489 580 l 2,23,24
 1489 274 1489 274 1497.5 196.5 c 128,-1,25
 1506 119 1506 119 1510 94 c 0,26,27
 1516 50 1516 50 1530 0 c 1,28,-1
 1235 0 l 1,29,30
 1279 151 1279 151 1279 543 c 0,31,32
 1279 702 1279 702 1263 756.5 c 128,-1,33
 1247 811 1247 811 1221.5 835.5 c 128,-1,34
 1196 860 1196 860 1152 860 c 0,35,36
 1023 860 1023 860 947 708 c 1,37,-1
 947 580 l 2,38,39
 947 274 947 274 955.5 196.5 c 128,-1,40
 964 119 964 119 968 94 c 0,41,42
 974 50 974 50 988 0 c 1,43,-1
 693 0 l 1,44,45
 738 154 738 154 738 543 c 0,46,47
 738 706 738 706 722 758.5 c 128,-1,48
 706 811 706 811 681 835.5 c 128,-1,49
 656 860 656 860 612.5 860 c 128,-1,50
 569 860 569 860 534 843 c 128,-1,51
 499 826 499 826 471 798 c 0,52,53
 418 746 418 746 388 664 c 1,54,55
 386 635 386 635 386 604 c 2,56,-1
 386 543 l 2,57,58
 386 158 386 158 432 0 c 1,59,-1
 145 0 l 1,0,1
914 620 m 1,60,-1
 910 602 l 1,61,-1
 914 620 l 1,60,-1
EndSplineSet
EndChar

StartChar: n
Encoding: 110 110 100
Width: 1124
GlyphClass: 2
Flags: W
LayerCount: 2
Fore
SplineSet
120 0 m 1,0,1
 166 158 166 158 166 543 c 0,2,3
 166 817 166 817 118 917 c 0,4,5
 106 942 106 942 91 964 c 2,6,-1
 58 1010 l 1,7,-1
 405 1010 l 1,8,9
 390 960 390 960 385 916 c 2,10,-1
 377 844 l 1,11,12
 498 1030 498 1030 685 1030 c 0,13,14
 806 1030 806 1030 874 936 c 0,15,16
 940 844 940 844 940 687 c 2,17,-1
 940 580 l 2,18,19
 940 305 940 305 945 244 c 128,-1,20
 950 183 950 183 953 151 c 128,-1,21
 956 119 956 119 960 94 c 0,22,23
 967 47 967 47 981 0 c 1,24,-1
 688 0 l 1,25,26
 734 158 734 158 734 543 c 0,27,28
 734 697 734 697 714.5 754 c 128,-1,29
 695 811 695 811 668 835.5 c 128,-1,30
 641 860 641 860 597 860 c 0,31,32
 516 860 516 860 450 796 c 0,33,34
 393 741 393 741 363 656 c 1,35,36
 361 629 361 629 361 600 c 2,37,-1
 361 543 l 2,38,39
 361 158 361 158 407 0 c 1,40,-1
 120 0 l 1,0,1
EndSplineSet
EndChar

StartChar: o
Encoding: 111 111 101
Width: 1104
GlyphClass: 2
Flags: W
LayerCount: 2
Fore
SplineSet
422.5 840 m 128,-1,1
 383 750 383 750 383 537 c 0,2,3
 383 80 383 80 552 80 c 0,4,5
 642 80 642 80 681.5 202 c 128,-1,6
 721 324 721 324 721 537 c 128,-1,7
 721 750 721 750 681.5 840 c 128,-1,8
 642 930 642 930 552 930 c 256,9,0
 462 930 462 930 422.5 840 c 128,-1,1
552 1030 m 128,-1,11
 973 1030 973 1030 973 575 c 0,12,13
 973 299 973 299 857 138 c 0,14,15
 744 -20 744 -20 552 -20 c 128,-1,16
 360 -20 360 -20 247 138 c 0,17,18
 131 299 131 299 131 575 c 0,19,10
 131 1030 131 1030 552 1030 c 128,-1,11
EndSplineSet
EndChar

StartChar: p
Encoding: 112 112 102
Width: 1054
GlyphClass: 2
Flags: W
LayerCount: 2
Fore
SplineSet
329 946 m 1,0,1
 441 1030 441 1030 609 1030 c 0,2,3
 847 1030 847 1030 920 833 c 0,4,5
 944 768 944 768 944 669.5 c 128,-1,6
 944 571 944 571 921.5 477.5 c 128,-1,7
 899 384 899 384 859 309 c 128,-1,8
 819 234 819 234 764.5 177 c 128,-1,9
 710 120 710 120 646 82 c 0,10,11
 518 5 518 5 374 1 c 1,12,13
 376 -53 376 -53 380 -105 c 2,14,-1
 390 -211 l 1,15,16
 399 -319 399 -319 452 -394 c 1,17,-1
 486 -440 l 1,18,-1
 121 -440 l 1,19,20
 149 -344 149 -344 153.5 -248 c 128,-1,21
 158 -152 158 -152 160.5 -83.5 c 128,-1,22
 163 -15 163 -15 164 58 c 0,23,24
 168 228 168 228 168 356 c 0,25,26
 168 768 168 768 142 860 c 0,27,28
 126 917 126 917 101 951 c 2,29,-1
 59 1010 l 1,30,-1
 328 1010 l 1,31,32
 322 990 322 990 329 946 c 1,0,1
694 643 m 0,33,34
 694 930 694 930 549 930 c 0,35,36
 477 930 477 930 429 866 c 0,37,38
 377 797 377 797 377 677 c 1,39,-1
 370 203 l 1,40,-1
 370 148 l 2,41,42
 370 121 370 121 371 93 c 1,43,44
 516 115 516 115 606 267 c 0,45,46
 694 417 694 417 694 643 c 0,33,34
EndSplineSet
EndChar

StartChar: q
Encoding: 113 113 103
Width: 1022
GlyphClass: 2
Flags: W
LayerCount: 2
Fore
SplineSet
654 39 m 1,0,1
 547 -20 547 -20 415 -20 c 0,2,3
 261 -20 261 -20 172 69 c 0,4,5
 80 161 80 161 80 328 c 0,6,7
 80 655 80 655 266 842 c 1,8,9
 435 1010 435 1010 669 1010 c 2,10,-1
 927 1010 l 1,11,12
 893 935 893 935 884.5 882 c 128,-1,13
 876 829 876 829 872.5 783 c 128,-1,14
 869 737 869 737 866 680 c 128,-1,15
 863 623 863 623 860 565 c 0,16,17
 855 437 855 437 855 348 c 128,-1,18
 855 259 855 259 856.5 170.5 c 128,-1,19
 858 82 858 82 860 8 c 0,20,21
 864 -141 864 -141 871 -199 c 128,-1,22
 878 -257 878 -257 887.5 -289 c 128,-1,23
 897 -321 897 -321 908 -346 c 0,24,25
 926 -385 926 -385 967 -440 c 1,26,-1
 612 -440 l 1,27,28
 643 -347 643 -347 648 -258 c 0,29,30
 657 -119 657 -119 657 -83 c 0,31,32
 657 -9 657 -9 654 39 c 1,0,1
647 334 m 1,33,-1
 650 638 l 1,34,35
 650 821 650 821 637 914 c 1,36,37
 496 884 496 884 413 736 c 0,38,39
 330 589 330 589 330 368 c 0,40,41
 330 235 330 235 350.5 182 c 128,-1,42
 371 129 371 129 399.5 104.5 c 128,-1,43
 428 80 428 80 468.5 80 c 128,-1,44
 509 80 509 80 540 96 c 128,-1,45
 571 112 571 112 595 144 c 0,46,47
 647 213 647 213 647 334 c 1,33,-1
EndSplineSet
EndChar

StartChar: r
Encoding: 114 114 104
Width: 822
GlyphClass: 2
Flags: W
LayerCount: 2
Fore
SplineSet
134 0 m 1,0,1
 180 158 180 158 180 543 c 0,2,3
 180 817 180 817 136 917 c 0,4,5
 118 958 118 958 72 1010 c 1,6,-1
 427 1010 l 1,7,8
 409 947 409 947 398 837 c 1,9,10
 492 955 492 955 660 1004 c 0,11,12
 732 1025 732 1025 765 1070 c 1,13,14
 798 991 798 991 798 934 c 128,-1,15
 798 877 798 877 792 828.5 c 128,-1,16
 786 780 786 780 774 734 c 0,17,18
 748 635 748 635 705 580 c 1,19,20
 668 775 668 775 590 808 c 0,21,22
 500 847 500 847 414 702 c 0,23,24
 396 672 396 672 384 638 c 1,25,26
 383 615 383 615 383 591 c 128,-1,27
 383 567 383 567 383 543 c 0,28,29
 383 158 383 158 429 0 c 1,30,-1
 134 0 l 1,0,1
EndSplineSet
EndChar

StartChar: s
Encoding: 115 115 105
Width: 902
GlyphClass: 2
Flags: W
LayerCount: 2
Fore
SplineSet
738 1069 m 1,0,1
 765 1009 765 1009 765 948 c 128,-1,2
 765 887 765 887 759.5 847 c 128,-1,3
 754 807 754 807 743 770 c 0,4,5
 718 686 718 686 672 641 c 1,6,7
 641 796 641 796 604.5 842 c 128,-1,8
 568 888 568 888 531.5 904 c 128,-1,9
 495 920 495 920 454 920 c 128,-1,10
 413 920 413 920 387 912 c 128,-1,11
 361 904 361 904 342 889 c 0,12,13
 299 856 299 856 299 814 c 128,-1,14
 299 772 299 772 320 741.5 c 128,-1,15
 341 711 341 711 375.5 684.5 c 128,-1,16
 410 658 410 658 454 633 c 2,17,-1
 544 582 l 2,18,19
 660 517 660 517 703 474 c 0,20,21
 788 389 788 389 788 295 c 0,22,23
 788 172 788 172 704 88 c 1,24,25
 598 -20 598 -20 386 -20 c 0,26,27
 193 -20 193 -20 96 70 c 0,28,29
 68 96 68 96 56 122 c 1,30,31
 64 197 64 197 123 263 c 0,32,33
 180 327 180 327 234 337 c 1,34,35
 230 324 230 324 230 298 c 128,-1,36
 230 272 230 272 245 233.5 c 128,-1,37
 260 195 260 195 288 162 c 0,38,39
 351 86 351 86 430 86 c 128,-1,40
 509 86 509 86 546 122 c 128,-1,41
 583 158 583 158 583 204 c 128,-1,42
 583 250 583 250 562 281 c 128,-1,43
 541 312 541 312 506.5 339 c 128,-1,44
 472 366 472 366 428 391 c 2,45,-1
 338 442 l 1,46,47
 223 510 223 510 180 558 c 0,48,49
 94 654 94 654 94 767 c 0,50,51
 94 886 94 886 194 960 c 0,52,53
 289 1030 289 1030 431 1030 c 1,54,-1
 607 1018 l 1,55,56
 671 1018 671 1018 696 1033.5 c 128,-1,57
 721 1049 721 1049 738 1069 c 1,0,1
EndSplineSet
EndChar

StartChar: t
Encoding: 116 116 106
Width: 739
GlyphClass: 2
Flags: W
LayerCount: 2
Fore
SplineSet
404 1410 m 1,0,1
 383 1333 383 1333 383 1225.5 c 128,-1,2
 383 1118 383 1118 387.5 1088 c 128,-1,3
 392 1058 392 1058 402 1040 c 1,4,5
 421 1010 421 1010 476 1010 c 2,6,-1
 744 1010 l 1,7,8
 744 954 744 954 717 924 c 0,9,10
 668 870 668 870 597 870 c 0,11,12
 562 870 562 870 535 880 c 0,13,14
 486 900 486 900 459 900 c 128,-1,15
 432 900 432 900 415 889.5 c 128,-1,16
 398 879 398 879 388 859 c 0,17,18
 370 823 370 823 370 702 c 128,-1,19
 370 581 370 581 377.5 454 c 128,-1,20
 385 327 385 327 415 241.5 c 128,-1,21
 445 156 445 156 506 113 c 128,-1,22
 567 70 567 70 674 70 c 1,23,24
 674 39 674 39 632 -4 c 0,25,26
 621 -16 621 -16 613 -20 c 1,27,28
 436 -20 436 -20 348 22 c 1,29,30
 247 72 247 72 204 200 c 0,31,32
 161 330 161 330 161 585 c 0,33,34
 161 808 161 808 149 848.5 c 128,-1,35
 137 889 137 889 127 902 c 0,36,37
 115 917 115 917 69 939 c 1,38,39
 131 986 131 986 192 1114 c 2,40,-1
 242 1219 l 1,41,42
 295 1339 295 1339 332.5 1374.5 c 128,-1,43
 370 1410 370 1410 404 1410 c 1,0,1
EndSplineSet
EndChar

StartChar: u
Encoding: 117 117 107
Width: 1114
GlyphClass: 2
Flags: W
LayerCount: 2
Fore
SplineSet
929 916 m 1,0,-1
 914 469 l 1,1,2
 914 196 914 196 962 94 c 0,3,4
 979 57 979 57 1022 0 c 1,5,-1
 744 0 l 1,6,7
 721 68 721 68 714 172 c 1,8,9
 598 -20 598 -20 415 -20 c 0,10,11
 289 -20 289 -20 222 74 c 0,12,13
 156 165 156 165 156 324 c 2,14,-1
 156 459 l 2,15,16
 156 504 156 504 156 551 c 1,17,-1
 154 642 l 2,18,19
 153 729 153 729 148.5 777.5 c 128,-1,20
 144 826 144 826 138.5 858.5 c 128,-1,21
 133 891 133 891 125 916.5 c 128,-1,22
 117 942 117 942 107 964 c 2,23,-1
 85 1010 l 1,24,-1
 374 1010 l 1,25,26
 375 994 375 994 375 980 c 2,27,-1
 375 951 l 1,28,29
 375 951 375 951 358 449 c 1,30,31
 358 302 358 302 377 249 c 128,-1,32
 396 196 396 196 422.5 173 c 128,-1,33
 449 150 449 150 493 150 c 0,34,35
 612 150 612 150 686 280 c 0,36,37
 706 317 706 317 719 355 c 1,38,39
 721 411 721 411 721 482 c 0,40,41
 721 847 721 847 667 964 c 1,42,-1
 645 1010 l 1,43,-1
 930 1010 l 1,44,45
 929 985 929 985 929 964 c 2,46,-1
 929 916 l 1,0,-1
EndSplineSet
EndChar

StartChar: v
Encoding: 118 118 108
Width: 1029
GlyphClass: 2
Flags: W
LayerCount: 2
Fore
SplineSet
348 1010 m 1,0,1
 330 966 330 966 330 913.5 c 128,-1,2
 330 861 330 861 338 820.5 c 128,-1,3
 346 780 346 780 360 726 c 1,4,-1
 468 342 l 1,5,-1
 506 219 l 1,6,7
 565 396 565 396 584 458 c 2,8,-1
 620 580 l 2,9,10
 679 781 679 781 679 829 c 128,-1,11
 679 877 679 877 674.5 899.5 c 128,-1,12
 670 922 670 922 662 940 c 1,13,14
 652 967 652 967 623 1010 c 1,15,-1
 987 1010 l 1,16,17
 913 908 913 908 888 857 c 2,18,-1
 851 781 l 2,19,20
 842 763 842 763 826 729 c 0,21,22
 630 282 630 282 630 130 c 0,23,24
 630 61 630 61 656 0 c 1,25,-1
 296 0 l 1,26,27
 320 38 320 38 324.5 71.5 c 128,-1,28
 329 105 329 105 329 140.5 c 128,-1,29
 329 176 329 176 311 243 c 128,-1,30
 293 310 293 310 264 395 c 128,-1,31
 235 480 235 480 197.5 574.5 c 128,-1,32
 160 669 160 669 121 755 c 0,33,34
 33 948 33 948 -21 1010 c 1,35,-1
 348 1010 l 1,0,1
EndSplineSet
EndChar

StartChar: w
Encoding: 119 119 109
Width: 1482
GlyphClass: 2
Flags: W
LayerCount: 2
Fore
SplineSet
928 1010 m 1,0,1
 886 941 886 941 886 803 c 0,2,3
 886 770 886 770 906 699 c 1,4,5
 954 538 954 538 975 474 c 2,6,-1
 1050 256 l 1,7,8
 1097 395 1097 395 1118 464 c 0,9,10
 1217 794 1217 794 1217 835 c 128,-1,11
 1217 876 1217 876 1213 897.5 c 128,-1,12
 1209 919 1209 919 1202 938 c 1,13,14
 1190 965 1190 965 1155 1010 c 1,15,-1
 1490 1010 l 1,16,17
 1428 943 1428 943 1404 883.5 c 128,-1,18
 1380 824 1380 824 1368 793 c 2,19,-1
 1244 445 l 1,20,21
 1198 305 1198 305 1178 237 c 1,22,23
 1166 183 1166 183 1166 122 c 128,-1,24
 1166 61 1166 61 1192 -1 c 1,25,-1
 822 0 l 1,26,27
 846 38 846 38 850.5 71.5 c 128,-1,28
 855 105 855 105 855 137 c 128,-1,29
 855 169 855 169 845 216 c 128,-1,30
 835 263 835 263 818 324 c 0,31,32
 784 451 784 451 732 595 c 1,33,34
 635 347 635 347 615 266.5 c 128,-1,35
 595 186 595 186 595 124.5 c 128,-1,36
 595 63 595 63 622 -1 c 1,37,-1
 252 0 l 1,38,39
 276 38 276 38 280.5 71.5 c 128,-1,40
 285 105 285 105 285 140.5 c 128,-1,41
 285 176 285 176 270.5 243 c 128,-1,42
 256 310 256 310 232 395 c 128,-1,43
 208 480 208 480 177 574.5 c 128,-1,44
 146 669 146 669 112 755 c 0,45,46
 35 950 35 950 -18 1010 c 1,47,-1
 351 1010 l 1,48,49
 333 966 333 966 333 913 c 128,-1,50
 333 860 333 860 340.5 820.5 c 128,-1,51
 348 781 348 781 360.5 729 c 128,-1,52
 373 677 373 677 390 617 c 2,53,-1
 490 266 l 1,54,55
 633 628 633 628 649 697.5 c 128,-1,56
 665 767 665 767 665 787 c 0,57,58
 665 916 665 916 599 1010 c 1,59,-1
 928 1010 l 1,0,1
EndSplineSet
EndChar

StartChar: x
Encoding: 120 120 110
Width: 993
GlyphClass: 2
Flags: W
LayerCount: 2
Fore
SplineSet
638 836 m 0,0,1
 647 876 647 876 647 913.5 c 128,-1,2
 647 951 647 951 628 1010 c 1,3,-1
 923 1010 l 1,4,5
 881 950 881 950 870 934 c 2,6,-1
 638 574 l 1,7,-1
 601 511 l 1,8,9
 742 294 742 294 794 220 c 2,10,-1
 864 120 l 2,11,12
 881 94 881 94 893 74 c 2,13,-1
 916 38 l 2,14,15
 927 22 927 22 943 0 c 1,16,-1
 528 0 l 1,17,18
 539 31 539 31 550.5 60 c 128,-1,19
 562 89 562 89 562 121.5 c 128,-1,20
 562 154 562 154 549 191 c 128,-1,21
 536 228 536 228 516 267 c 128,-1,22
 496 306 496 306 473 344 c 2,23,-1
 430 415 l 1,24,25
 307 241 307 241 307 118 c 0,26,27
 307 78 307 78 333 0 c 1,28,-1
 28 0 l 1,29,-1
 271 405 l 1,30,31
 321 486 321 486 350 546 c 1,32,33
 230 741 230 741 189 802 c 0,34,35
 90 952 90 952 78 968 c 1,36,-1
 50 1010 l 1,37,-1
 465 1010 l 1,38,39
 439 932 439 932 439 877 c 0,40,41
 439 787 439 787 530 628 c 1,42,43
 609 716 609 716 638 836 c 0,0,1
EndSplineSet
EndChar

StartChar: y
Encoding: 121 121 111
Width: 1022
GlyphClass: 2
Flags: W
LayerCount: 2
Fore
SplineSet
662 331 m 1,0,-1
 663 553 l 2,1,2
 663 762 663 762 652 826 c 128,-1,3
 641 890 641 890 634.5 915.5 c 128,-1,4
 628 941 628 941 619 963 c 2,5,-1
 600 1010 l 1,6,-1
 895 1010 l 1,7,-1
 890 964 l 2,8,9
 884 916 884 916 882 824 c 2,10,-1
 878 672 l 2,11,12
 873 497 873 497 873 345 c 128,-1,13
 873 193 873 193 854.5 85 c 128,-1,14
 836 -23 836 -23 805 -105 c 128,-1,15
 774 -187 774 -187 734 -246.5 c 128,-1,16
 694 -306 694 -306 650 -346 c 1,17,18
 574 -418 574 -418 480 -450 c 1,19,20
 460 -442 460 -442 441.5 -420.5 c 128,-1,21
 423 -399 423 -399 419 -380 c 1,22,23
 507 -335 507 -335 560 -242 c 0,24,25
 635 -110 635 -110 655 139 c 1,26,27
 539 -20 539 -20 370 -20 c 0,28,29
 250 -20 250 -20 184 74 c 0,30,31
 121 165 121 165 121 324 c 2,32,-1
 121 459 l 2,33,34
 121 504 121 504 120 551 c 1,35,-1
 120 642 l 1,36,37
 118 729 118 729 113.5 777.5 c 128,-1,38
 109 826 109 826 103.5 858.5 c 128,-1,39
 98 891 98 891 90 916.5 c 128,-1,40
 82 942 82 942 72 964 c 2,41,-1
 50 1010 l 1,42,-1
 355 1010 l 1,43,44
 329 867 329 867 329 469 c 0,45,46
 329 307 329 307 346 253 c 128,-1,47
 363 199 363 199 388.5 174.5 c 128,-1,48
 414 150 414 150 454 150 c 128,-1,49
 494 150 494 150 524.5 162.5 c 128,-1,50
 555 175 555 175 580 196 c 1,51,52
 629 234 629 234 662 301 c 1,53,-1
 662 331 l 1,0,-1
700 410 m 1,54,-1
 694 386 l 1,55,-1
 700 410 l 1,54,-1
EndSplineSet
EndChar

StartChar: z
Encoding: 122 122 112
Width: 883
GlyphClass: 2
Flags: W
LayerCount: 2
Fore
SplineSet
796 336 m 1,0,1
 823 280 823 280 823 221 c 128,-1,2
 823 162 823 162 817.5 128.5 c 128,-1,3
 812 95 812 95 801 68 c 0,4,5
 777 8 777 8 735 0 c 1,6,-1
 31 0 l 1,7,8
 99 107 99 107 121 145 c 1,9,10
 447 741 447 741 470 787 c 128,-1,11
 493 833 493 833 493 862 c 0,12,13
 493 920 493 920 393.5 920 c 128,-1,14
 294 920 294 920 225 843 c 128,-1,15
 156 766 156 766 108 620 c 1,16,17
 80 684 80 684 80 753.5 c 128,-1,18
 80 823 80 823 86 863 c 128,-1,19
 92 903 92 903 104 935 c 0,20,21
 132 1006 132 1006 181 1010 c 1,22,-1
 829 1010 l 1,23,24
 472 359 472 359 431.5 274 c 128,-1,25
 391 189 391 189 391 161 c 0,26,27
 391 100 391 100 492 100 c 0,28,29
 605 100 605 100 674 157 c 0,30,31
 735 207 735 207 796 336 c 1,0,1
EndSplineSet
EndChar

StartChar: braceleft
Encoding: 123 123 113
Width: 766
GlyphClass: 2
Flags: W
LayerCount: 2
Fore
SplineSet
200 680 m 0,0,1
 200 883 200 883 66 880 c 1,2,-1
 66 950 l 1,3,4
 196 946 196 946 200 1192 c 0,5,6
 200 1228 200 1228 200 1300.5 c 128,-1,7
 200 1373 200 1373 231 1467 c 128,-1,8
 262 1561 262 1561 322 1628 c 0,9,10
 448 1770 448 1770 670 1770 c 1,11,12
 687 1762 687 1762 702 1735.5 c 128,-1,13
 717 1709 717 1709 720 1700 c 1,14,15
 563 1700 563 1700 500 1606 c 0,16,17
 440 1517 440 1517 440 1300 c 0,18,19
 440 996 440 996 269 918 c 1,20,21
 381 879 381 879 420 770 c 0,22,23
 440 715 440 715 440 583.5 c 128,-1,24
 440 452 440 452 453.5 332.5 c 128,-1,25
 467 213 467 213 501.5 129 c 128,-1,26
 536 45 536 45 596 -9 c 128,-1,27
 656 -63 656 -63 750 -100 c 1,28,29
 733 -136 733 -136 700 -160 c 1,30,31
 511 -160 511 -160 369 30 c 1,32,33
 200 254 200 254 200 680 c 0,0,1
EndSplineSet
EndChar

StartChar: bar
Encoding: 124 124 114
Width: 609
GlyphClass: 2
Flags: W
LayerCount: 2
Fore
SplineSet
422 1710 m 1,0,1
 400 1645 400 1645 397 1521.5 c 128,-1,2
 394 1398 394 1398 393 1314.5 c 128,-1,3
 392 1231 392 1231 392 1135 c 2,4,-1
 390 934 l 1,5,6
 390 830 390 830 390 734 c 2,7,-1
 390 552 l 2,8,9
 390 118 390 118 398 36 c 0,10,11
 410 -83 410 -83 422 -120 c 1,12,-1
 187 -120 l 1,13,14
 207 -51 207 -51 209 18.5 c 128,-1,15
 211 88 211 88 213 135 c 128,-1,16
 215 182 215 182 216 248 c 128,-1,17
 217 314 217 314 218 390.5 c 128,-1,18
 219 467 219 467 219 552 c 2,19,-1
 219 725 l 2,20,21
 219 830 219 830 218 934 c 1,22,-1
 218 1135 l 1,23,24
 217 1231 217 1231 215.5 1314.5 c 128,-1,25
 214 1398 214 1398 213 1451 c 128,-1,26
 212 1504 212 1504 210.5 1539.5 c 128,-1,27
 209 1575 209 1575 206 1605 c 0,28,29
 202 1658 202 1658 187 1710 c 1,30,-1
 422 1710 l 1,0,1
EndSplineSet
EndChar

StartChar: braceright
Encoding: 125 125 115
Width: 766
GlyphClass: 2
Flags: W
LayerCount: 2
Fore
SplineSet
566 680 m 0,0,1
 566 883 566 883 700 880 c 1,2,-1
 700 950 l 1,3,4
 570 946 570 946 566 1192 c 0,5,6
 566 1228 566 1228 566 1300.5 c 128,-1,7
 566 1373 566 1373 535 1467 c 128,-1,8
 504 1561 504 1561 444 1628 c 0,9,10
 318 1770 318 1770 96 1770 c 1,11,12
 79 1762 79 1762 64 1735.5 c 128,-1,13
 49 1709 49 1709 46 1700 c 1,14,15
 203 1700 203 1700 266 1606 c 0,16,17
 326 1517 326 1517 326 1300 c 0,18,19
 326 996 326 996 497 918 c 1,20,21
 385 879 385 879 346 770 c 0,22,23
 326 715 326 715 326 583.5 c 128,-1,24
 326 452 326 452 312.5 332.5 c 128,-1,25
 299 213 299 213 264.5 129 c 128,-1,26
 230 45 230 45 170 -9 c 128,-1,27
 110 -63 110 -63 16 -100 c 1,28,29
 33 -136 33 -136 66 -160 c 1,30,31
 255 -160 255 -160 397 30 c 1,32,33
 566 254 566 254 566 680 c 0,0,1
EndSplineSet
EndChar

StartChar: asciitilde
Encoding: 126 126 116
Width: 1277
GlyphClass: 2
Flags: W
LayerCount: 2
Fore
SplineSet
66 460 m 1,0,1
 137 630 137 630 251 731 c 0,2,3
 362 830 362 830 482 830 c 0,4,5
 621 830 621 830 720 710 c 2,6,-1
 768 652 l 1,7,8
 824 590 824 590 873 590 c 128,-1,9
 922 590 922 590 961.5 610.5 c 128,-1,10
 1001 631 1001 631 1032.5 662.5 c 128,-1,11
 1064 694 1064 694 1089 730 c 1,12,-1
 1135 800 l 1,13,-1
 1235 740 l 1,14,15
 1164 570 1164 570 1050 469 c 0,16,17
 939 370 939 370 819 370 c 0,18,19
 680 370 680 370 582 490 c 1,20,-1
 532 548 l 1,21,22
 477 610 477 610 428 610 c 128,-1,23
 379 610 379 610 339.5 589.5 c 128,-1,24
 300 569 300 569 268.5 537.5 c 128,-1,25
 237 506 237 506 212 470 c 1,26,-1
 166 400 l 1,27,-1
 66 460 l 1,0,1
EndSplineSet
EndChar

StartChar: exclamdown
Encoding: 161 161 118
Width: 682
GlyphClass: 2
Flags: W
LayerCount: 2
Fore
SplineSet
261 628 m 1,0,1
 261 422 261 422 240 185 c 2,2,-1
 212 -142 l 2,3,4
 199 -283 199 -283 161 -414 c 1,5,-1
 349 -486 l 1,6,-1
 537 -414 l 1,7,8
 485 -236 485 -236 450 178 c 0,9,10
 434 367 434 367 434 468.5 c 128,-1,11
 434 570 434 570 437 628 c 1,12,-1
 261 628 l 1,0,1
183 937 m 0,13,14
 183 867 183 867 230 816 c 0,15,16
 277 766 277 766 344 766 c 256,17,18
 411 766 411 766 458 816 c 0,19,20
 505 867 505 867 505 937 c 0,21,22
 505 1009 505 1009 458 1058 c 0,23,24
 410 1108 410 1108 344 1108 c 256,25,26
 278 1108 278 1108 230 1058 c 0,27,28
 183 1009 183 1009 183 937 c 0,13,14
EndSplineSet
EndChar

StartChar: cent
Encoding: 162 162 119
Width: 872
GlyphClass: 2
Flags: W
LayerCount: 2
Fore
SplineSet
377 -120 m 1,0,1
 399 -55 399 -55 417 62 c 1,2,3
 174 202 174 202 91 452 c 0,4,5
 60 545 60 545 60 642.5 c 128,-1,6
 60 740 60 740 83 808.5 c 128,-1,7
 106 877 106 877 150 926 c 1,8,9
 240 1030 240 1030 400 1030 c 0,10,11
 438 1030 438 1030 472 1026 c 1,12,13
 469 1128 469 1128 447 1200 c 1,14,-1
 642 1200 l 1,15,16
 627 1155 627 1155 610 1011 c 1,17,18
 618 1010 618 1010 626 1010 c 2,19,-1
 641 1010 l 2,20,21
 678 1010 678 1010 708 1020.5 c 128,-1,22
 738 1031 738 1031 761 1070 c 1,23,24
 786 1010 786 1010 786 938.5 c 128,-1,25
 786 867 786 867 781 820 c 128,-1,26
 776 773 776 773 766 729 c 0,27,28
 745 636 745 636 701 580 c 1,29,30
 665 801 665 801 595 879 c 1,31,32
 580 717 580 717 557 141 c 1,33,34
 667 70 667 70 754 70 c 1,35,36
 750 44 750 44 728 19 c 128,-1,37
 706 -6 706 -6 680 -20 c 1,38,39
 626 -20 626 -20 554 2 c 1,40,41
 556 -64 556 -64 572 -120 c 1,42,-1
 377 -120 l 1,0,1
439 245 m 1,43,44
 473 629 473 629 473 930 c 1,45,46
 342 924 342 924 301 774 c 0,47,48
 288 726 288 726 288 661.5 c 128,-1,49
 288 597 288 597 299.5 536 c 128,-1,50
 311 475 311 475 332 422 c 0,51,52
 371 322 371 322 439 245 c 1,43,44
EndSplineSet
EndChar

StartChar: sterling
Encoding: 163 163 120
Width: 1030
GlyphClass: 2
Flags: W
LayerCount: 2
Fore
SplineSet
278 797 m 1,0,1
 160 793 160 793 88 770 c 1,2,-1
 88 930 l 1,3,4
 148 910 148 910 270 903 c 1,5,6
 269 906 269 906 266 935 c 128,-1,7
 263 964 263 964 251 1010 c 2,8,-1
 226 1100 l 2,9,10
 195 1215 195 1215 195 1286.5 c 128,-1,11
 195 1358 195 1358 218 1404 c 128,-1,12
 241 1450 241 1450 284 1482 c 0,13,14
 374 1550 374 1550 518 1550 c 0,15,16
 608 1550 608 1550 643 1543 c 2,17,-1
 692 1533 l 2,18,19
 707 1530 707 1530 731.5 1530 c 128,-1,20
 756 1530 756 1530 773.5 1533 c 128,-1,21
 791 1536 791 1536 804 1544 c 0,22,23
 824 1556 824 1556 856 1600 c 1,24,25
 904 1565 904 1565 926 1304 c 0,26,27
 929 1275 929 1275 929 1238.5 c 128,-1,28
 929 1202 929 1202 926.5 1163 c 128,-1,29
 924 1124 924 1124 918 1098 c 0,30,31
 905 1048 905 1048 871 1030 c 1,32,33
 858 1175 858 1175 774 1300 c 0,34,35
 680 1440 680 1440 561 1440 c 0,36,37
 455 1440 455 1440 429 1358 c 0,38,39
 421 1333 421 1333 421 1305.5 c 128,-1,40
 421 1278 421 1278 427 1241.5 c 128,-1,41
 433 1205 433 1205 442 1163 c 2,42,-1
 460 1076 l 2,43,44
 481 978 481 978 488 900 c 1,45,46
 687 900 687 900 780 930 c 1,47,-1
 780 770 l 1,48,49
 690 800 690 800 492 800 c 1,50,51
 492 612 492 612 448 296 c 0,52,53
 439 235 439 235 439 206.5 c 128,-1,54
 439 178 439 178 448 157 c 128,-1,55
 457 136 457 136 478 124 c 0,56,57
 517 100 517 100 613 100 c 128,-1,58
 709 100 709 100 761 120 c 128,-1,59
 813 140 813 140 847.5 176 c 128,-1,60
 882 212 882 212 906 262 c 1,61,-1
 961 370 l 1,62,63
 984 324 984 324 984 268 c 128,-1,64
 984 212 984 212 977 173.5 c 128,-1,65
 970 135 970 135 957 100 c 0,66,67
 929 25 929 25 884 0 c 1,68,-1
 30 0 l 1,69,70
 115 54 115 54 204 321 c 0,71,72
 240 428 240 428 248 478 c 128,-1,73
 256 528 256 528 261 555 c 128,-1,74
 266 582 266 582 270 610 c 0,75,76
 279 675 279 675 279 716 c 2,77,-1
 279 770 l 2,78,79
 279 783 279 783 278 797 c 1,0,1
EndSplineSet
EndChar

StartChar: currency
Encoding: 164 164 121
Width: 1012
GlyphClass: 2
Flags: W
LayerCount: 2
Fore
SplineSet
799 860 m 1,0,1
 877 774 877 774 877 637 c 128,-1,2
 877 500 877 500 804 404 c 1,3,-1
 862 333 l 2,4,5
 892 297 892 297 926 261 c 1,6,-1
 845 180 l 1,7,-1
 767 249 l 1,8,9
 728 282 728 282 690 310 c 1,10,11
 607 270 607 270 504.5 270 c 128,-1,12
 402 270 402 270 323 309 c 1,13,14
 285 281 285 281 246 248 c 1,15,-1
 169 180 l 1,16,-1
 88 261 l 1,17,18
 156 334 156 334 208 403 c 1,19,20
 135 499 135 499 135 637.5 c 128,-1,21
 135 776 135 776 214 861 c 1,22,23
 155 938 155 938 82 1019 c 1,24,-1
 163 1100 l 1,25,26
 263 1006 263 1006 349 945 c 1,27,28
 422 970 422 970 506.5 970 c 128,-1,29
 591 970 591 970 664 945 c 1,30,31
 754 1009 754 1009 851 1100 c 1,32,-1
 932 1019 l 1,33,34
 894 978 894 978 861 938 c 2,35,-1
 799 860 l 1,0,1
614.5 446.5 m 128,-1,37
 653 513 653 513 653 632 c 0,38,39
 653 860 653 860 506 860 c 0,40,41
 436 860 436 860 397.5 805.5 c 128,-1,42
 359 751 359 751 359 632 c 128,-1,43
 359 513 359 513 397.5 446.5 c 128,-1,44
 436 380 436 380 506 380 c 256,45,36
 576 380 576 380 614.5 446.5 c 128,-1,37
EndSplineSet
EndChar

StartChar: yen
Encoding: 165 165 122
Width: 1031
GlyphClass: 2
Flags: W
LayerCount: 2
Fore
SplineSet
413 381 m 1,0,1
 154 381 154 381 48 352 c 1,2,-1
 48 512 l 1,3,4
 141 490 141 490 252 486.5 c 128,-1,5
 363 483 363 483 413 482 c 1,6,-1
 413 562 l 1,7,-1
 414 683 l 1,8,-1
 414 706 l 1,9,10
 154 706 154 706 48 677 c 1,11,-1
 48 837 l 1,12,13
 135 815 135 815 242 811.5 c 128,-1,14
 349 808 349 808 397 807 c 1,15,16
 373 896 373 896 331 985 c 2,17,-1
 186 1287 l 1,18,19
 94 1483 94 1483 24 1530 c 1,20,-1
 439 1530 l 1,21,22
 429 1501 429 1501 429 1448 c 0,23,24
 429 1323 429 1323 473 1215 c 1,25,-1
 517 1114 l 2,26,27
 542 1058 542 1058 579 1001 c 1,28,29
 613 1052 613 1052 636 1108 c 2,30,-1
 680 1215 l 1,31,32
 737 1360 737 1360 737 1491 c 0,33,34
 737 1513 737 1513 734 1530 c 1,35,-1
 1009 1530 l 1,36,37
 922 1438 922 1438 813 1205 c 1,38,-1
 770 1111 l 1,39,40
 686 930 686 930 664 808 c 1,41,42
 869 813 869 813 980 837 c 1,43,-1
 980 677 l 1,44,45
 866 701 866 701 655 706 c 1,46,-1
 655 483 l 1,47,48
 874 488 874 488 980 512 c 1,49,-1
 980 352 l 1,50,51
 866 376 866 376 655 381 c 1,52,-1
 655 264 l 2,53,54
 655 165 655 165 679 120.5 c 128,-1,55
 703 76 703 76 730 51 c 128,-1,56
 757 26 757 26 795 0 c 1,57,-1
 284 0 l 1,58,59
 365 62 365 62 385 104 c 0,60,61
 413 162 413 162 413 241 c 2,62,-1
 413 381 l 1,0,1
EndSplineSet
EndChar

StartChar: brokenbar
Encoding: 166 166 123
Width: 589
GlyphClass: 2
Flags: W
LayerCount: 2
Fore
SplineSet
402 1710 m 1,0,1
 386 1625 386 1625 386 1458 c 1,2,-1
 384 1174 l 1,3,4
 384 1007 384 1007 392 930 c 1,5,-1
 197 930 l 1,6,7
 205 1005 205 1005 205 1174 c 1,8,-1
 203 1458 l 1,9,10
 203 1626 203 1626 187 1710 c 1,11,-1
 402 1710 l 1,0,1
384 416 m 1,12,-1
 386 132 l 1,13,14
 386 -35 386 -35 402 -120 c 1,15,-1
 187 -120 l 1,16,17
 203 -36 203 -36 203 132 c 1,18,-1
 205 416 l 1,19,20
 205 585 205 585 197 660 c 1,21,-1
 392 660 l 1,22,23
 384 583 384 583 384 416 c 1,12,-1
EndSplineSet
EndChar

StartChar: section
Encoding: 167 167 124
Width: 1096
GlyphClass: 2
Flags: W
LayerCount: 2
Fore
SplineSet
388 1073 m 1,0,1
 238 1238 238 1238 238 1388 c 0,2,3
 238 1486 238 1486 302 1550 c 0,4,5
 372 1620 372 1620 498 1620 c 0,6,7
 554 1620 554 1620 587 1613 c 0,8,9
 648 1600 648 1600 670 1600 c 128,-1,10
 692 1600 692 1600 706.5 1602.5 c 128,-1,11
 721 1605 721 1605 732 1612 c 0,12,13
 750 1625 750 1625 776 1667 c 1,14,15
 817 1640 817 1640 848 1439 c 0,16,17
 859 1372 859 1372 859 1333 c 128,-1,18
 859 1294 859 1294 856 1263.5 c 128,-1,19
 853 1233 853 1233 846 1209 c 0,20,21
 829 1156 829 1156 791 1143 c 1,22,23
 780 1277 780 1277 716 1391 c 0,24,25
 643 1520 643 1520 551 1520 c 0,26,27
 497 1520 497 1520 474 1477 c 1,28,29
 454 1442 454 1442 461.5 1386.5 c 128,-1,30
 469 1331 469 1331 508.5 1275 c 128,-1,31
 548 1219 548 1219 603 1160 c 1,32,-1
 719 1040 l 1,33,34
 952 805 952 805 952 643 c 0,35,36
 952 472 952 472 799 368 c 0,37,38
 752 336 752 336 697 315 c 1,39,40
 820 176 820 176 820 65 c 0,41,42
 820 -69 820 -69 736 -154 c 1,43,44
 649 -240 649 -240 504 -240 c 0,45,46
 328 -240 328 -240 224 -116 c 0,47,48
 190 -76 190 -76 172 -24 c 1,49,50
 215 79 215 79 256 122 c 1,51,52
 322 188 322 188 398 213 c 1,53,54
 370 127 370 127 370 66 c 128,-1,55
 370 5 370 5 381 -31 c 128,-1,56
 392 -67 392 -67 411 -91 c 0,57,58
 450 -140 450 -140 504 -140 c 0,59,60
 554 -140 554 -140 576 -116 c 1,61,62
 611 -75 611 -75 611 -18.5 c 128,-1,63
 611 38 611 38 574.5 98.5 c 128,-1,64
 538 159 538 159 483 219 c 128,-1,65
 428 279 428 279 364.5 340 c 128,-1,66
 301 401 301 401 246 466 c 0,67,68
 118 619 118 619 118 754 c 0,69,70
 118 869 118 869 190 955 c 0,71,72
 264 1043 264 1043 388 1073 c 1,0,1
614 403 m 1,73,74
 732 456 732 456 732 594 c 0,75,76
 732 733 732 733 564 897 c 2,77,-1
 469 990 l 1,78,79
 375 966 375 966 344 865 c 0,80,81
 335 834 335 834 335 792 c 128,-1,82
 335 750 335 750 360 700.5 c 128,-1,83
 385 651 385 651 425 601.5 c 128,-1,84
 465 552 465 552 514 502 c 1,85,-1
 614 403 l 1,73,74
EndSplineSet
EndChar

StartChar: dieresis
Encoding: 168 168 125
Width: 1006
GlyphClass: 2
Flags: W
LayerCount: 2
Fore
SplineSet
343 1215 m 128,-1,1
 317 1195 317 1195 284 1195 c 128,-1,2
 251 1195 251 1195 225 1215 c 128,-1,3
 199 1235 199 1235 181 1265 c 0,4,5
 144 1327 144 1327 144 1395 c 0,6,7
 144 1477 144 1477 220 1505 c 0,8,9
 246 1515 246 1515 285 1515 c 0,10,11
 393 1515 393 1515 418 1440 c 0,12,13
 426 1418 426 1418 426 1391.5 c 128,-1,14
 426 1365 426 1365 416 1330 c 128,-1,15
 406 1295 406 1295 387.5 1265 c 128,-1,0
 369 1235 369 1235 343 1215 c 128,-1,1
779 1215 m 128,-1,17
 753 1195 753 1195 720 1195 c 128,-1,18
 687 1195 687 1195 661 1215 c 128,-1,19
 635 1235 635 1235 617 1265 c 0,20,21
 580 1327 580 1327 580 1395 c 0,22,23
 580 1477 580 1477 655 1505 c 0,24,25
 682 1515 682 1515 721 1515 c 0,26,27
 829 1515 829 1515 854 1440 c 0,28,29
 862 1418 862 1418 862 1391.5 c 128,-1,30
 862 1365 862 1365 852 1330 c 128,-1,31
 842 1295 842 1295 823.5 1265 c 128,-1,16
 805 1235 805 1235 779 1215 c 128,-1,17
EndSplineSet
EndChar

StartChar: copyright
Encoding: 169 169 126
Width: 1616
GlyphClass: 2
Flags: W
LayerCount: 2
Fore
SplineSet
154 458 m 128,-1,1
 100 598 100 598 100 736.5 c 128,-1,2
 100 875 100 875 124.5 974.5 c 128,-1,3
 149 1074 149 1074 194.5 1159.5 c 128,-1,4
 240 1245 240 1245 303.5 1313.5 c 128,-1,5
 367 1382 367 1382 446 1430 c 0,6,7
 609 1530 609 1530 806 1530 c 256,8,9
 1003 1530 1003 1530 1166 1430 c 0,10,11
 1325 1333 1325 1333 1418 1160 c 1,12,13
 1512 982 1512 982 1512 790 c 128,-1,14
 1512 598 1512 598 1458 458 c 128,-1,15
 1404 318 1404 318 1309 216 c 128,-1,16
 1214 114 1214 114 1085 57 c 128,-1,17
 956 0 956 0 806 0 c 256,18,19
 656 0 656 0 527 57 c 128,-1,20
 398 114 398 114 303 216 c 128,-1,0
 208 318 208 318 154 458 c 128,-1,1
255 764 m 0,21,22
 255 487 255 487 413 308 c 0,23,24
 570 130 570 130 806 130 c 256,25,26
 1042 130 1042 130 1199 308 c 0,27,28
 1357 487 1357 487 1357 764 c 0,29,30
 1357 1040 1357 1040 1199 1220 c 0,31,32
 1042 1400 1042 1400 806 1400 c 256,33,34
 570 1400 570 1400 413 1220 c 0,35,36
 255 1040 255 1040 255 764 c 0,21,22
1082 1220 m 1,37,38
 1107 1168 1107 1168 1107 1107.5 c 128,-1,39
 1107 1047 1107 1047 1102 1012 c 128,-1,40
 1097 977 1097 977 1086 944 c 0,41,42
 1063 872 1063 872 1020 830 c 1,43,44
 996 981 996 981 971.5 1023.5 c 128,-1,45
 947 1066 947 1066 920.5 1081.5 c 128,-1,46
 894 1097 894 1097 853.5 1097 c 128,-1,47
 813 1097 813 1097 778.5 1075.5 c 128,-1,48
 744 1054 744 1054 720 1014 c 0,49,50
 670 932 670 932 670 790 c 0,51,52
 670 524 670 524 774 432 c 0,53,54
 810 400 810 400 860 400 c 256,55,56
 910 400 910 400 962.5 444 c 128,-1,57
 1015 488 1015 488 1056 590 c 1,58,59
 1091 563 1091 563 1091 512 c 0,60,61
 1091 426 1091 426 1060 380 c 1,62,-1
 1020 356 l 1,63,64
 931 300 931 300 829.5 300 c 128,-1,65
 728 300 728 300 661.5 338 c 128,-1,66
 595 376 595 376 548 442 c 0,67,68
 450 578 450 578 450 780 c 0,69,70
 450 971 450 971 540 1084 c 1,71,72
 634 1200 634 1200 795 1200 c 0,73,74
 841 1200 841 1200 880.5 1190 c 128,-1,75
 920 1180 920 1180 958.5 1180 c 128,-1,76
 997 1180 997 1180 1027.5 1186.5 c 128,-1,77
 1058 1193 1058 1193 1082 1220 c 1,37,38
EndSplineSet
EndChar

StartChar: ordfeminine
Encoding: 170 170 127
Width: 958
GlyphClass: 2
Flags: W
LayerCount: 2
Fore
SplineSet
594 789 m 1,0,1
 507 680 507 680 333 680 c 0,2,3
 236 680 236 680 180 745 c 0,4,5
 130 803 130 803 130 882 c 128,-1,6
 130 961 130 961 166 1019.5 c 128,-1,7
 202 1078 202 1078 262 1117 c 0,8,9
 376 1191 376 1191 560 1198 c 1,10,-1
 560 1205 l 2,11,12
 560 1334 560 1334 541.5 1374.5 c 128,-1,13
 523 1415 523 1415 502.5 1427.5 c 128,-1,14
 482 1440 482 1440 446.5 1440 c 128,-1,15
 411 1440 411 1440 374 1418 c 128,-1,16
 337 1396 337 1396 306 1362 c 1,17,18
 244 1290 244 1290 220 1200 c 1,19,20
 182 1241 182 1241 182 1358 c 0,21,22
 182 1406 182 1406 190 1470 c 1,23,24
 221 1470 221 1470 248 1480 c 2,25,26
 248 1480 248 1480 308 1500 c 0,27,28
 398 1530 398 1530 480 1530 c 128,-1,29
 562 1530 562 1530 613.5 1509 c 128,-1,30
 665 1488 665 1488 696 1444 c 0,31,32
 755 1362 755 1362 755 1168 c 1,33,-1
 754 1128 l 2,34,35
 752 1084 752 1084 752 1035 c 128,-1,36
 752 986 752 986 752.5 957.5 c 128,-1,37
 753 929 753 929 754 902 c 0,38,39
 758 845 758 845 764 819.5 c 128,-1,40
 770 794 770 794 778.5 777 c 128,-1,41
 787 760 787 760 798.5 747.5 c 128,-1,42
 810 735 810 735 824 724 c 2,43,-1
 855 700 l 1,44,-1
 620 700 l 1,45,-1
 594 789 l 1,0,1
557 992 m 1,46,-1
 560 1101 l 1,47,48
 392 1088 392 1088 337 968 c 0,49,50
 318 927 318 927 318 878 c 0,51,52
 318 780 318 780 390 780 c 0,53,54
 448 780 448 780 500 840 c 0,55,56
 557 906 557 906 557 992 c 1,46,-1
EndSplineSet
EndChar

StartChar: guillemotleft
Encoding: 171 171 128
Width: 1309
GlyphClass: 2
Flags: W
LayerCount: 2
Fore
SplineSet
649 920 m 1,0,1
 614 725 614 725 498 515 c 1,2,3
 614 305 614 305 649 110 c 1,4,5
 633 128 633 128 601 160 c 2,6,-1
 444 312 l 1,7,8
 285 460 285 460 240 460 c 1,9,-1
 240 570 l 1,10,11
 285 570 285 570 444 718 c 1,12,13
 604 870 604 870 649 920 c 1,0,1
1069 920 m 1,14,15
 1034 725 1034 725 918 515 c 1,16,17
 1034 305 1034 305 1069 110 c 1,18,19
 1053 128 1053 128 1021 160 c 2,20,-1
 864 312 l 1,21,22
 705 460 705 460 660 460 c 1,23,-1
 660 570 l 1,24,25
 705 570 705 570 864 718 c 1,26,27
 1024 870 1024 870 1069 920 c 1,14,15
EndSplineSet
EndChar

StartChar: logicalnot
Encoding: 172 172 129
Width: 1428
GlyphClass: 2
Flags: W
LayerCount: 2
Fore
SplineSet
1251 658 m 2,0,1
 1251 225 1251 225 1280 80 c 1,2,-1
 1070 80 l 1,3,4
 1100 240 1100 240 1100 570 c 1,5,6
 950 580 950 580 636.5 580 c 128,-1,7
 323 580 323 580 178 550 c 1,8,-1
 178 761 l 1,9,10
 323 731 323 731 715 731 c 128,-1,11
 1107 731 1107 731 1251 761 c 1,12,-1
 1251 658 l 2,0,1
EndSplineSet
EndChar

StartChar: registered
Encoding: 174 174 131
Width: 1211
GlyphClass: 2
Flags: W
LayerCount: 2
Fore
SplineSet
88 949 m 256,0,1
 88 1209 88 1209 238 1372 c 1,2,3
 382 1530 382 1530 606 1530 c 0,4,5
 828 1530 828 1530 974 1372 c 0,6,7
 1123 1210 1123 1210 1123 949 c 256,8,9
 1123 688 1123 688 974 526 c 0,10,11
 828 368 828 368 606 368 c 0,12,13
 382 368 382 368 238 526 c 1,14,15
 88 689 88 689 88 949 c 256,0,1
217 949 m 256,16,17
 217 743 217 743 329 609 c 0,18,19
 439 478 439 478 606 478 c 128,-1,20
 773 478 773 478 883 609 c 0,21,22
 995 743 995 743 995 949 c 256,23,24
 995 1155 995 1155 883 1289 c 0,25,26
 773 1420 773 1420 606 1420 c 128,-1,27
 439 1420 439 1420 329 1289 c 0,28,29
 217 1155 217 1155 217 949 c 256,16,17
362 640 m 1,30,31
 393 713 393 713 393 852 c 0,32,33
 393 916 393 916 390 964 c 2,34,-1
 385 1043 l 2,35,36
 383 1073 383 1073 381.5 1100 c 128,-1,37
 380 1127 380 1127 377 1148 c 128,-1,38
 374 1169 374 1169 369 1185 c 0,39,40
 360 1214 360 1214 330 1240 c 1,41,-1
 617 1240 l 2,42,43
 744 1240 744 1240 806 1211.5 c 128,-1,44
 868 1183 868 1183 868 1110 c 0,45,46
 868 1014 868 1014 753 959 c 1,47,48
 756 792 756 792 823 692 c 0,49,50
 845 659 845 659 874 640 c 1,51,-1
 682 640 l 1,52,53
 655 703 655 703 646.5 788 c 128,-1,54
 638 873 638 873 635 890 c 128,-1,55
 632 907 632 907 625 918 c 0,56,57
 611 940 611 940 570.5 940 c 128,-1,58
 530 940 530 940 530 855 c 0,59,60
 530 719 530 719 559 640 c 1,61,-1
 362 640 l 1,30,31
714 1100 m 0,62,63
 714 1170 714 1170 598 1170 c 0,64,65
 552 1170 552 1170 544 1162 c 1,66,67
 530 1151 530 1151 530 1114 c 128,-1,68
 530 1077 530 1077 532 1058.5 c 128,-1,69
 534 1040 534 1040 541 1027 c 0,70,71
 556 1000 556 1000 593 1000 c 128,-1,72
 630 1000 630 1000 652 1010.5 c 128,-1,73
 674 1021 674 1021 688 1036 c 0,74,75
 714 1064 714 1064 714 1100 c 0,62,63
EndSplineSet
EndChar

StartChar: macron
Encoding: 175 175 132
Width: 1008
GlyphClass: 2
Flags: W
LayerCount: 2
Fore
SplineSet
158 1390 m 1,0,1
 252 1370 252 1370 505.5 1370 c 128,-1,2
 759 1370 759 1370 850 1390 c 1,3,-1
 850 1200 l 1,4,5
 759 1220 759 1220 505.5 1220 c 128,-1,6
 252 1220 252 1220 158 1200 c 1,7,-1
 158 1390 l 1,0,1
EndSplineSet
EndChar

StartChar: degree
Encoding: 176 176 133
Width: 913
GlyphClass: 2
Flags: W
LayerCount: 2
Fore
SplineSet
348.5 1365.5 m 128,-1,1
 310 1311 310 1311 310 1231.5 c 128,-1,2
 310 1152 310 1152 321.5 1112 c 128,-1,3
 333 1072 333 1072 352 1045 c 0,4,5
 392 990 392 990 457 990 c 0,6,7
 557 990 557 990 592 1112 c 0,8,9
 604 1152 604 1152 604 1231.5 c 128,-1,10
 604 1311 604 1311 565.5 1365.5 c 128,-1,11
 527 1420 527 1420 457 1420 c 256,12,0
 387 1420 387 1420 348.5 1365.5 c 128,-1,1
798 1205 m 0,13,14
 798 1051 798 1051 702 964 c 0,15,16
 608 880 608 880 457 880 c 256,17,18
 306 880 306 880 212 964 c 0,19,20
 116 1051 116 1051 116 1205 c 0,21,22
 116 1357 116 1357 212 1446 c 1,23,24
 305 1530 305 1530 457 1530 c 256,25,26
 609 1530 609 1530 702 1446 c 1,27,28
 798 1357 798 1357 798 1205 c 0,13,14
EndSplineSet
EndChar

StartChar: plusminus
Encoding: 177 177 134
Width: 1288
GlyphClass: 2
Flags: W
LayerCount: 2
Fore
SplineSet
569 710 m 1,0,1
 305 710 305 710 178 680 c 1,2,-1
 178 890 l 1,3,4
 305 860 305 860 569 860 c 1,5,6
 569 1131 569 1131 539 1251 c 1,7,-1
 749 1251 l 1,8,9
 719 1131 719 1131 719 860 c 1,10,11
 990 860 990 860 1110 890 c 1,12,-1
 1110 680 l 1,13,14
 990 710 990 710 719 710 c 1,15,16
 719 446 719 446 749 319 c 1,17,-1
 539 319 l 1,18,19
 569 446 569 446 569 710 c 1,0,1
178 190 m 1,20,21
 301 160 301 160 642.5 160 c 128,-1,22
 984 160 984 160 1110 190 c 1,23,-1
 1110 -20 l 1,24,25
 984 10 984 10 642.5 10 c 128,-1,26
 301 10 301 10 178 -20 c 1,27,-1
 178 190 l 1,20,21
EndSplineSet
EndChar

StartChar: twosuperior
Encoding: 178 178 135
Width: 906
GlyphClass: 2
Flags: W
LayerCount: 2
Fore
SplineSet
770 820 m 1,0,1
 790 768 790 768 790 709 c 128,-1,2
 790 650 790 650 782 619 c 128,-1,3
 774 588 774 588 759 561 c 0,4,5
 726 501 726 501 672 480 c 1,6,-1
 105 480 l 1,7,8
 117 503 117 503 142 546 c 2,9,-1
 348 901 l 1,10,-1
 420 1036 l 1,11,12
 540 1266 540 1266 540 1332.5 c 128,-1,13
 540 1399 540 1399 521 1424.5 c 128,-1,14
 502 1450 502 1450 452.5 1450 c 128,-1,15
 403 1450 403 1450 363 1414.5 c 128,-1,16
 323 1379 323 1379 292 1324 c 0,17,18
 230 1213 230 1213 221 1080 c 1,19,20
 140 1116 140 1116 140 1330 c 0,21,22
 140 1385 140 1385 160 1452 c 0,23,24
 197 1582 197 1582 230 1600 c 1,25,26
 256 1558 256 1558 272 1547 c 0,27,28
 298 1530 298 1530 333 1530 c 128,-1,29
 368 1530 368 1530 402 1540 c 128,-1,30
 436 1550 436 1550 491.5 1550 c 128,-1,31
 547 1550 547 1550 593 1536 c 128,-1,32
 639 1522 639 1522 670 1497 c 0,33,34
 730 1447 730 1447 730 1375.5 c 128,-1,35
 730 1304 730 1304 707 1235.5 c 128,-1,36
 684 1167 684 1167 650 1094 c 128,-1,37
 616 1021 616 1021 576 948 c 2,38,-1
 501 812 l 1,39,40
 421 662 421 662 421 620 c 0,41,42
 421 574 421 574 477 571 c 0,43,44
 494 570 494 570 526 570 c 128,-1,45
 558 570 558 570 593 588 c 128,-1,46
 628 606 628 606 658 638 c 0,47,48
 707 691 707 691 770 820 c 1,0,1
EndSplineSet
EndChar

StartChar: threesuperior
Encoding: 179 179 136
Width: 871
GlyphClass: 2
Flags: W
LayerCount: 2
Fore
SplineSet
550 1552 m 0,0,1
 750 1552 750 1552 750 1390 c 0,2,3
 750 1238 750 1238 578 1133 c 1,4,5
 677 1113 677 1113 728.5 1059 c 128,-1,6
 780 1005 780 1005 780 935 c 128,-1,7
 780 865 780 865 755.5 805 c 128,-1,8
 731 745 731 745 689 693 c 128,-1,9
 647 641 647 641 590 598 c 128,-1,10
 533 555 533 555 467 524 c 0,11,12
 327 460 327 460 189 460 c 1,13,14
 164 476 164 476 152.5 503 c 128,-1,15
 141 530 141 530 140 540 c 1,16,17
 304 540 304 540 428 644 c 0,18,19
 554 750 554 750 554 890 c 0,20,21
 554 965 554 965 521 994 c 0,22,23
 457 1050 457 1050 320 1050 c 1,24,25
 290 1085 290 1085 290 1140 c 1,26,27
 375 1147 375 1147 462 1215 c 0,28,29
 557 1290 557 1290 557 1370 c 0,30,31
 557 1417 557 1417 535.5 1433.5 c 128,-1,32
 514 1450 514 1450 471 1450 c 128,-1,33
 428 1450 428 1450 386 1429 c 128,-1,34
 344 1408 344 1408 311 1376 c 0,35,36
 238 1304 238 1304 230 1230 c 1,37,38
 173 1255 173 1255 173 1397 c 0,39,40
 173 1495 173 1495 217 1572 c 0,41,42
 229 1593 229 1593 240 1600 c 1,43,44
 264 1549 264 1549 278 1537 c 1,45,46
 301 1520 301 1520 329.5 1520 c 128,-1,47
 358 1520 358 1520 380 1525 c 2,48,-1
 430 1536 l 2,49,50
 500 1552 500 1552 550 1552 c 0,0,1
EndSplineSet
EndChar

StartChar: acute
Encoding: 180 180 137
Width: 652
GlyphClass: 2
Flags: W
LayerCount: 2
Fore
SplineSet
741 1530 m 1,0,1
 653 1338 653 1338 493 1174 c 0,2,3
 455 1135 455 1135 434 1120 c 1,4,-1
 320 1120 l 1,5,6
 332 1141 332 1141 349 1178 c 0,7,8
 434 1370 434 1370 459.5 1447 c 128,-1,9
 485 1524 485 1524 485 1530 c 1,10,-1
 741 1530 l 1,0,1
EndSplineSet
EndChar

StartChar: mu
Encoding: 181 181 138
AltUni2: 0003bc.ffffffff.0
Width: 1141
GlyphClass: 2
Flags: W
LayerCount: 2
Fore
SplineSet
397 953 m 1,0,-1
 380 469 l 1,1,2
 380 311 380 311 401.5 255 c 128,-1,3
 423 199 423 199 453.5 174.5 c 128,-1,4
 484 150 484 150 531.5 150 c 128,-1,5
 579 150 579 150 615 168 c 128,-1,6
 651 186 651 186 680 216 c 0,7,8
 732 270 732 270 762 357 c 1,9,10
 763 384 763 384 763 412 c 2,11,-1
 763 469 l 2,12,13
 763 847 763 847 709 964 c 1,14,15
 709 964 709 964 687 1010 c 1,16,-1
 972 1010 l 1,17,18
 973 994 973 994 973 980 c 2,19,-1
 973 951 l 1,20,21
 973 951 973 951 956 469 c 1,22,23
 956 196 956 196 1004 94 c 0,24,25
 1021 57 1021 57 1064 0 c 1,26,-1
 779 0 l 1,27,-1
 772 40 l 2,28,29
 760 104 760 104 755 182 c 1,30,31
 659 -20 659 -20 497 -20 c 0,32,33
 417 -20 417 -20 366 36 c 1,34,35
 374 -222 374 -222 388 -271.5 c 128,-1,36
 402 -321 402 -321 414.5 -346.5 c 128,-1,37
 427 -372 427 -372 442 -394 c 1,38,-1
 476 -440 l 1,39,-1
 141 -440 l 1,40,41
 169 -344 169 -344 173.5 -248.5 c 128,-1,42
 178 -153 178 -153 180.5 -85.5 c 128,-1,43
 183 -18 183 -18 185 54 c 0,44,45
 189 196 189 196 189 336 c 0,46,47
 189 761 189 761 162 858 c 0,48,49
 146 918 146 918 121 951 c 1,50,-1
 79 1010 l 1,51,-1
 396 1010 l 1,52,-1
 397 953 l 1,0,-1
EndSplineSet
EndChar

StartChar: paragraph
Encoding: 182 182 139
Width: 1255
GlyphClass: 2
Flags: W
LayerCount: 2
Fore
SplineSet
1026 222 m 1,0,1
 1035 85 1035 85 1082 0 c 1,2,-1
 809 0 l 1,3,4
 836 66 836 66 839.5 121 c 128,-1,5
 843 176 843 176 845.5 235.5 c 128,-1,6
 848 295 848 295 850 384 c 1,7,-1
 852 567 l 2,8,9
 854 662 854 662 854 761 c 1,10,-1
 856 955 l 2,11,12
 856 1050 856 1050 856 1138 c 2,13,-1
 856 1302 l 2,14,15
 856 1379 856 1379 844 1395 c 0,16,17
 825 1420 825 1420 785 1420 c 128,-1,18
 745 1420 745 1420 728.5 1416 c 128,-1,19
 712 1412 712 1412 702 1400 c 0,20,21
 684 1378 684 1378 684 1303 c 2,22,-1
 684 1138 l 2,23,24
 684 1050 684 1050 684 955 c 2,25,-1
 686 761 l 1,26,27
 686 662 686 662 688 567 c 2,28,-1
 690 384 l 1,29,30
 694 148 694 148 702 105 c 0,31,32
 713 43 713 43 731 0 c 1,33,-1
 437 0 l 1,34,35
 486 63 486 63 496 144 c 0,36,37
 510 257 510 257 512 431 c 2,38,-1
 514 664 l 2,39,40
 514 722 514 722 514 774 c 2,41,-1
 514 870 l 2,42,43
 514 1010 514 1010 438 1010 c 0,44,45
 270 1010 270 1010 176 1100 c 1,46,47
 93 1181 93 1181 93 1290 c 0,48,49
 93 1424 93 1424 192 1477 c 0,50,51
 290 1530 290 1530 527 1530 c 2,52,-1
 1126 1530 l 1,53,54
 1077 1481 1077 1481 1062 1438 c 1,55,56
 1040 1370 1040 1370 1036.5 1280.5 c 128,-1,57
 1033 1191 1033 1191 1031.5 1104.5 c 128,-1,58
 1030 1018 1030 1018 1029 926.5 c 128,-1,59
 1028 835 1028 835 1028 740 c 1,60,-1
 1026 556 l 2,61,62
 1026 465 1026 465 1026 380 c 2,63,-1
 1026 222 l 1,0,1
EndSplineSet
EndChar

StartChar: periodcentered
Encoding: 183 183 140
Width: 683
GlyphClass: 2
Flags: W
LayerCount: 2
Fore
SplineSet
183 581 m 0,0,1
 183 651 183 651 230 702 c 0,2,3
 277 752 277 752 344 752 c 256,4,5
 411 752 411 752 458 702 c 0,6,7
 505 651 505 651 505 581 c 0,8,9
 505 509 505 509 458 460 c 0,10,11
 410 410 410 410 344 410 c 256,12,13
 278 410 278 410 230 460 c 0,14,15
 183 509 183 509 183 581 c 0,0,1
EndSplineSet
EndChar

StartChar: cedilla
Encoding: 184 184 141
Width: 603
GlyphClass: 2
Flags: W
LayerCount: 2
Fore
SplineSet
383 57 m 1,0,1
 358 -4 358 -4 358 -107 c 1,2,-1
 399 -132 l 1,3,4
 490 -185 490 -185 490 -270 c 0,5,6
 490 -367 490 -367 411 -432 c 1,7,8
 330 -500 330 -500 200 -500 c 1,9,10
 179 -487 179 -487 166 -468 c 2,11,-1
 149 -442 l 2,12,13
 144 -434 144 -434 140 -430 c 1,14,15
 260 -417 260 -417 310 -324 c 0,16,17
 325 -295 325 -295 325 -260 c 0,18,19
 325 -180 325 -180 223 -144 c 1,20,21
 280 -35 280 -35 295 88 c 1,22,-1
 383 57 l 1,0,1
EndSplineSet
EndChar

StartChar: onesuperior
Encoding: 185 185 142
Width: 665
GlyphClass: 2
Flags: W
LayerCount: 2
Fore
SplineSet
503 1530 m 1,0,1
 471 1399 471 1399 471 998.5 c 128,-1,2
 471 598 471 598 514 480 c 1,3,-1
 228 480 l 1,4,5
 282 645 282 645 282 1004 c 2,6,-1
 282 1123 l 2,7,8
 282 1260 282 1260 276 1309 c 1,9,10
 236 1290 236 1290 202 1290 c 0,11,12
 150 1290 150 1290 119 1310 c 1,13,14
 221 1378 221 1378 308 1471 c 0,15,16
 337 1502 337 1502 356 1530 c 1,17,-1
 503 1530 l 1,0,1
EndSplineSet
EndChar

StartChar: ordmasculine
Encoding: 186 186 143
Width: 913
GlyphClass: 2
Flags: W
LayerCount: 2
Fore
SplineSet
352 1371 m 128,-1,1
 320 1302 320 1302 320 1134 c 0,2,3
 320 770 320 770 457 770 c 0,4,5
 530 770 530 770 562 867.5 c 128,-1,6
 594 965 594 965 594 1133.5 c 128,-1,7
 594 1302 594 1302 562 1371 c 128,-1,8
 530 1440 530 1440 457 1440 c 256,9,0
 384 1440 384 1440 352 1371 c 128,-1,1
457 1530 m 256,10,11
 798 1530 798 1530 798 1165 c 0,12,13
 798 815 798 815 602 713 c 0,14,15
 538 680 538 680 457 680 c 0,16,17
 295 680 295 680 206 808 c 0,18,19
 116 936 116 936 116 1165 c 0,20,21
 116 1530 116 1530 457 1530 c 256,10,11
EndSplineSet
EndChar

StartChar: guillemotright
Encoding: 187 187 144
Width: 1309
GlyphClass: 2
Flags: W
LayerCount: 2
Fore
SplineSet
240 920 m 1,0,1
 275 725 275 725 391 515 c 1,2,3
 275 305 275 305 240 110 c 1,4,5
 256 128 256 128 288 160 c 2,6,-1
 445 312 l 1,7,8
 604 460 604 460 649 460 c 1,9,-1
 649 570 l 1,10,11
 604 570 604 570 445 718 c 1,12,13
 285 870 285 870 240 920 c 1,0,1
660 920 m 1,14,15
 695 725 695 725 811 515 c 1,16,17
 695 305 695 305 660 110 c 1,18,19
 676 128 676 128 708 160 c 2,20,-1
 865 312 l 1,21,22
 1024 460 1024 460 1069 460 c 1,23,-1
 1069 570 l 1,24,25
 1024 570 1024 570 865 718 c 1,26,27
 705 870 705 870 660 920 c 1,14,15
EndSplineSet
EndChar

StartChar: onequarter
Encoding: 188 188 145
Width: 1979
GlyphClass: 2
Flags: W
LayerCount: 2
Fore
SplineSet
1110 426 m 0,0,1
 1196 642 1196 642 1196 995 c 0,2,3
 1196 1042 1196 1042 1192 1046 c 1,4,-1
 1440 1046 l 1,5,-1
 1416 972 l 2,6,7
 1374 842 1374 842 1334 564 c 0,8,9
 1327 519 1327 519 1322 489 c 128,-1,10
 1317 459 1317 459 1344.5 448 c 128,-1,11
 1372 437 1372 437 1432 437 c 2,12,-1
 1531 437 l 1,13,14
 1531 546 1531 546 1527.5 599.5 c 128,-1,15
 1524 653 1524 653 1521.5 678 c 128,-1,16
 1519 703 1519 703 1516.5 723 c 128,-1,17
 1514 743 1514 743 1512 760 c 2,18,-1
 1506 796 l 1,19,-1
 1726 796 l 1,20,-1
 1720 760 l 1,21,22
 1701 630 1701 630 1694 442 c 1,23,24
 1755 449 1755 449 1830 488 c 1,25,-1
 1830 303 l 1,26,-1
 1804 315 l 1,27,28
 1761 336 1761 336 1691 341 c 1,29,30
 1690 326 1690 326 1690 312 c 2,31,-1
 1690 283 l 2,32,33
 1690 161 1690 161 1703.5 107 c 128,-1,34
 1717 53 1717 53 1722 36 c 128,-1,35
 1727 19 1727 19 1732 0 c 1,36,-1
 1464 0 l 1,37,-1
 1480 36 l 1,38,39
 1514 115 1514 115 1520.5 205.5 c 128,-1,40
 1527 296 1527 296 1529 344 c 1,41,-1
 1075 344 l 1,42,43
 1098 397 1098 397 1110 426 c 0,0,1
814 210 m 2,44,45
 800 137 800 137 800 90 c 128,-1,46
 800 43 800 43 813 0 c 1,47,-1
 608 0 l 1,48,49
 656 135 656 135 671 209 c 2,50,-1
 899 1308 l 2,51,52
 917 1396 917 1396 917 1440 c 128,-1,53
 917 1484 917 1484 903 1530 c 1,54,-1
 1118 1530 l 1,55,-1
 1101 1489 l 1,56,57
 1064 1403 1064 1403 1046 1327 c 1,58,59
 1000 1121 1000 1121 975 999 c 2,60,-1
 814 210 l 2,44,45
503 1530 m 1,61,62
 471 1399 471 1399 471 998.5 c 128,-1,63
 471 598 471 598 514 480 c 1,64,-1
 228 480 l 1,65,66
 282 645 282 645 282 1004 c 2,67,-1
 282 1123 l 2,68,69
 282 1260 282 1260 276 1309 c 1,70,71
 236 1290 236 1290 202 1290 c 0,72,73
 150 1290 150 1290 119 1310 c 1,74,75
 221 1378 221 1378 308 1471 c 0,76,77
 337 1502 337 1502 356 1530 c 1,78,-1
 503 1530 l 1,61,62
EndSplineSet
EndChar

StartChar: onehalf
Encoding: 189 189 146
Width: 1927
GlyphClass: 2
Flags: W
LayerCount: 2
Fore
SplineSet
1780 340 m 1,0,1
 1800 288 1800 288 1800 229 c 128,-1,2
 1800 170 1800 170 1792 139 c 128,-1,3
 1784 108 1784 108 1769 81 c 0,4,5
 1736 21 1736 21 1682 0 c 1,6,-1
 1115 0 l 1,7,8
 1127 23 1127 23 1152 66 c 2,9,-1
 1358 421 l 1,10,-1
 1430 556 l 1,11,12
 1550 786 1550 786 1550 852.5 c 128,-1,13
 1550 919 1550 919 1531 944.5 c 128,-1,14
 1512 970 1512 970 1462.5 970 c 128,-1,15
 1413 970 1413 970 1373 934.5 c 128,-1,16
 1333 899 1333 899 1302 844 c 0,17,18
 1240 733 1240 733 1231 600 c 1,19,20
 1150 636 1150 636 1150 850 c 0,21,22
 1150 905 1150 905 1170 972 c 0,23,24
 1207 1102 1207 1102 1240 1120 c 1,25,26
 1266 1078 1266 1078 1282 1067 c 0,27,28
 1308 1050 1308 1050 1343 1050 c 128,-1,29
 1378 1050 1378 1050 1412 1060 c 128,-1,30
 1446 1070 1446 1070 1501.5 1070 c 128,-1,31
 1557 1070 1557 1070 1603 1056 c 128,-1,32
 1649 1042 1649 1042 1680 1017 c 0,33,34
 1740 967 1740 967 1740 895.5 c 128,-1,35
 1740 824 1740 824 1717 755.5 c 128,-1,36
 1694 687 1694 687 1660 614 c 128,-1,37
 1626 541 1626 541 1586 468 c 2,38,-1
 1511 332 l 1,39,40
 1431 182 1431 182 1431 140 c 0,41,42
 1431 94 1431 94 1487 91 c 0,43,44
 1504 90 1504 90 1536 90 c 128,-1,45
 1568 90 1568 90 1603 108 c 128,-1,46
 1638 126 1638 126 1668 158 c 0,47,48
 1717 211 1717 211 1780 340 c 1,0,1
814 210 m 2,49,50
 800 137 800 137 800 90 c 128,-1,51
 800 43 800 43 813 0 c 1,52,-1
 608 0 l 1,53,54
 656 135 656 135 671 209 c 2,55,-1
 899 1308 l 2,56,57
 917 1396 917 1396 917 1440 c 128,-1,58
 917 1484 917 1484 903 1530 c 1,59,-1
 1118 1530 l 1,60,-1
 1101 1489 l 1,61,62
 1064 1403 1064 1403 1046 1327 c 1,63,64
 1000 1121 1000 1121 975 999 c 2,65,-1
 814 210 l 2,49,50
503 1530 m 1,66,67
 471 1399 471 1399 471 998.5 c 128,-1,68
 471 598 471 598 514 480 c 1,69,-1
 228 480 l 1,70,71
 282 645 282 645 282 1004 c 2,72,-1
 282 1123 l 2,73,74
 282 1260 282 1260 276 1309 c 1,75,76
 236 1290 236 1290 202 1290 c 0,77,78
 150 1290 150 1290 119 1310 c 1,79,80
 221 1378 221 1378 308 1471 c 0,81,82
 337 1502 337 1502 356 1530 c 1,83,-1
 503 1530 l 1,66,67
EndSplineSet
EndChar

StartChar: threequarters
Encoding: 190 190 147
Width: 2143
GlyphClass: 2
Flags: W
LayerCount: 2
Fore
SplineSet
1280 426 m 0,0,1
 1366 642 1366 642 1366 995 c 0,2,3
 1366 1042 1366 1042 1362 1046 c 1,4,-1
 1610 1046 l 1,5,-1
 1586 972 l 2,6,7
 1544 842 1544 842 1504 564 c 0,8,9
 1497 519 1497 519 1492 489 c 128,-1,10
 1487 459 1487 459 1514.5 448 c 128,-1,11
 1542 437 1542 437 1602 437 c 2,12,-1
 1701 437 l 1,13,14
 1701 546 1701 546 1697.5 599.5 c 128,-1,15
 1694 653 1694 653 1691.5 678 c 128,-1,16
 1689 703 1689 703 1686.5 723 c 128,-1,17
 1684 743 1684 743 1682 760 c 2,18,-1
 1676 796 l 1,19,-1
 1896 796 l 1,20,-1
 1890 760 l 1,21,22
 1871 630 1871 630 1864 442 c 1,23,24
 1925 449 1925 449 2000 488 c 1,25,-1
 2000 303 l 1,26,-1
 1974 315 l 1,27,28
 1931 336 1931 336 1861 341 c 1,29,30
 1860 326 1860 326 1860 312 c 2,31,-1
 1860 283 l 2,32,33
 1860 161 1860 161 1873.5 107 c 128,-1,34
 1887 53 1887 53 1892 36 c 128,-1,35
 1897 19 1897 19 1902 0 c 1,36,-1
 1634 0 l 1,37,-1
 1650 36 l 1,38,39
 1684 115 1684 115 1690.5 205.5 c 128,-1,40
 1697 296 1697 296 1699 344 c 1,41,-1
 1245 344 l 1,42,43
 1268 397 1268 397 1280 426 c 0,0,1
550 1552 m 0,44,45
 750 1552 750 1552 750 1390 c 0,46,47
 750 1238 750 1238 578 1133 c 1,48,49
 677 1113 677 1113 728.5 1059 c 128,-1,50
 780 1005 780 1005 780 935 c 128,-1,51
 780 865 780 865 755.5 805 c 128,-1,52
 731 745 731 745 689 693 c 128,-1,53
 647 641 647 641 590 598 c 128,-1,54
 533 555 533 555 467 524 c 0,55,56
 327 460 327 460 189 460 c 1,57,58
 164 476 164 476 152.5 503 c 128,-1,59
 141 530 141 530 140 540 c 1,60,61
 304 540 304 540 428 644 c 0,62,63
 554 750 554 750 554 890 c 0,64,65
 554 965 554 965 521 994 c 0,66,67
 457 1050 457 1050 320 1050 c 1,68,69
 290 1085 290 1085 290 1140 c 1,70,71
 375 1147 375 1147 462 1215 c 0,72,73
 557 1290 557 1290 557 1370 c 0,74,75
 557 1417 557 1417 535.5 1433.5 c 128,-1,76
 514 1450 514 1450 471 1450 c 128,-1,77
 428 1450 428 1450 386 1429 c 128,-1,78
 344 1408 344 1408 311 1376 c 0,79,80
 238 1304 238 1304 230 1230 c 1,81,82
 173 1255 173 1255 173 1397 c 0,83,84
 173 1495 173 1495 217 1572 c 0,85,86
 229 1593 229 1593 240 1600 c 1,87,88
 264 1549 264 1549 278 1537 c 1,89,90
 301 1520 301 1520 329.5 1520 c 128,-1,91
 358 1520 358 1520 380 1525 c 2,92,-1
 430 1536 l 2,93,94
 500 1552 500 1552 550 1552 c 0,44,45
984 210 m 2,95,96
 970 137 970 137 970 90 c 128,-1,97
 970 43 970 43 983 0 c 1,98,-1
 778 0 l 1,99,100
 826 135 826 135 841 209 c 2,101,-1
 1069 1308 l 2,102,103
 1087 1396 1087 1396 1087 1440 c 128,-1,104
 1087 1484 1087 1484 1073 1530 c 1,105,-1
 1288 1530 l 1,106,-1
 1271 1489 l 1,107,108
 1234 1403 1234 1403 1216 1327 c 1,109,110
 1170 1121 1170 1121 1145 999 c 2,111,-1
 984 210 l 2,95,96
EndSplineSet
EndChar

StartChar: questiondown
Encoding: 191 191 148
Width: 1025
GlyphClass: 2
Flags: W
LayerCount: 2
Fore
SplineSet
827 135 m 1,0,1
 895 101 895 101 895 -179 c 0,2,3
 895 -385 895 -385 842 -471 c 0,4,5
 829 -492 829 -492 812 -499 c 1,6,7
 781 -456 781 -456 764 -447 c 0,8,9
 738 -432 738 -432 701 -432 c 128,-1,10
 664 -432 664 -432 638 -436 c 2,11,-1
 584 -444 l 2,12,13
 503 -457 503 -457 431.5 -457 c 128,-1,14
 360 -457 360 -457 292 -438 c 128,-1,15
 224 -419 224 -419 175 -380 c 0,16,17
 74 -298 74 -298 70 -128 c 1,18,19
 68 46 68 46 280 234 c 0,20,21
 415 353 415 353 455 411 c 128,-1,22
 495 469 495 469 495 510 c 128,-1,23
 495 551 495 551 492.5 570.5 c 128,-1,24
 490 590 490 590 485.5 604.5 c 128,-1,25
 481 619 481 619 474 630 c 2,26,-1
 456 658 l 1,27,-1
 684 658 l 1,28,29
 692 507 692 507 610 372 c 0,30,31
 580 322 580 322 546 274 c 2,32,-1
 476 177 l 1,33,34
 348 5 348 5 348 -166.5 c 128,-1,35
 348 -338 348 -338 467 -338 c 0,36,37
 560 -338 560 -338 644 -259 c 0,38,39
 756 -155 756 -155 807 32 c 0,40,41
 822 86 822 86 827 135 c 1,0,1
735 937 m 0,42,43
 735 867 735 867 688 816 c 0,44,45
 641 766 641 766 574 766 c 256,46,47
 507 766 507 766 460 816 c 0,48,49
 413 867 413 867 413 937 c 0,50,51
 413 1009 413 1009 460 1058 c 0,52,53
 508 1108 508 1108 574 1108 c 256,54,55
 640 1108 640 1108 688 1058 c 0,56,57
 735 1009 735 1009 735 937 c 0,42,43
EndSplineSet
EndChar

StartChar: Agrave
Encoding: 192 192 149
Width: 1161
GlyphClass: 2
Flags: W
LayerCount: 2
Fore
SplineSet
813 0 m 1,0,1
 826 63 826 63 826 100.5 c 128,-1,2
 826 138 826 138 824.5 157 c 128,-1,3
 823 176 823 176 820.5 197.5 c 128,-1,4
 818 219 818 219 814.5 245.5 c 128,-1,5
 811 272 811 272 808 307 c 0,6,7
 785 546 785 546 645 700 c 0,8,9
 583 768 583 768 511 803.5 c 128,-1,10
 439 839 439 839 392.5 839 c 128,-1,11
 346 839 346 839 321 833 c 1,12,13
 265 665 265 665 265 482 c 0,14,15
 265 320 265 320 282 240 c 0,16,17
 309 120 309 120 365 -1 c 1,18,-1
 66 -1 l 1,19,20
 90 59 90 59 90 251.5 c 128,-1,21
 90 444 90 444 119 611.5 c 128,-1,22
 148 779 148 779 194.5 910 c 128,-1,23
 241 1041 241 1041 298.5 1139.5 c 128,-1,24
 356 1238 356 1238 413.5 1311.5 c 128,-1,25
 471 1385 471 1385 522 1437.5 c 128,-1,26
 573 1490 573 1490 607 1530 c 1,27,-1
 922 1530 l 1,28,29
 879 1481 879 1481 879 1393 c 0,30,31
 879 1353 879 1353 892 1262 c 2,32,-1
 917 1080 l 1,33,34
 1054 136 1054 136 1162 0 c 1,35,-1
 813 0 l 1,0,1
362 939 m 1,36,37
 401 954 401 954 444 954 c 128,-1,38
 487 954 487 954 521.5 948 c 128,-1,39
 556 942 556 942 590 928 c 0,40,41
 663 900 663 900 712 839 c 1,42,43
 663 1096 663 1096 652 1153 c 2,44,-1
 617 1328 l 1,45,-1
 560 1260 l 2,46,47
 440 1116 440 1116 362 939 c 1,36,37
630 1993 m 1,48,49
 630 1977 630 1977 688 1902 c 0,50,51
 826 1725 826 1725 860 1693 c 1,52,-1
 712 1693 l 1,53,54
 586 1758 586 1758 458 1890 c 1,55,56
 410 1938 410 1938 373 1993 c 1,57,-1
 630 1993 l 1,48,49
EndSplineSet
EndChar

StartChar: Aacute
Encoding: 193 193 150
Width: 1161
GlyphClass: 2
Flags: W
LayerCount: 2
Fore
SplineSet
813 0 m 1,0,1
 826 63 826 63 826 100.5 c 128,-1,2
 826 138 826 138 824.5 157 c 128,-1,3
 823 176 823 176 820.5 197.5 c 128,-1,4
 818 219 818 219 814.5 245.5 c 128,-1,5
 811 272 811 272 808 307 c 0,6,7
 785 546 785 546 645 700 c 0,8,9
 583 768 583 768 511 803.5 c 128,-1,10
 439 839 439 839 392.5 839 c 128,-1,11
 346 839 346 839 321 833 c 1,12,13
 265 665 265 665 265 482 c 0,14,15
 265 320 265 320 282 240 c 0,16,17
 309 120 309 120 365 -1 c 1,18,-1
 66 -1 l 1,19,20
 90 59 90 59 90 251.5 c 128,-1,21
 90 444 90 444 119 611.5 c 128,-1,22
 148 779 148 779 194.5 910 c 128,-1,23
 241 1041 241 1041 298.5 1139.5 c 128,-1,24
 356 1238 356 1238 413.5 1311.5 c 128,-1,25
 471 1385 471 1385 522 1437.5 c 128,-1,26
 573 1490 573 1490 607 1530 c 1,27,-1
 922 1530 l 1,28,29
 879 1481 879 1481 879 1393 c 0,30,31
 879 1353 879 1353 892 1262 c 2,32,-1
 917 1080 l 1,33,34
 1054 136 1054 136 1162 0 c 1,35,-1
 813 0 l 1,0,1
362 939 m 1,36,37
 401 954 401 954 444 954 c 128,-1,38
 487 954 487 954 521.5 948 c 128,-1,39
 556 942 556 942 590 928 c 0,40,41
 663 900 663 900 712 839 c 1,42,43
 663 1096 663 1096 652 1153 c 2,44,-1
 617 1328 l 1,45,-1
 560 1260 l 2,46,47
 440 1116 440 1116 362 939 c 1,36,37
1127 1992 m 1,48,49
 1030 1848 1030 1848 858 1734 c 0,50,51
 815 1706 815 1706 788 1692 c 1,52,-1
 640 1692 l 1,53,54
 657 1708 657 1708 680 1736 c 2,55,56
 680 1736 680 1736 780 1860 c 1,57,58
 870 1976 870 1976 870 1992 c 1,59,-1
 1127 1992 l 1,48,49
EndSplineSet
EndChar

StartChar: Acircumflex
Encoding: 194 194 151
Width: 1161
GlyphClass: 2
Flags: W
LayerCount: 2
Fore
SplineSet
813 0 m 1,0,1
 826 63 826 63 826 100.5 c 128,-1,2
 826 138 826 138 824.5 157 c 128,-1,3
 823 176 823 176 820.5 197.5 c 128,-1,4
 818 219 818 219 814.5 245.5 c 128,-1,5
 811 272 811 272 808 307 c 0,6,7
 785 546 785 546 645 700 c 0,8,9
 583 768 583 768 511 803.5 c 128,-1,10
 439 839 439 839 392.5 839 c 128,-1,11
 346 839 346 839 321 833 c 1,12,13
 265 665 265 665 265 482 c 0,14,15
 265 320 265 320 282 240 c 0,16,17
 309 120 309 120 365 -1 c 1,18,-1
 66 -1 l 1,19,20
 90 59 90 59 90 251.5 c 128,-1,21
 90 444 90 444 119 611.5 c 128,-1,22
 148 779 148 779 194.5 910 c 128,-1,23
 241 1041 241 1041 298.5 1139.5 c 128,-1,24
 356 1238 356 1238 413.5 1311.5 c 128,-1,25
 471 1385 471 1385 522 1437.5 c 128,-1,26
 573 1490 573 1490 607 1530 c 1,27,-1
 922 1530 l 1,28,29
 879 1481 879 1481 879 1393 c 0,30,31
 879 1353 879 1353 892 1262 c 2,32,-1
 917 1080 l 1,33,34
 1054 136 1054 136 1162 0 c 1,35,-1
 813 0 l 1,0,1
362 939 m 1,36,37
 401 954 401 954 444 954 c 128,-1,38
 487 954 487 954 521.5 948 c 128,-1,39
 556 942 556 942 590 928 c 0,40,41
 663 900 663 900 712 839 c 1,42,43
 663 1096 663 1096 652 1153 c 2,44,-1
 617 1328 l 1,45,-1
 560 1260 l 2,46,47
 440 1116 440 1116 362 939 c 1,36,37
968 1681 m 1,48,49
 844 1736 844 1736 725 1836 c 1,50,51
 596 1731 596 1731 484 1681 c 1,52,-1
 381 1681 l 1,53,54
 399 1698 399 1698 424 1726 c 1,55,56
 543 1868 543 1868 571 1903 c 1,57,-1
 612 1957 l 2,58,59
 627 1976 627 1976 629 1981 c 1,60,-1
 823 1981 l 1,61,62
 825 1976 825 1976 840 1957 c 0,63,64
 1031 1719 1031 1719 1071 1681 c 1,65,-1
 968 1681 l 1,48,49
EndSplineSet
EndChar

StartChar: Atilde
Encoding: 195 195 152
Width: 1161
GlyphClass: 2
Flags: W
LayerCount: 2
Fore
SplineSet
813 0 m 1,0,1
 826 63 826 63 826 100.5 c 128,-1,2
 826 138 826 138 824.5 157 c 128,-1,3
 823 176 823 176 820.5 197.5 c 128,-1,4
 818 219 818 219 814.5 245.5 c 128,-1,5
 811 272 811 272 808 307 c 0,6,7
 785 546 785 546 645 700 c 0,8,9
 583 768 583 768 511 803.5 c 128,-1,10
 439 839 439 839 392.5 839 c 128,-1,11
 346 839 346 839 321 833 c 1,12,13
 265 665 265 665 265 482 c 0,14,15
 265 320 265 320 282 240 c 0,16,17
 309 120 309 120 365 -1 c 1,18,-1
 66 -1 l 1,19,20
 90 59 90 59 90 251.5 c 128,-1,21
 90 444 90 444 119 611.5 c 128,-1,22
 148 779 148 779 194.5 910 c 128,-1,23
 241 1041 241 1041 298.5 1139.5 c 128,-1,24
 356 1238 356 1238 413.5 1311.5 c 128,-1,25
 471 1385 471 1385 522 1437.5 c 128,-1,26
 573 1490 573 1490 607 1530 c 1,27,-1
 922 1530 l 1,28,29
 879 1481 879 1481 879 1393 c 0,30,31
 879 1353 879 1353 892 1262 c 2,32,-1
 917 1080 l 1,33,34
 1054 136 1054 136 1162 0 c 1,35,-1
 813 0 l 1,0,1
362 939 m 1,36,37
 401 954 401 954 444 954 c 128,-1,38
 487 954 487 954 521.5 948 c 128,-1,39
 556 942 556 942 590 928 c 0,40,41
 663 900 663 900 712 839 c 1,42,43
 663 1096 663 1096 652 1153 c 2,44,-1
 617 1328 l 1,45,-1
 560 1260 l 2,46,47
 440 1116 440 1116 362 939 c 1,36,37
353 1775 m 1,48,49
 403 1881 403 1881 474 1938 c 128,-1,50
 545 1995 545 1995 603.5 1995 c 128,-1,51
 662 1995 662 1995 693 1985.5 c 128,-1,52
 724 1976 724 1976 747.5 1961.5 c 128,-1,53
 771 1947 771 1947 789 1930 c 128,-1,54
 807 1913 807 1913 824 1898 c 0,55,56
 863 1865 863 1865 894.5 1865 c 128,-1,57
 926 1865 926 1865 947.5 1874.5 c 128,-1,58
 969 1884 969 1884 986 1899 c 128,-1,59
 1003 1914 1003 1914 1017 1932 c 2,60,-1
 1042 1965 l 1,61,-1
 1102 1905 l 1,62,63
 1053 1808 1053 1808 985 1756.5 c 128,-1,64
 917 1705 917 1705 860 1705 c 128,-1,65
 803 1705 803 1705 772 1714.5 c 128,-1,66
 741 1724 741 1724 717.5 1738.5 c 128,-1,67
 694 1753 694 1753 676 1770 c 128,-1,68
 658 1787 658 1787 641 1802 c 0,69,70
 602 1835 602 1835 570.5 1835 c 128,-1,71
 539 1835 539 1835 517.5 1825.5 c 128,-1,72
 496 1816 496 1816 479 1801 c 128,-1,73
 462 1786 462 1786 449 1768 c 2,74,-1
 423 1735 l 1,75,-1
 353 1775 l 1,48,49
EndSplineSet
EndChar

StartChar: Adieresis
Encoding: 196 196 153
Width: 1161
GlyphClass: 2
Flags: W
LayerCount: 2
Fore
SplineSet
813 0 m 1,0,1
 826 63 826 63 826 100.5 c 128,-1,2
 826 138 826 138 824.5 157 c 128,-1,3
 823 176 823 176 820.5 197.5 c 128,-1,4
 818 219 818 219 814.5 245.5 c 128,-1,5
 811 272 811 272 808 307 c 0,6,7
 785 546 785 546 645 700 c 0,8,9
 583 768 583 768 511 803.5 c 128,-1,10
 439 839 439 839 392.5 839 c 128,-1,11
 346 839 346 839 321 833 c 1,12,13
 265 665 265 665 265 482 c 0,14,15
 265 320 265 320 282 240 c 0,16,17
 309 120 309 120 365 -1 c 1,18,-1
 66 -1 l 1,19,20
 90 59 90 59 90 251.5 c 128,-1,21
 90 444 90 444 119 611.5 c 128,-1,22
 148 779 148 779 194.5 910 c 128,-1,23
 241 1041 241 1041 298.5 1139.5 c 128,-1,24
 356 1238 356 1238 413.5 1311.5 c 128,-1,25
 471 1385 471 1385 522 1437.5 c 128,-1,26
 573 1490 573 1490 607 1530 c 1,27,-1
 922 1530 l 1,28,29
 879 1481 879 1481 879 1393 c 0,30,31
 879 1353 879 1353 892 1262 c 2,32,-1
 917 1080 l 1,33,34
 1054 136 1054 136 1162 0 c 1,35,-1
 813 0 l 1,0,1
362 939 m 1,36,37
 401 954 401 954 444 954 c 128,-1,38
 487 954 487 954 521.5 948 c 128,-1,39
 556 942 556 942 590 928 c 0,40,41
 663 900 663 900 712 839 c 1,42,43
 663 1096 663 1096 652 1153 c 2,44,-1
 617 1328 l 1,45,-1
 560 1260 l 2,46,47
 440 1116 440 1116 362 939 c 1,36,37
575 1677 m 128,-1,49
 550 1658 550 1658 519 1658 c 128,-1,50
 488 1658 488 1658 463.5 1677 c 128,-1,51
 439 1696 439 1696 422 1724 c 0,52,53
 387 1782 387 1782 387 1825.5 c 128,-1,54
 387 1869 387 1869 394 1889 c 128,-1,55
 401 1909 401 1909 417 1925 c 0,56,57
 452 1960 452 1960 504.5 1960 c 128,-1,58
 557 1960 557 1960 582 1950.5 c 128,-1,59
 607 1941 607 1941 623 1925 c 0,60,61
 653 1895 653 1895 653 1856.5 c 128,-1,62
 653 1818 653 1818 643.5 1785 c 128,-1,63
 634 1752 634 1752 617 1724 c 128,-1,48
 600 1696 600 1696 575 1677 c 128,-1,49
987 1677 m 128,-1,65
 962 1658 962 1658 931 1658 c 128,-1,66
 900 1658 900 1658 875.5 1677 c 128,-1,67
 851 1696 851 1696 834 1724 c 0,68,69
 799 1782 799 1782 799 1825.5 c 128,-1,70
 799 1869 799 1869 806 1889 c 128,-1,71
 813 1909 813 1909 829 1925 c 0,72,73
 862 1960 862 1960 915 1960 c 128,-1,74
 968 1960 968 1960 993.5 1950.5 c 128,-1,75
 1019 1941 1019 1941 1035 1925 c 0,76,77
 1065 1895 1065 1895 1065 1856.5 c 128,-1,78
 1065 1818 1065 1818 1055.5 1785 c 128,-1,79
 1046 1752 1046 1752 1029 1724 c 128,-1,64
 1012 1696 1012 1696 987 1677 c 128,-1,65
EndSplineSet
EndChar

StartChar: Aring
Encoding: 197 197 154
Width: 1161
GlyphClass: 2
Flags: W
LayerCount: 2
Fore
SplineSet
813 0 m 1,0,1
 826 63 826 63 826 100.5 c 128,-1,2
 826 138 826 138 824.5 157 c 128,-1,3
 823 176 823 176 820.5 197.5 c 128,-1,4
 818 219 818 219 814.5 245.5 c 128,-1,5
 811 272 811 272 808 307 c 0,6,7
 785 546 785 546 645 700 c 0,8,9
 583 768 583 768 511 803.5 c 128,-1,10
 439 839 439 839 392.5 839 c 128,-1,11
 346 839 346 839 321 833 c 1,12,13
 265 665 265 665 265 482 c 0,14,15
 265 320 265 320 282 240 c 0,16,17
 309 120 309 120 365 -1 c 1,18,-1
 66 -1 l 1,19,20
 90 59 90 59 90 251.5 c 128,-1,21
 90 444 90 444 119 611.5 c 128,-1,22
 148 779 148 779 194.5 910 c 128,-1,23
 241 1041 241 1041 298.5 1139.5 c 128,-1,24
 356 1238 356 1238 413.5 1311.5 c 128,-1,25
 471 1385 471 1385 522 1437.5 c 128,-1,26
 573 1490 573 1490 607 1530 c 1,27,-1
 922 1530 l 1,28,29
 879 1481 879 1481 879 1393 c 0,30,31
 879 1353 879 1353 892 1262 c 2,32,-1
 917 1080 l 1,33,34
 1054 136 1054 136 1162 0 c 1,35,-1
 813 0 l 1,0,1
362 939 m 1,36,37
 401 954 401 954 444 954 c 128,-1,38
 487 954 487 954 521.5 948 c 128,-1,39
 556 942 556 942 590 928 c 0,40,41
 663 900 663 900 712 839 c 1,42,43
 663 1096 663 1096 652 1153 c 2,44,-1
 617 1328 l 1,45,-1
 560 1260 l 2,46,47
 440 1116 440 1116 362 939 c 1,36,37
726 1937 m 256,48,49
 621 1937 621 1937 621 1807 c 0,50,51
 621 1744 621 1744 652 1711.5 c 128,-1,52
 683 1679 683 1679 726 1679 c 256,53,54
 769 1679 769 1679 800 1711.5 c 128,-1,55
 831 1744 831 1744 831 1807 c 0,56,57
 831 1937 831 1937 726 1937 c 256,48,49
988 1807 m 0,58,59
 988 1708 988 1708 909 1650 c 0,60,61
 836 1596 836 1596 726 1596 c 0,62,63
 615 1596 615 1596 542 1650 c 0,64,65
 464 1707 464 1707 464 1807 c 0,66,67
 464 1908 464 1908 542 1966 c 0,68,69
 614 2020 614 2020 726 2020 c 0,70,71
 901 2020 901 2020 966 1899 c 0,72,73
 988 1859 988 1859 988 1807 c 0,58,59
EndSplineSet
EndChar

StartChar: AE
Encoding: 198 198 155
Width: 1691
GlyphClass: 2
Flags: W
LayerCount: 2
Fore
SplineSet
66 0 m 1,0,1
 100 113 100 113 100 236 c 128,-1,2
 100 359 100 359 117.5 471 c 128,-1,3
 135 583 135 583 164 679 c 0,4,5
 245 948 245 948 440 1188 c 0,6,7
 552 1325 552 1325 639.5 1409.5 c 128,-1,8
 727 1494 727 1494 757 1530 c 1,9,-1
 1508 1530 l 1,10,11
 1576 1506 1576 1506 1601 1362 c 0,12,13
 1608 1322 1608 1322 1608 1284 c 0,14,15
 1608 1206 1608 1206 1585 1160 c 1,16,-1
 1532 1268 l 1,17,18
 1477 1374 1477 1374 1376 1410 c 0,19,20
 1320 1430 1320 1430 1250 1430 c 128,-1,21
 1180 1430 1180 1430 1150 1425.5 c 128,-1,22
 1120 1421 1120 1421 1104 1404 c 0,23,24
 1078 1375 1078 1375 1078 1293.5 c 128,-1,25
 1078 1212 1078 1212 1082 1180.5 c 128,-1,26
 1086 1149 1086 1149 1102 1129 c 0,27,28
 1132 1090 1132 1090 1232 1090 c 2,29,-1
 1546 1090 l 1,30,31
 1523 1032 1523 1032 1499 1008 c 0,32,33
 1451 960 1451 960 1369 960 c 0,34,35
 1337 960 1337 960 1308 967 c 0,36,37
 1254 980 1254 980 1213 980 c 128,-1,38
 1172 980 1172 980 1145.5 972.5 c 128,-1,39
 1119 965 1119 965 1104 949 c 0,40,41
 1078 921 1078 921 1078 848 c 2,42,-1
 1078 371 l 2,43,44
 1078 183 1078 183 1099 148 c 128,-1,45
 1120 113 1120 113 1150 106.5 c 128,-1,46
 1180 100 1180 100 1250 100 c 128,-1,47
 1320 100 1320 100 1377 120 c 128,-1,48
 1434 140 1434 140 1472.5 176 c 128,-1,49
 1511 212 1511 212 1536 261.5 c 128,-1,50
 1561 311 1561 311 1585 370 c 1,51,52
 1612 333 1612 333 1612 263 c 128,-1,53
 1612 193 1612 193 1606 151.5 c 128,-1,54
 1600 110 1600 110 1587 76 c 0,55,56
 1557 0 1557 0 1508 0 c 2,57,-1
 803 0 l 1,58,59
 830 73 830 73 830 210 c 128,-1,60
 830 347 830 347 793.5 481.5 c 128,-1,61
 757 616 757 616 700 703 c 128,-1,62
 643 790 643 790 573 831 c 128,-1,63
 503 872 503 872 437 872 c 2,64,-1
 427 872 l 1,65,66
 281 598 281 598 281 373.5 c 128,-1,67
 281 149 281 149 365 0 c 1,68,-1
 66 0 l 1,0,1
831 1359 m 1,69,-1
 759 1292 l 1,70,71
 599 1140 599 1140 482 964 c 1,72,73
 500 967 500 967 537.5 967 c 128,-1,74
 575 967 575 967 622 951.5 c 128,-1,75
 669 936 669 936 708 908 c 0,76,77
 786 854 786 854 831 755 c 1,78,-1
 831 1359 l 1,69,-1
EndSplineSet
EndChar

StartChar: Ccedilla
Encoding: 199 199 156
Width: 1026
GlyphClass: 2
Flags: W
LayerCount: 2
Fore
SplineSet
938 1600 m 1,0,1
 967 1559 967 1559 967 1474.5 c 128,-1,2
 967 1390 967 1390 961.5 1337.5 c 128,-1,3
 956 1285 956 1285 945 1236 c 0,4,5
 921 1126 921 1126 878 1070 c 1,6,7
 841 1263 841 1263 782 1346 c 1,8,9
 720 1430 720 1430 620.5 1430 c 128,-1,10
 521 1430 521 1430 465 1392 c 128,-1,11
 409 1354 409 1354 379 1292 c 0,12,13
 329 1189 329 1189 329 988.5 c 128,-1,14
 329 788 329 788 374.5 621.5 c 128,-1,15
 420 455 420 455 504 335 c 0,16,17
 681 80 681 80 965 80 c 1,18,19
 961 35 961 35 918 2 c 0,20,21
 905 -8 905 -8 890 -10 c 1,22,23
 527 -10 527 -10 298 257 c 0,24,25
 55 541 55 541 55 1031 c 0,26,27
 55 1287 55 1287 205 1416 c 0,28,29
 338 1530 338 1530 569 1530 c 1,30,-1
 736 1528 l 1,31,32
 854 1528 854 1528 902 1562 c 0,33,34
 922 1577 922 1577 938 1600 c 1,0,1
581 57 m 1,35,36
 556 -4 556 -4 556 -107 c 1,37,-1
 597 -132 l 1,38,39
 688 -185 688 -185 688 -270 c 0,40,41
 688 -367 688 -367 609 -432 c 1,42,43
 528 -500 528 -500 398 -500 c 1,44,45
 377 -487 377 -487 364 -468 c 2,46,-1
 347 -442 l 2,47,48
 342 -434 342 -434 338 -430 c 1,49,50
 458 -417 458 -417 508 -324 c 0,51,52
 523 -295 523 -295 523 -260 c 0,53,54
 523 -180 523 -180 421 -144 c 1,55,56
 478 -35 478 -35 493 88 c 1,57,-1
 581 57 l 1,35,36
EndSplineSet
EndChar

StartChar: Egrave
Encoding: 200 200 157
Width: 985
GlyphClass: 2
Flags: W
LayerCount: 2
Fore
SplineSet
910 370 m 1,0,1
 937 333 937 333 937 263 c 128,-1,2
 937 193 937 193 931 151.5 c 128,-1,3
 925 110 925 110 912 76 c 0,4,5
 882 0 882 0 833 0 c 2,6,-1
 23 0 l 1,7,8
 100 41 100 41 125 79 c 0,9,10
 172 150 172 150 172 259 c 0,11,12
 171 526 171 526 171 742 c 2,13,-1
 171 1268 l 2,14,15
 171 1417 171 1417 124 1484 c 0,16,17
 106 1508 106 1508 81 1530 c 1,18,-1
 833 1530 l 1,19,20
 901 1506 901 1506 926 1362 c 0,21,22
 933 1322 933 1322 933 1284 c 0,23,24
 933 1206 933 1206 910 1160 c 1,25,-1
 856 1268 l 2,26,27
 802 1374 802 1374 701 1410 c 0,28,29
 645 1430 645 1430 575 1430 c 128,-1,30
 505 1430 505 1430 475 1425.5 c 128,-1,31
 445 1421 445 1421 429 1404 c 0,32,33
 403 1375 403 1375 403 1293.5 c 128,-1,34
 403 1212 403 1212 407 1180.5 c 128,-1,35
 411 1149 411 1149 426 1129 c 0,36,37
 457 1090 457 1090 557 1090 c 2,38,-1
 871 1090 l 1,39,40
 848 1032 848 1032 824 1008 c 0,41,42
 776 960 776 960 694 960 c 0,43,44
 662 960 662 960 633 967 c 0,45,46
 579 980 579 980 538 980 c 128,-1,47
 497 980 497 980 470.5 972.5 c 128,-1,48
 444 965 444 965 429 949 c 0,49,50
 403 921 403 921 403 848 c 2,51,-1
 403 371 l 2,52,53
 403 183 403 183 424 148 c 128,-1,54
 445 113 445 113 475 106.5 c 128,-1,55
 505 100 505 100 575 100 c 128,-1,56
 645 100 645 100 702 120 c 128,-1,57
 759 140 759 140 797.5 176 c 128,-1,58
 836 212 836 212 861 261.5 c 128,-1,59
 886 311 886 311 910 370 c 1,0,1
463 1993 m 1,60,61
 463 1977 463 1977 521 1902 c 0,62,63
 659 1725 659 1725 693 1693 c 1,64,-1
 545 1693 l 1,65,66
 419 1758 419 1758 291 1890 c 1,67,68
 243 1938 243 1938 206 1993 c 1,69,-1
 463 1993 l 1,60,61
EndSplineSet
EndChar

StartChar: Eacute
Encoding: 201 201 158
Width: 985
GlyphClass: 2
Flags: W
LayerCount: 2
Fore
SplineSet
910 370 m 1,0,1
 937 333 937 333 937 263 c 128,-1,2
 937 193 937 193 931 151.5 c 128,-1,3
 925 110 925 110 912 76 c 0,4,5
 882 0 882 0 833 0 c 2,6,-1
 23 0 l 1,7,8
 100 41 100 41 125 79 c 0,9,10
 172 150 172 150 172 259 c 0,11,12
 171 526 171 526 171 742 c 2,13,-1
 171 1268 l 2,14,15
 171 1417 171 1417 124 1484 c 0,16,17
 106 1508 106 1508 81 1530 c 1,18,-1
 833 1530 l 1,19,20
 901 1506 901 1506 926 1362 c 0,21,22
 933 1322 933 1322 933 1284 c 0,23,24
 933 1206 933 1206 910 1160 c 1,25,-1
 856 1268 l 2,26,27
 802 1374 802 1374 701 1410 c 0,28,29
 645 1430 645 1430 575 1430 c 128,-1,30
 505 1430 505 1430 475 1425.5 c 128,-1,31
 445 1421 445 1421 429 1404 c 0,32,33
 403 1375 403 1375 403 1293.5 c 128,-1,34
 403 1212 403 1212 407 1180.5 c 128,-1,35
 411 1149 411 1149 426 1129 c 0,36,37
 457 1090 457 1090 557 1090 c 2,38,-1
 871 1090 l 1,39,40
 848 1032 848 1032 824 1008 c 0,41,42
 776 960 776 960 694 960 c 0,43,44
 662 960 662 960 633 967 c 0,45,46
 579 980 579 980 538 980 c 128,-1,47
 497 980 497 980 470.5 972.5 c 128,-1,48
 444 965 444 965 429 949 c 0,49,50
 403 921 403 921 403 848 c 2,51,-1
 403 371 l 2,52,53
 403 183 403 183 424 148 c 128,-1,54
 445 113 445 113 475 106.5 c 128,-1,55
 505 100 505 100 575 100 c 128,-1,56
 645 100 645 100 702 120 c 128,-1,57
 759 140 759 140 797.5 176 c 128,-1,58
 836 212 836 212 861 261.5 c 128,-1,59
 886 311 886 311 910 370 c 1,0,1
960 1992 m 1,60,61
 863 1848 863 1848 691 1734 c 0,62,63
 648 1706 648 1706 621 1692 c 1,64,-1
 473 1692 l 1,65,66
 490 1708 490 1708 513 1736 c 2,67,68
 513 1736 513 1736 613 1860 c 1,69,70
 703 1976 703 1976 703 1992 c 1,71,-1
 960 1992 l 1,60,61
EndSplineSet
EndChar

StartChar: Ecircumflex
Encoding: 202 202 159
Width: 985
GlyphClass: 2
Flags: W
LayerCount: 2
Fore
SplineSet
910 370 m 1,0,1
 937 333 937 333 937 263 c 128,-1,2
 937 193 937 193 931 151.5 c 128,-1,3
 925 110 925 110 912 76 c 0,4,5
 882 0 882 0 833 0 c 2,6,-1
 23 0 l 1,7,8
 100 41 100 41 125 79 c 0,9,10
 172 150 172 150 172 259 c 0,11,12
 171 526 171 526 171 742 c 2,13,-1
 171 1268 l 2,14,15
 171 1417 171 1417 124 1484 c 0,16,17
 106 1508 106 1508 81 1530 c 1,18,-1
 833 1530 l 1,19,20
 901 1506 901 1506 926 1362 c 0,21,22
 933 1322 933 1322 933 1284 c 0,23,24
 933 1206 933 1206 910 1160 c 1,25,-1
 856 1268 l 2,26,27
 802 1374 802 1374 701 1410 c 0,28,29
 645 1430 645 1430 575 1430 c 128,-1,30
 505 1430 505 1430 475 1425.5 c 128,-1,31
 445 1421 445 1421 429 1404 c 0,32,33
 403 1375 403 1375 403 1293.5 c 128,-1,34
 403 1212 403 1212 407 1180.5 c 128,-1,35
 411 1149 411 1149 426 1129 c 0,36,37
 457 1090 457 1090 557 1090 c 2,38,-1
 871 1090 l 1,39,40
 848 1032 848 1032 824 1008 c 0,41,42
 776 960 776 960 694 960 c 0,43,44
 662 960 662 960 633 967 c 0,45,46
 579 980 579 980 538 980 c 128,-1,47
 497 980 497 980 470.5 972.5 c 128,-1,48
 444 965 444 965 429 949 c 0,49,50
 403 921 403 921 403 848 c 2,51,-1
 403 371 l 2,52,53
 403 183 403 183 424 148 c 128,-1,54
 445 113 445 113 475 106.5 c 128,-1,55
 505 100 505 100 575 100 c 128,-1,56
 645 100 645 100 702 120 c 128,-1,57
 759 140 759 140 797.5 176 c 128,-1,58
 836 212 836 212 861 261.5 c 128,-1,59
 886 311 886 311 910 370 c 1,0,1
801 1681 m 1,60,61
 677 1736 677 1736 558 1836 c 1,62,63
 429 1731 429 1731 317 1681 c 1,64,-1
 214 1681 l 1,65,66
 232 1698 232 1698 257 1726 c 1,67,68
 376 1868 376 1868 404 1903 c 1,69,-1
 445 1957 l 2,70,71
 460 1976 460 1976 462 1981 c 1,72,-1
 656 1981 l 1,73,74
 658 1976 658 1976 673 1957 c 0,75,76
 864 1719 864 1719 904 1681 c 1,77,-1
 801 1681 l 1,60,61
EndSplineSet
EndChar

StartChar: Edieresis
Encoding: 203 203 160
Width: 985
GlyphClass: 2
Flags: W
LayerCount: 2
Fore
SplineSet
910 370 m 1,0,1
 937 333 937 333 937 263 c 128,-1,2
 937 193 937 193 931 151.5 c 128,-1,3
 925 110 925 110 912 76 c 0,4,5
 882 0 882 0 833 0 c 2,6,-1
 23 0 l 1,7,8
 100 41 100 41 125 79 c 0,9,10
 172 150 172 150 172 259 c 0,11,12
 171 526 171 526 171 742 c 2,13,-1
 171 1268 l 2,14,15
 171 1417 171 1417 124 1484 c 0,16,17
 106 1508 106 1508 81 1530 c 1,18,-1
 833 1530 l 1,19,20
 901 1506 901 1506 926 1362 c 0,21,22
 933 1322 933 1322 933 1284 c 0,23,24
 933 1206 933 1206 910 1160 c 1,25,-1
 856 1268 l 2,26,27
 802 1374 802 1374 701 1410 c 0,28,29
 645 1430 645 1430 575 1430 c 128,-1,30
 505 1430 505 1430 475 1425.5 c 128,-1,31
 445 1421 445 1421 429 1404 c 0,32,33
 403 1375 403 1375 403 1293.5 c 128,-1,34
 403 1212 403 1212 407 1180.5 c 128,-1,35
 411 1149 411 1149 426 1129 c 0,36,37
 457 1090 457 1090 557 1090 c 2,38,-1
 871 1090 l 1,39,40
 848 1032 848 1032 824 1008 c 0,41,42
 776 960 776 960 694 960 c 0,43,44
 662 960 662 960 633 967 c 0,45,46
 579 980 579 980 538 980 c 128,-1,47
 497 980 497 980 470.5 972.5 c 128,-1,48
 444 965 444 965 429 949 c 0,49,50
 403 921 403 921 403 848 c 2,51,-1
 403 371 l 2,52,53
 403 183 403 183 424 148 c 128,-1,54
 445 113 445 113 475 106.5 c 128,-1,55
 505 100 505 100 575 100 c 128,-1,56
 645 100 645 100 702 120 c 128,-1,57
 759 140 759 140 797.5 176 c 128,-1,58
 836 212 836 212 861 261.5 c 128,-1,59
 886 311 886 311 910 370 c 1,0,1
408 1677 m 128,-1,61
 383 1658 383 1658 352 1658 c 128,-1,62
 321 1658 321 1658 296.5 1677 c 128,-1,63
 272 1696 272 1696 255 1724 c 0,64,65
 220 1782 220 1782 220 1825.5 c 128,-1,66
 220 1869 220 1869 227 1889 c 128,-1,67
 234 1909 234 1909 250 1925 c 0,68,69
 285 1960 285 1960 337.5 1960 c 128,-1,70
 390 1960 390 1960 415 1950.5 c 128,-1,71
 440 1941 440 1941 456 1925 c 0,72,73
 486 1895 486 1895 486 1856.5 c 128,-1,74
 486 1818 486 1818 476.5 1785 c 128,-1,75
 467 1752 467 1752 450 1724 c 128,-1,60
 433 1696 433 1696 408 1677 c 128,-1,61
820 1677 m 128,-1,77
 795 1658 795 1658 764 1658 c 128,-1,78
 733 1658 733 1658 708.5 1677 c 128,-1,79
 684 1696 684 1696 667 1724 c 0,80,81
 632 1782 632 1782 632 1825.5 c 128,-1,82
 632 1869 632 1869 639 1889 c 128,-1,83
 646 1909 646 1909 662 1925 c 0,84,85
 695 1960 695 1960 748 1960 c 128,-1,86
 801 1960 801 1960 826.5 1950.5 c 128,-1,87
 852 1941 852 1941 868 1925 c 0,88,89
 898 1895 898 1895 898 1856.5 c 128,-1,90
 898 1818 898 1818 888.5 1785 c 128,-1,91
 879 1752 879 1752 862 1724 c 128,-1,76
 845 1696 845 1696 820 1677 c 128,-1,77
EndSplineSet
EndChar

StartChar: Igrave
Encoding: 204 204 161
Width: 666
GlyphClass: 2
Flags: W
LayerCount: 2
Fore
SplineSet
507 1530 m 1,0,1
 470 1437 470 1437 464 1343.5 c 128,-1,2
 458 1250 458 1250 455 1183 c 128,-1,3
 452 1116 452 1116 450 1044 c 0,4,5
 447 876 447 876 447 738 c 0,6,7
 447 172 447 172 489 44 c 0,8,9
 496 22 496 22 507 0 c 1,10,-1
 162 0 l 1,11,12
 193 68 193 68 199 123 c 128,-1,13
 205 178 205 178 210 254 c 0,14,15
 222 411 222 411 222 616 c 128,-1,16
 222 821 222 821 221 896.5 c 128,-1,17
 220 972 220 972 218 1044 c 0,18,19
 211 1395 211 1395 176 1490 c 1,20,-1
 162 1530 l 1,21,-1
 507 1530 l 1,0,1
245 1993 m 1,22,23
 245 1977 245 1977 303 1902 c 0,24,25
 441 1725 441 1725 475 1693 c 1,26,-1
 327 1693 l 1,27,28
 201 1758 201 1758 73 1890 c 1,29,30
 25 1938 25 1938 -12 1993 c 1,31,-1
 245 1993 l 1,22,23
EndSplineSet
EndChar

StartChar: Iacute
Encoding: 205 205 162
Width: 666
GlyphClass: 2
Flags: W
LayerCount: 2
Fore
SplineSet
507 1530 m 1,0,1
 470 1437 470 1437 464 1343.5 c 128,-1,2
 458 1250 458 1250 455 1183 c 128,-1,3
 452 1116 452 1116 450 1044 c 0,4,5
 447 876 447 876 447 738 c 0,6,7
 447 172 447 172 489 44 c 0,8,9
 496 22 496 22 507 0 c 1,10,-1
 162 0 l 1,11,12
 193 68 193 68 199 123 c 128,-1,13
 205 178 205 178 210 254 c 0,14,15
 222 411 222 411 222 616 c 128,-1,16
 222 821 222 821 221 896.5 c 128,-1,17
 220 972 220 972 218 1044 c 0,18,19
 211 1395 211 1395 176 1490 c 1,20,-1
 162 1530 l 1,21,-1
 507 1530 l 1,0,1
741 1992 m 1,22,23
 644 1848 644 1848 472 1734 c 0,24,25
 429 1706 429 1706 402 1692 c 1,26,-1
 254 1692 l 1,27,28
 271 1708 271 1708 294 1736 c 2,29,30
 294 1736 294 1736 394 1860 c 1,31,32
 484 1976 484 1976 484 1992 c 1,33,-1
 741 1992 l 1,22,23
EndSplineSet
EndChar

StartChar: Icircumflex
Encoding: 206 206 163
Width: 666
GlyphClass: 2
Flags: W
LayerCount: 2
Fore
SplineSet
507 1530 m 1,0,1
 470 1437 470 1437 464 1343.5 c 128,-1,2
 458 1250 458 1250 455 1183 c 128,-1,3
 452 1116 452 1116 450 1044 c 0,4,5
 447 876 447 876 447 738 c 0,6,7
 447 172 447 172 489 44 c 0,8,9
 496 22 496 22 507 0 c 1,10,-1
 162 0 l 1,11,12
 193 68 193 68 199 123 c 128,-1,13
 205 178 205 178 210 254 c 0,14,15
 222 411 222 411 222 616 c 128,-1,16
 222 821 222 821 221 896.5 c 128,-1,17
 220 972 220 972 218 1044 c 0,18,19
 211 1395 211 1395 176 1490 c 1,20,-1
 162 1530 l 1,21,-1
 507 1530 l 1,0,1
583 1681 m 1,22,23
 459 1736 459 1736 340 1836 c 1,24,25
 211 1731 211 1731 99 1681 c 1,26,-1
 -4 1681 l 1,27,28
 14 1698 14 1698 39 1726 c 1,29,30
 158 1868 158 1868 186 1903 c 1,31,-1
 227 1957 l 2,32,33
 242 1976 242 1976 244 1981 c 1,34,-1
 438 1981 l 1,35,36
 440 1976 440 1976 455 1957 c 0,37,38
 646 1719 646 1719 686 1681 c 1,39,-1
 583 1681 l 1,22,23
EndSplineSet
EndChar

StartChar: Idieresis
Encoding: 207 207 164
Width: 666
GlyphClass: 2
Flags: W
LayerCount: 2
Fore
SplineSet
507 1530 m 1,0,1
 470 1437 470 1437 464 1343.5 c 128,-1,2
 458 1250 458 1250 455 1183 c 128,-1,3
 452 1116 452 1116 450 1044 c 0,4,5
 447 876 447 876 447 738 c 0,6,7
 447 172 447 172 489 44 c 0,8,9
 496 22 496 22 507 0 c 1,10,-1
 162 0 l 1,11,12
 193 68 193 68 199 123 c 128,-1,13
 205 178 205 178 210 254 c 0,14,15
 222 411 222 411 222 616 c 128,-1,16
 222 821 222 821 221 896.5 c 128,-1,17
 220 972 220 972 218 1044 c 0,18,19
 211 1395 211 1395 176 1490 c 1,20,-1
 162 1530 l 1,21,-1
 507 1530 l 1,0,1
190 1677 m 128,-1,23
 165 1658 165 1658 134 1658 c 128,-1,24
 103 1658 103 1658 78.5 1677 c 128,-1,25
 54 1696 54 1696 37 1724 c 0,26,27
 2 1782 2 1782 2 1825.5 c 128,-1,28
 2 1869 2 1869 9 1889 c 128,-1,29
 16 1909 16 1909 32 1925 c 0,30,31
 67 1960 67 1960 119.5 1960 c 128,-1,32
 172 1960 172 1960 197 1950.5 c 128,-1,33
 222 1941 222 1941 238 1925 c 0,34,35
 268 1895 268 1895 268 1856.5 c 128,-1,36
 268 1818 268 1818 258.5 1785 c 128,-1,37
 249 1752 249 1752 232 1724 c 128,-1,22
 215 1696 215 1696 190 1677 c 128,-1,23
602 1677 m 128,-1,39
 577 1658 577 1658 546 1658 c 128,-1,40
 515 1658 515 1658 490.5 1677 c 128,-1,41
 466 1696 466 1696 449 1724 c 0,42,43
 414 1782 414 1782 414 1825.5 c 128,-1,44
 414 1869 414 1869 421 1889 c 128,-1,45
 428 1909 428 1909 444 1925 c 0,46,47
 477 1960 477 1960 530 1960 c 128,-1,48
 583 1960 583 1960 608.5 1950.5 c 128,-1,49
 634 1941 634 1941 650 1925 c 0,50,51
 680 1895 680 1895 680 1856.5 c 128,-1,52
 680 1818 680 1818 670.5 1785 c 128,-1,53
 661 1752 661 1752 644 1724 c 128,-1,38
 627 1696 627 1696 602 1677 c 128,-1,39
EndSplineSet
EndChar

StartChar: Eth
Encoding: 208 208 165
Width: 1225
GlyphClass: 2
Flags: W
LayerCount: 2
Fore
SplineSet
194 965 m 1,0,1
 95 960 95 960 51 938 c 1,2,-1
 51 1113 l 1,3,4
 93 1095 93 1095 189 1088 c 1,5,-1
 182 1268 l 2,6,7
 178 1372 178 1372 164 1413 c 0,8,9
 142 1478 142 1478 92 1530 c 1,10,-1
 641 1530 l 2,11,12
 983 1530 983 1530 1088 1261 c 0,13,14
 1125 1166 1125 1166 1125 1031 c 0,15,16
 1125 276 1125 276 613 69 c 0,17,18
 440 -1 440 -1 206 -1 c 0,19,20
 191 -1 191 -1 176 -1 c 128,-1,21
 161 -1 161 -1 146 0 c 1,22,23
 178 76 178 76 183.5 127 c 128,-1,24
 189 178 189 178 193 237 c 0,25,26
 201 355 201 355 201 543.5 c 128,-1,27
 201 732 201 732 194 965 c 1,0,1
424 965 m 1,28,-1
 425 265 l 2,29,30
 426 208 426 208 438 179 c 128,-1,31
 450 150 450 150 488 150 c 0,32,33
 666 150 666 150 764 376 c 1,34,35
 861 596 861 596 861 986 c 0,36,37
 861 1191 861 1191 813 1297 c 0,38,39
 748 1440 748 1440 587 1440 c 0,40,41
 484 1440 484 1440 460.5 1416 c 128,-1,42
 437 1392 437 1392 430.5 1356.5 c 128,-1,43
 424 1321 424 1321 424 1261 c 2,44,-1
 424 1086 l 1,45,46
 619 1091 619 1091 703 1113 c 1,47,-1
 703 938 l 1,48,49
 615 960 615 960 424 965 c 1,28,-1
EndSplineSet
EndChar

StartChar: Ntilde
Encoding: 209 209 166
Width: 1265
GlyphClass: 2
Flags: W
LayerCount: 2
Fore
SplineSet
359 1089 m 1,0,1
 357 985 357 985 357 852 c 0,2,3
 357 663 357 663 364 419.5 c 128,-1,4
 371 176 371 176 375 142.5 c 128,-1,5
 379 109 379 109 385 84 c 0,6,7
 395 43 395 43 416 0 c 1,8,-1
 148 0 l 1,9,10
 178 61 178 61 184.5 119.5 c 128,-1,11
 191 178 191 178 195 236 c 0,12,13
 203 354 203 354 203 553 c 0,14,15
 203 794 203 794 195 993 c 2,16,-1
 184 1268 l 2,17,18
 178 1420 178 1420 136 1484 c 1,19,20
 119 1508 119 1508 94 1530 c 1,21,-1
 405 1530 l 1,22,23
 464 1394 464 1394 530 1260 c 1,24,-1
 666 994 l 1,25,-1
 958 457 l 1,26,27
 959 520 959 520 959 592 c 2,28,-1
 959 748 l 2,29,30
 959 1248 959 1248 898 1470 c 0,31,32
 886 1511 886 1511 872 1530 c 1,33,-1
 1173 1531 l 1,34,35
 1123 1431 1123 1431 1110 968 c 0,36,37
 1108 896 1108 896 1108 830 c 2,38,-1
 1109 746 l 1,39,-1
 1109 338 l 2,40,41
 1109 79 1109 79 1113 0 c 1,42,-1
 951 0 l 1,43,-1
 661 540 l 1,44,-1
 359 1089 l 1,0,1
307 1775 m 1,45,46
 357 1881 357 1881 428 1938 c 128,-1,47
 499 1995 499 1995 557.5 1995 c 128,-1,48
 616 1995 616 1995 647 1985.5 c 128,-1,49
 678 1976 678 1976 701.5 1961.5 c 128,-1,50
 725 1947 725 1947 743 1930 c 128,-1,51
 761 1913 761 1913 778 1898 c 0,52,53
 817 1865 817 1865 848.5 1865 c 128,-1,54
 880 1865 880 1865 901.5 1874.5 c 128,-1,55
 923 1884 923 1884 940 1899 c 128,-1,56
 957 1914 957 1914 971 1932 c 2,57,-1
 996 1965 l 1,58,-1
 1056 1905 l 1,59,60
 1007 1808 1007 1808 939 1756.5 c 128,-1,61
 871 1705 871 1705 814 1705 c 128,-1,62
 757 1705 757 1705 726 1714.5 c 128,-1,63
 695 1724 695 1724 671.5 1738.5 c 128,-1,64
 648 1753 648 1753 630 1770 c 128,-1,65
 612 1787 612 1787 595 1802 c 0,66,67
 556 1835 556 1835 524.5 1835 c 128,-1,68
 493 1835 493 1835 471.5 1825.5 c 128,-1,69
 450 1816 450 1816 433 1801 c 128,-1,70
 416 1786 416 1786 403 1768 c 2,71,-1
 377 1735 l 1,72,-1
 307 1775 l 1,45,46
EndSplineSet
EndChar

StartChar: Ograve
Encoding: 210 210 167
Width: 1318
GlyphClass: 2
Flags: W
LayerCount: 2
Fore
SplineSet
661 80 m 0,0,1
 853 80 853 80 909 548 c 0,2,3
 928 706 928 706 928 920 c 0,4,5
 928 1450 928 1450 659 1450 c 256,6,7
 390 1450 390 1450 390 920 c 0,8,9
 390 295 390 295 551 131 c 0,10,11
 601 80 601 80 661 80 c 0,0,1
659 -20 m 256,12,13
 393 -20 393 -20 258 230 c 0,14,15
 128 471 128 471 128 920 c 0,16,17
 128 1387 128 1387 415 1508 c 0,18,19
 516 1550 516 1550 659 1550 c 0,20,21
 1069 1550 1069 1550 1160 1186 c 0,22,23
 1190 1069 1190 1069 1190 885 c 128,-1,24
 1190 701 1190 701 1158 526.5 c 128,-1,25
 1126 352 1126 352 1060 230 c 0,26,27
 925 -20 925 -20 659 -20 c 256,12,13
584 1993 m 1,28,29
 584 1977 584 1977 642 1902 c 0,30,31
 780 1725 780 1725 814 1693 c 1,32,-1
 666 1693 l 1,33,34
 540 1758 540 1758 412 1890 c 1,35,36
 364 1938 364 1938 327 1993 c 1,37,-1
 584 1993 l 1,28,29
EndSplineSet
EndChar

StartChar: Oacute
Encoding: 211 211 168
Width: 1318
GlyphClass: 2
Flags: W
LayerCount: 2
Fore
SplineSet
661 80 m 0,0,1
 853 80 853 80 909 548 c 0,2,3
 928 706 928 706 928 920 c 0,4,5
 928 1450 928 1450 659 1450 c 256,6,7
 390 1450 390 1450 390 920 c 0,8,9
 390 295 390 295 551 131 c 0,10,11
 601 80 601 80 661 80 c 0,0,1
659 -20 m 256,12,13
 393 -20 393 -20 258 230 c 0,14,15
 128 471 128 471 128 920 c 0,16,17
 128 1387 128 1387 415 1508 c 0,18,19
 516 1550 516 1550 659 1550 c 0,20,21
 1069 1550 1069 1550 1160 1186 c 0,22,23
 1190 1069 1190 1069 1190 885 c 128,-1,24
 1190 701 1190 701 1158 526.5 c 128,-1,25
 1126 352 1126 352 1060 230 c 0,26,27
 925 -20 925 -20 659 -20 c 256,12,13
1081 1992 m 1,28,29
 984 1848 984 1848 812 1734 c 0,30,31
 769 1706 769 1706 742 1692 c 1,32,-1
 594 1692 l 1,33,34
 611 1708 611 1708 634 1736 c 2,35,36
 634 1736 634 1736 734 1860 c 1,37,38
 824 1976 824 1976 824 1992 c 1,39,-1
 1081 1992 l 1,28,29
EndSplineSet
EndChar

StartChar: Ocircumflex
Encoding: 212 212 169
Width: 1318
GlyphClass: 2
Flags: W
LayerCount: 2
Fore
SplineSet
661 80 m 0,0,1
 853 80 853 80 909 548 c 0,2,3
 928 706 928 706 928 920 c 0,4,5
 928 1450 928 1450 659 1450 c 256,6,7
 390 1450 390 1450 390 920 c 0,8,9
 390 295 390 295 551 131 c 0,10,11
 601 80 601 80 661 80 c 0,0,1
659 -20 m 256,12,13
 393 -20 393 -20 258 230 c 0,14,15
 128 471 128 471 128 920 c 0,16,17
 128 1387 128 1387 415 1508 c 0,18,19
 516 1550 516 1550 659 1550 c 0,20,21
 1069 1550 1069 1550 1160 1186 c 0,22,23
 1190 1069 1190 1069 1190 885 c 128,-1,24
 1190 701 1190 701 1158 526.5 c 128,-1,25
 1126 352 1126 352 1060 230 c 0,26,27
 925 -20 925 -20 659 -20 c 256,12,13
922 1681 m 1,28,29
 798 1736 798 1736 679 1836 c 1,30,31
 550 1731 550 1731 438 1681 c 1,32,-1
 335 1681 l 1,33,34
 353 1698 353 1698 378 1726 c 1,35,36
 497 1868 497 1868 525 1903 c 1,37,-1
 566 1957 l 2,38,39
 581 1976 581 1976 583 1981 c 1,40,-1
 777 1981 l 1,41,42
 779 1976 779 1976 794 1957 c 0,43,44
 985 1719 985 1719 1025 1681 c 1,45,-1
 922 1681 l 1,28,29
EndSplineSet
EndChar

StartChar: Otilde
Encoding: 213 213 170
Width: 1318
GlyphClass: 2
Flags: W
LayerCount: 2
Fore
SplineSet
661 80 m 0,0,1
 853 80 853 80 909 548 c 0,2,3
 928 706 928 706 928 920 c 0,4,5
 928 1450 928 1450 659 1450 c 256,6,7
 390 1450 390 1450 390 920 c 0,8,9
 390 295 390 295 551 131 c 0,10,11
 601 80 601 80 661 80 c 0,0,1
659 -20 m 256,12,13
 393 -20 393 -20 258 230 c 0,14,15
 128 471 128 471 128 920 c 0,16,17
 128 1387 128 1387 415 1508 c 0,18,19
 516 1550 516 1550 659 1550 c 0,20,21
 1069 1550 1069 1550 1160 1186 c 0,22,23
 1190 1069 1190 1069 1190 885 c 128,-1,24
 1190 701 1190 701 1158 526.5 c 128,-1,25
 1126 352 1126 352 1060 230 c 0,26,27
 925 -20 925 -20 659 -20 c 256,12,13
307 1775 m 1,28,29
 357 1881 357 1881 428 1938 c 128,-1,30
 499 1995 499 1995 557.5 1995 c 128,-1,31
 616 1995 616 1995 647 1985.5 c 128,-1,32
 678 1976 678 1976 701.5 1961.5 c 128,-1,33
 725 1947 725 1947 743 1930 c 128,-1,34
 761 1913 761 1913 778 1898 c 0,35,36
 817 1865 817 1865 848.5 1865 c 128,-1,37
 880 1865 880 1865 901.5 1874.5 c 128,-1,38
 923 1884 923 1884 940 1899 c 128,-1,39
 957 1914 957 1914 971 1932 c 2,40,-1
 996 1965 l 1,41,-1
 1056 1905 l 1,42,43
 1007 1808 1007 1808 939 1756.5 c 128,-1,44
 871 1705 871 1705 814 1705 c 128,-1,45
 757 1705 757 1705 726 1714.5 c 128,-1,46
 695 1724 695 1724 671.5 1738.5 c 128,-1,47
 648 1753 648 1753 630 1770 c 128,-1,48
 612 1787 612 1787 595 1802 c 0,49,50
 556 1835 556 1835 524.5 1835 c 128,-1,51
 493 1835 493 1835 471.5 1825.5 c 128,-1,52
 450 1816 450 1816 433 1801 c 128,-1,53
 416 1786 416 1786 403 1768 c 2,54,-1
 377 1735 l 1,55,-1
 307 1775 l 1,28,29
EndSplineSet
EndChar

StartChar: Odieresis
Encoding: 214 214 171
Width: 1318
GlyphClass: 2
Flags: W
LayerCount: 2
Fore
SplineSet
661 80 m 0,0,1
 853 80 853 80 909 548 c 0,2,3
 928 706 928 706 928 920 c 0,4,5
 928 1450 928 1450 659 1450 c 256,6,7
 390 1450 390 1450 390 920 c 0,8,9
 390 295 390 295 551 131 c 0,10,11
 601 80 601 80 661 80 c 0,0,1
659 -20 m 256,12,13
 393 -20 393 -20 258 230 c 0,14,15
 128 471 128 471 128 920 c 0,16,17
 128 1387 128 1387 415 1508 c 0,18,19
 516 1550 516 1550 659 1550 c 0,20,21
 1069 1550 1069 1550 1160 1186 c 0,22,23
 1190 1069 1190 1069 1190 885 c 128,-1,24
 1190 701 1190 701 1158 526.5 c 128,-1,25
 1126 352 1126 352 1060 230 c 0,26,27
 925 -20 925 -20 659 -20 c 256,12,13
529 1677 m 128,-1,29
 504 1658 504 1658 473 1658 c 128,-1,30
 442 1658 442 1658 417.5 1677 c 128,-1,31
 393 1696 393 1696 376 1724 c 0,32,33
 341 1782 341 1782 341 1825.5 c 128,-1,34
 341 1869 341 1869 348 1889 c 128,-1,35
 355 1909 355 1909 371 1925 c 0,36,37
 406 1960 406 1960 458.5 1960 c 128,-1,38
 511 1960 511 1960 536 1950.5 c 128,-1,39
 561 1941 561 1941 577 1925 c 0,40,41
 607 1895 607 1895 607 1856.5 c 128,-1,42
 607 1818 607 1818 597.5 1785 c 128,-1,43
 588 1752 588 1752 571 1724 c 128,-1,28
 554 1696 554 1696 529 1677 c 128,-1,29
941 1677 m 128,-1,45
 916 1658 916 1658 885 1658 c 128,-1,46
 854 1658 854 1658 829.5 1677 c 128,-1,47
 805 1696 805 1696 788 1724 c 0,48,49
 753 1782 753 1782 753 1825.5 c 128,-1,50
 753 1869 753 1869 760 1889 c 128,-1,51
 767 1909 767 1909 783 1925 c 0,52,53
 816 1960 816 1960 869 1960 c 128,-1,54
 922 1960 922 1960 947.5 1950.5 c 128,-1,55
 973 1941 973 1941 989 1925 c 0,56,57
 1019 1895 1019 1895 1019 1856.5 c 128,-1,58
 1019 1818 1019 1818 1009.5 1785 c 128,-1,59
 1000 1752 1000 1752 983 1724 c 128,-1,44
 966 1696 966 1696 941 1677 c 128,-1,45
EndSplineSet
EndChar

StartChar: multiply
Encoding: 215 215 172
Width: 1124
GlyphClass: 2
Flags: W
LayerCount: 2
Fore
SplineSet
855 1034 m 1,0,-1
 1003 886 l 1,1,2
 968 864 968 864 927 830 c 0,3,4
 816 736 816 736 764 685 c 2,5,-1
 670 595 l 1,6,7
 842 427 842 427 903.5 377.5 c 128,-1,8
 965 328 965 328 1003 304 c 1,9,-1
 855 156 l 1,10,11
 810 223 810 223 748 291 c 2,12,-1
 646 403 l 1,13,-1
 564 488 l 1,14,-1
 481 404 l 1,15,16
 341 260 341 260 273 156 c 1,17,-1
 125 304 l 1,18,19
 162 328 162 328 202 362 c 0,20,21
 318 461 318 461 367 507 c 1,22,-1
 457 595 l 1,23,24
 335 713 335 713 288 755 c 1,25,-1
 200 830 l 2,26,27
 159 864 159 864 125 886 c 1,28,-1
 273 1034 l 1,29,30
 313 971 313 971 376 900 c 1,31,32
 504 761 504 761 564 701 c 1,33,34
 798 944 798 944 855 1034 c 1,0,-1
EndSplineSet
EndChar

StartChar: Oslash
Encoding: 216 216 173
Width: 1318
GlyphClass: 2
Flags: W
LayerCount: 2
Fore
SplineSet
1111 1316 m 1,0,1
 1190 1168 1190 1168 1190 934.5 c 128,-1,2
 1190 701 1190 701 1158 526.5 c 128,-1,3
 1126 352 1126 352 1060 230 c 0,4,5
 925 -20 925 -20 659 -20 c 0,6,7
 448 -20 448 -20 317 140 c 1,8,9
 273 59 273 59 256 -20 c 1,10,-1
 87 108 l 1,11,12
 99 118 99 118 118 131.5 c 128,-1,13
 137 145 137 145 159 163 c 2,14,-1
 204 202 l 2,15,16
 228 223 228 223 249 248 c 1,17,18
 128 484 128 484 128 920 c 0,19,20
 128 1387 128 1387 415 1508 c 0,21,22
 516 1550 516 1550 659 1550 c 0,23,24
 907 1550 907 1550 1037 1418 c 1,25,26
 1082 1500 1082 1500 1098 1577 c 1,27,-1
 1267 1449 l 1,28,-1
 1198 1396 l 2,29,30
 1145 1355 1145 1355 1111 1316 c 1,0,1
661 80 m 0,31,32
 853 80 853 80 909 548 c 0,33,34
 928 706 928 706 928 920 c 0,35,36
 928 1450 928 1450 659 1450 c 256,37,38
 390 1450 390 1450 390 920 c 0,39,40
 390 295 390 295 551 131 c 0,41,42
 601 80 601 80 661 80 c 0,31,32
EndSplineSet
EndChar

StartChar: Ugrave
Encoding: 217 217 174
Width: 1199
GlyphClass: 2
Flags: W
LayerCount: 2
Fore
SplineSet
903 513 m 1,0,-1
 908 897 l 1,1,2
 908 1300 908 1300 878 1412 c 0,3,4
 864 1466 864 1466 844.5 1491 c 128,-1,5
 825 1516 825 1516 813 1530 c 1,6,-1
 1141 1530 l 1,7,-1
 1120 1502 l 1,8,9
 1075 1436 1075 1436 1070 1353 c 128,-1,10
 1065 1270 1065 1270 1062.5 1185 c 128,-1,11
 1060 1100 1060 1100 1058 1016 c 0,12,13
 1056 875 1056 875 1056 701 c 2,14,-1
 1056 579 l 2,15,16
 1056 256 1056 256 952 116 c 1,17,18
 849 -20 849 -20 616 -20 c 0,19,20
 165 -20 165 -20 167 559 c 1,21,-1
 168 1308 l 2,22,23
 168 1466 168 1466 112 1530 c 1,24,-1
 491 1530 l 1,25,26
 432 1459 432 1459 432 1328 c 0,27,28
 432 1252 432 1252 431 1172 c 2,29,-1
 427 852 l 2,30,31
 426 773 426 773 426 689 c 0,32,33
 426 388 426 388 444 307.5 c 128,-1,34
 462 227 462 227 488 182 c 0,35,36
 548 80 548 80 666 80 c 0,37,38
 848 80 848 80 890 346 c 0,39,40
 903 425 903 425 903 513 c 1,0,-1
542 1993 m 1,41,42
 542 1977 542 1977 600 1902 c 0,43,44
 738 1725 738 1725 772 1693 c 1,45,-1
 624 1693 l 1,46,47
 498 1758 498 1758 370 1890 c 1,48,49
 322 1938 322 1938 285 1993 c 1,50,-1
 542 1993 l 1,41,42
EndSplineSet
EndChar

StartChar: Uacute
Encoding: 218 218 175
Width: 1199
GlyphClass: 2
Flags: W
LayerCount: 2
Fore
SplineSet
903 513 m 1,0,-1
 908 897 l 1,1,2
 908 1300 908 1300 878 1412 c 0,3,4
 864 1466 864 1466 844.5 1491 c 128,-1,5
 825 1516 825 1516 813 1530 c 1,6,-1
 1141 1530 l 1,7,-1
 1120 1502 l 1,8,9
 1075 1436 1075 1436 1070 1353 c 128,-1,10
 1065 1270 1065 1270 1062.5 1185 c 128,-1,11
 1060 1100 1060 1100 1058 1016 c 0,12,13
 1056 875 1056 875 1056 701 c 2,14,-1
 1056 579 l 2,15,16
 1056 256 1056 256 952 116 c 1,17,18
 849 -20 849 -20 616 -20 c 0,19,20
 165 -20 165 -20 167 559 c 1,21,-1
 168 1308 l 2,22,23
 168 1466 168 1466 112 1530 c 1,24,-1
 491 1530 l 1,25,26
 432 1459 432 1459 432 1328 c 0,27,28
 432 1252 432 1252 431 1172 c 2,29,-1
 427 852 l 2,30,31
 426 773 426 773 426 689 c 0,32,33
 426 388 426 388 444 307.5 c 128,-1,34
 462 227 462 227 488 182 c 0,35,36
 548 80 548 80 666 80 c 0,37,38
 848 80 848 80 890 346 c 0,39,40
 903 425 903 425 903 513 c 1,0,-1
1039 1992 m 1,41,42
 942 1848 942 1848 770 1734 c 0,43,44
 727 1706 727 1706 700 1692 c 1,45,-1
 552 1692 l 1,46,47
 569 1708 569 1708 592 1736 c 2,48,49
 592 1736 592 1736 692 1860 c 1,50,51
 782 1976 782 1976 782 1992 c 1,52,-1
 1039 1992 l 1,41,42
EndSplineSet
EndChar

StartChar: Ucircumflex
Encoding: 219 219 176
Width: 1199
GlyphClass: 2
Flags: W
LayerCount: 2
Fore
SplineSet
903 513 m 1,0,-1
 908 897 l 1,1,2
 908 1300 908 1300 878 1412 c 0,3,4
 864 1466 864 1466 844.5 1491 c 128,-1,5
 825 1516 825 1516 813 1530 c 1,6,-1
 1141 1530 l 1,7,-1
 1120 1502 l 1,8,9
 1075 1436 1075 1436 1070 1353 c 128,-1,10
 1065 1270 1065 1270 1062.5 1185 c 128,-1,11
 1060 1100 1060 1100 1058 1016 c 0,12,13
 1056 875 1056 875 1056 701 c 2,14,-1
 1056 579 l 2,15,16
 1056 256 1056 256 952 116 c 1,17,18
 849 -20 849 -20 616 -20 c 0,19,20
 165 -20 165 -20 167 559 c 1,21,-1
 168 1308 l 2,22,23
 168 1466 168 1466 112 1530 c 1,24,-1
 491 1530 l 1,25,26
 432 1459 432 1459 432 1328 c 0,27,28
 432 1252 432 1252 431 1172 c 2,29,-1
 427 852 l 2,30,31
 426 773 426 773 426 689 c 0,32,33
 426 388 426 388 444 307.5 c 128,-1,34
 462 227 462 227 488 182 c 0,35,36
 548 80 548 80 666 80 c 0,37,38
 848 80 848 80 890 346 c 0,39,40
 903 425 903 425 903 513 c 1,0,-1
880 1681 m 1,41,42
 756 1736 756 1736 637 1836 c 1,43,44
 508 1731 508 1731 396 1681 c 1,45,-1
 293 1681 l 1,46,47
 311 1698 311 1698 336 1726 c 1,48,49
 455 1868 455 1868 483 1903 c 1,50,-1
 524 1957 l 2,51,52
 539 1976 539 1976 541 1981 c 1,53,-1
 735 1981 l 1,54,55
 737 1976 737 1976 752 1957 c 0,56,57
 943 1719 943 1719 983 1681 c 1,58,-1
 880 1681 l 1,41,42
EndSplineSet
EndChar

StartChar: Udieresis
Encoding: 220 220 177
Width: 1199
GlyphClass: 2
Flags: W
LayerCount: 2
Fore
SplineSet
903 513 m 1,0,-1
 908 897 l 1,1,2
 908 1300 908 1300 878 1412 c 0,3,4
 864 1466 864 1466 844.5 1491 c 128,-1,5
 825 1516 825 1516 813 1530 c 1,6,-1
 1141 1530 l 1,7,-1
 1120 1502 l 1,8,9
 1075 1436 1075 1436 1070 1353 c 128,-1,10
 1065 1270 1065 1270 1062.5 1185 c 128,-1,11
 1060 1100 1060 1100 1058 1016 c 0,12,13
 1056 875 1056 875 1056 701 c 2,14,-1
 1056 579 l 2,15,16
 1056 256 1056 256 952 116 c 1,17,18
 849 -20 849 -20 616 -20 c 0,19,20
 165 -20 165 -20 167 559 c 1,21,-1
 168 1308 l 2,22,23
 168 1466 168 1466 112 1530 c 1,24,-1
 491 1530 l 1,25,26
 432 1459 432 1459 432 1328 c 0,27,28
 432 1252 432 1252 431 1172 c 2,29,-1
 427 852 l 2,30,31
 426 773 426 773 426 689 c 0,32,33
 426 388 426 388 444 307.5 c 128,-1,34
 462 227 462 227 488 182 c 0,35,36
 548 80 548 80 666 80 c 0,37,38
 848 80 848 80 890 346 c 0,39,40
 903 425 903 425 903 513 c 1,0,-1
487 1677 m 128,-1,42
 462 1658 462 1658 431 1658 c 128,-1,43
 400 1658 400 1658 375.5 1677 c 128,-1,44
 351 1696 351 1696 334 1724 c 0,45,46
 299 1782 299 1782 299 1825.5 c 128,-1,47
 299 1869 299 1869 306 1889 c 128,-1,48
 313 1909 313 1909 329 1925 c 0,49,50
 364 1960 364 1960 416.5 1960 c 128,-1,51
 469 1960 469 1960 494 1950.5 c 128,-1,52
 519 1941 519 1941 535 1925 c 0,53,54
 565 1895 565 1895 565 1856.5 c 128,-1,55
 565 1818 565 1818 555.5 1785 c 128,-1,56
 546 1752 546 1752 529 1724 c 128,-1,41
 512 1696 512 1696 487 1677 c 128,-1,42
899 1677 m 128,-1,58
 874 1658 874 1658 843 1658 c 128,-1,59
 812 1658 812 1658 787.5 1677 c 128,-1,60
 763 1696 763 1696 746 1724 c 0,61,62
 711 1782 711 1782 711 1825.5 c 128,-1,63
 711 1869 711 1869 718 1889 c 128,-1,64
 725 1909 725 1909 741 1925 c 0,65,66
 774 1960 774 1960 827 1960 c 128,-1,67
 880 1960 880 1960 905.5 1950.5 c 128,-1,68
 931 1941 931 1941 947 1925 c 0,69,70
 977 1895 977 1895 977 1856.5 c 128,-1,71
 977 1818 977 1818 967.5 1785 c 128,-1,72
 958 1752 958 1752 941 1724 c 128,-1,57
 924 1696 924 1696 899 1677 c 128,-1,58
EndSplineSet
EndChar

StartChar: Yacute
Encoding: 221 221 178
Width: 864
GlyphClass: 2
Flags: W
LayerCount: 2
Fore
SplineSet
343 385 m 1,0,-1
 344 594 l 1,1,-1
 344 708 l 2,2,3
 344 798 344 798 270 964 c 1,4,5
 213 1089 213 1089 193 1129 c 2,6,-1
 160 1195 l 1,7,8
 31 1465 31 1465 -66 1530 c 1,9,-1
 337 1530 l 1,10,11
 330 1510 330 1510 330 1479 c 128,-1,12
 330 1448 330 1448 335 1413.5 c 128,-1,13
 340 1379 340 1379 348 1343 c 0,14,15
 363 1274 363 1274 387 1216 c 2,16,-1
 435 1100 l 2,17,18
 460 1042 460 1042 497 982 c 1,19,20
 544 1053 544 1053 572 1121 c 2,21,-1
 610 1215 l 1,22,23
 667 1360 667 1360 667 1491 c 0,24,25
 667 1513 667 1513 664 1530 c 1,26,-1
 939 1530 l 1,27,28
 884 1472 884 1472 824 1361 c 128,-1,29
 764 1250 764 1250 740 1200 c 2,30,-1
 689 1089 l 1,31,32
 585 859 585 859 585 721 c 2,33,-1
 585 264 l 2,34,35
 585 162 585 162 609 117 c 128,-1,36
 633 72 633 72 660 47 c 128,-1,37
 687 22 687 22 725 0 c 1,38,-1
 214 0 l 1,39,40
 343 66 343 66 343 241 c 2,41,-1
 343 385 l 1,0,-1
891 1992 m 1,42,43
 794 1848 794 1848 622 1734 c 0,44,45
 579 1706 579 1706 552 1692 c 1,46,-1
 404 1692 l 1,47,48
 421 1708 421 1708 444 1736 c 2,49,50
 444 1736 444 1736 544 1860 c 1,51,52
 634 1976 634 1976 634 1992 c 1,53,-1
 891 1992 l 1,42,43
EndSplineSet
EndChar

StartChar: Thorn
Encoding: 222 222 179
Width: 1148
GlyphClass: 2
Flags: W
LayerCount: 2
Fore
SplineSet
807 812 m 128,-1,1
 822 854 822 854 822 887.5 c 128,-1,2
 822 921 822 921 815.5 950 c 128,-1,3
 809 979 809 979 786 1002 c 0,4,5
 738 1050 738 1050 600 1050 c 0,6,7
 515 1050 515 1050 487 1030 c 1,8,9
 435 990 435 990 435 898 c 128,-1,10
 435 806 435 806 440.5 761 c 128,-1,11
 446 716 446 716 460 692 c 0,12,13
 485 650 485 650 560 650 c 128,-1,14
 635 650 635 650 682.5 674 c 128,-1,15
 730 698 730 698 761 734 c 128,-1,0
 792 770 792 770 807 812 c 128,-1,1
443.5 1344 m 128,-1,17
 441 1307 441 1307 440 1263 c 128,-1,18
 439 1219 439 1219 446 1198 c 128,-1,19
 453 1177 453 1177 476 1166 c 0,20,21
 508 1150 508 1150 638 1150 c 128,-1,22
 768 1150 768 1150 850.5 1138.5 c 128,-1,23
 933 1127 933 1127 986 1102 c 0,24,25
 1086 1053 1086 1053 1086 930 c 0,26,27
 1086 765 1086 765 960 658 c 0,28,29
 809 529 809 529 511 529 c 0,30,31
 450 529 450 529 440 444 c 0,32,33
 433 387 433 387 433 344 c 128,-1,34
 433 301 433 301 439 251 c 128,-1,35
 445 201 445 201 460 154 c 0,36,37
 495 44 495 44 562 0 c 1,38,-1
 137 0 l 1,39,-1
 157 40 l 1,40,41
 190 109 190 109 193 213.5 c 128,-1,42
 196 318 196 318 196 423.5 c 128,-1,43
 196 529 196 529 194 634 c 1,44,-1
 192 845 l 1,45,46
 188 1095 188 1095 188 1206 c 128,-1,47
 188 1317 188 1317 183.5 1355 c 128,-1,48
 179 1393 179 1393 168 1424 c 0,49,50
 151 1475 151 1475 98 1530 c 1,51,-1
 509 1530 l 1,52,53
 466 1470 466 1470 456 1425.5 c 128,-1,16
 446 1381 446 1381 443.5 1344 c 128,-1,17
EndSplineSet
EndChar

StartChar: germandbls
Encoding: 223 223 180
Width: 1198
GlyphClass: 2
Flags: W
LayerCount: 2
Fore
SplineSet
96 893 m 1,0,-1
 122 894 l 1,1,-1
 154 894 l 2,2,3
 182 894 182 894 188.5 909.5 c 128,-1,4
 195 925 195 925 195 1012 c 128,-1,5
 195 1099 195 1099 214 1207.5 c 128,-1,6
 233 1316 233 1316 280 1392 c 0,7,8
 376 1550 376 1550 603 1550 c 0,9,10
 794 1550 794 1550 893 1447 c 0,11,12
 978 1358 978 1358 978 1215 c 0,13,14
 978 1106 978 1106 900 968 c 1,15,-1
 846 870 l 2,16,17
 821 824 821 824 821 782 c 128,-1,18
 821 740 821 740 844.5 704 c 128,-1,19
 868 668 868 668 903.5 631 c 128,-1,20
 939 594 939 594 980.5 555 c 128,-1,21
 1022 516 1022 516 1058 473 c 0,22,23
 1140 373 1140 373 1140 275 c 0,24,25
 1140 158 1140 158 1066 77 c 0,26,27
 976 -20 976 -20 808 -20 c 0,28,29
 655 -20 655 -20 578 58 c 0,30,31
 557 80 557 80 548 102 c 1,32,33
 554 174 554 174 614 243 c 0,34,35
 670 306 670 306 716 317 c 1,36,37
 710 230 710 230 734.5 176.5 c 128,-1,38
 759 123 759 123 784 101.5 c 128,-1,39
 809 80 809 80 845 80 c 128,-1,40
 881 80 881 80 908 107.5 c 128,-1,41
 935 135 935 135 935 193 c 128,-1,42
 935 251 935 251 910 293 c 128,-1,43
 885 335 885 335 847 374 c 128,-1,44
 809 413 809 413 765.5 451 c 128,-1,45
 722 489 722 489 684 532 c 0,46,47
 596 632 596 632 596 737 c 0,48,49
 596 816 596 816 629 876 c 128,-1,50
 662 936 662 936 685 972.5 c 128,-1,51
 708 1009 708 1009 728 1050 c 0,52,53
 774 1143 774 1143 774 1239 c 0,54,55
 774 1375 774 1375 677 1422 c 0,56,57
 640 1440 640 1440 590.5 1440 c 128,-1,58
 541 1440 541 1440 509 1422.5 c 128,-1,59
 477 1405 477 1405 454 1374 c 0,60,61
 409 1310 409 1310 409 1201 c 2,62,-1
 409 1112 l 1,63,-1
 408 888 l 1,64,-1
 408 763 l 2,65,66
 408 260 408 260 430 160 c 0,67,68
 445 94 445 94 469 59 c 128,-1,69
 493 24 493 24 515 0 c 1,70,-1
 150 0 l 1,71,72
 178 97 178 97 184 211 c 0,73,74
 197 494 197 494 197 615 c 128,-1,75
 197 736 197 736 195 761.5 c 128,-1,76
 193 787 193 787 177 790 c 0,77,78
 111 805 111 805 98 860 c 0,79,80
 95 875 95 875 90 893 c 1,81,-1
 96 893 l 1,0,-1
EndSplineSet
EndChar

StartChar: agrave
Encoding: 224 224 181
Width: 1040
GlyphClass: 2
Flags: W
LayerCount: 2
Fore
SplineSet
877 534 m 1,0,-1
 874 342 l 1,1,2
 874 163 874 163 907 98 c 0,3,4
 927 59 927 59 954 38 c 2,5,-1
 1001 0 l 1,6,-1
 711 0 l 1,7,-1
 680 116 l 1,8,9
 567 -20 567 -20 358 -20 c 0,10,11
 239 -20 239 -20 166 60 c 1,12,13
 102 132 102 132 102 230 c 128,-1,14
 102 328 102 328 148.5 401 c 128,-1,15
 195 474 195 474 271 522 c 0,16,17
 421 615 421 615 648 619 c 1,18,-1
 648 630 l 2,19,20
 648 873 648 873 573 915 c 0,21,22
 546 930 546 930 503.5 930 c 128,-1,23
 461 930 461 930 419 902 c 128,-1,24
 377 874 377 874 343 830 c 0,25,26
 275 741 275 741 246 620 c 1,27,28
 157 673 157 673 157 823 c 0,29,30
 157 884 157 884 173 960 c 1,31,32
 211 960 211 960 245 971 c 2,33,-1
 322 995 l 2,34,35
 435 1030 435 1030 543 1030 c 128,-1,36
 651 1030 651 1030 715.5 998 c 128,-1,37
 780 966 780 966 816 903 c 0,38,39
 877 796 877 796 877 534 c 1,0,-1
346.5 114 m 128,-1,41
 375 80 375 80 418 80 c 128,-1,42
 461 80 461 80 501 102.5 c 128,-1,43
 541 125 541 125 573 164 c 0,44,45
 648 253 648 253 648 373 c 2,46,-1
 648 521 l 1,47,48
 508 508 508 508 417 428 c 0,49,50
 318 342 318 342 318 210 c 0,51,40
 318 148 318 148 346.5 114 c 128,-1,41
516 1530 m 1,52,53
 516 1520 516 1520 539 1456 c 1,54,55
 591 1320 591 1320 613 1267 c 1,56,57
 613 1267 613 1267 652 1178 c 0,58,59
 669 1141 669 1141 681 1120 c 1,60,-1
 567 1120 l 1,61,62
 515 1157 515 1157 448 1240 c 0,63,64
 321 1397 321 1397 260 1530 c 1,65,-1
 516 1530 l 1,52,53
EndSplineSet
EndChar

StartChar: aacute
Encoding: 225 225 182
Width: 1040
GlyphClass: 2
Flags: W
LayerCount: 2
Fore
SplineSet
877 534 m 1,0,-1
 874 342 l 1,1,2
 874 163 874 163 907 98 c 0,3,4
 927 59 927 59 954 38 c 2,5,-1
 1001 0 l 1,6,-1
 711 0 l 1,7,-1
 680 116 l 1,8,9
 567 -20 567 -20 358 -20 c 0,10,11
 239 -20 239 -20 166 60 c 1,12,13
 102 132 102 132 102 230 c 128,-1,14
 102 328 102 328 148.5 401 c 128,-1,15
 195 474 195 474 271 522 c 0,16,17
 421 615 421 615 648 619 c 1,18,-1
 648 630 l 2,19,20
 648 873 648 873 573 915 c 0,21,22
 546 930 546 930 503.5 930 c 128,-1,23
 461 930 461 930 419 902 c 128,-1,24
 377 874 377 874 343 830 c 0,25,26
 275 741 275 741 246 620 c 1,27,28
 157 673 157 673 157 823 c 0,29,30
 157 884 157 884 173 960 c 1,31,32
 211 960 211 960 245 971 c 2,33,-1
 322 995 l 2,34,35
 435 1030 435 1030 543 1030 c 128,-1,36
 651 1030 651 1030 715.5 998 c 128,-1,37
 780 966 780 966 816 903 c 0,38,39
 877 796 877 796 877 534 c 1,0,-1
346.5 114 m 128,-1,41
 375 80 375 80 418 80 c 128,-1,42
 461 80 461 80 501 102.5 c 128,-1,43
 541 125 541 125 573 164 c 0,44,45
 648 253 648 253 648 373 c 2,46,-1
 648 521 l 1,47,48
 508 508 508 508 417 428 c 0,49,50
 318 342 318 342 318 210 c 0,51,40
 318 148 318 148 346.5 114 c 128,-1,41
821 1530 m 1,52,53
 733 1338 733 1338 573 1174 c 0,54,55
 535 1135 535 1135 514 1120 c 1,56,-1
 400 1120 l 1,57,58
 412 1141 412 1141 429 1178 c 0,59,60
 514 1370 514 1370 539.5 1447 c 128,-1,61
 565 1524 565 1524 565 1530 c 1,62,-1
 821 1530 l 1,52,53
EndSplineSet
EndChar

StartChar: acircumflex
Encoding: 226 226 183
Width: 1040
GlyphClass: 2
Flags: W
LayerCount: 2
Fore
SplineSet
877 534 m 1,0,-1
 874 342 l 1,1,2
 874 163 874 163 907 98 c 0,3,4
 927 59 927 59 954 38 c 2,5,-1
 1001 0 l 1,6,-1
 711 0 l 1,7,-1
 680 116 l 1,8,9
 567 -20 567 -20 358 -20 c 0,10,11
 239 -20 239 -20 166 60 c 1,12,13
 102 132 102 132 102 230 c 128,-1,14
 102 328 102 328 148.5 401 c 128,-1,15
 195 474 195 474 271 522 c 0,16,17
 421 615 421 615 648 619 c 1,18,-1
 648 630 l 2,19,20
 648 873 648 873 573 915 c 0,21,22
 546 930 546 930 503.5 930 c 128,-1,23
 461 930 461 930 419 902 c 128,-1,24
 377 874 377 874 343 830 c 0,25,26
 275 741 275 741 246 620 c 1,27,28
 157 673 157 673 157 823 c 0,29,30
 157 884 157 884 173 960 c 1,31,32
 211 960 211 960 245 971 c 2,33,-1
 322 995 l 2,34,35
 435 1030 435 1030 543 1030 c 128,-1,36
 651 1030 651 1030 715.5 998 c 128,-1,37
 780 966 780 966 816 903 c 0,38,39
 877 796 877 796 877 534 c 1,0,-1
346.5 114 m 128,-1,41
 375 80 375 80 418 80 c 128,-1,42
 461 80 461 80 501 102.5 c 128,-1,43
 541 125 541 125 573 164 c 0,44,45
 648 253 648 253 648 373 c 2,46,-1
 648 521 l 1,47,48
 508 508 508 508 417 428 c 0,49,50
 318 342 318 342 318 210 c 0,51,40
 318 148 318 148 346.5 114 c 128,-1,41
759 1160 m 1,52,53
 668 1208 668 1208 519 1357 c 1,54,55
 377 1211 377 1211 281 1160 c 1,56,-1
 187 1160 l 1,57,58
 223 1200 223 1200 263 1263 c 0,59,60
 346 1396 346 1396 369 1437 c 2,61,-1
 406 1501 l 2,62,63
 419 1525 419 1525 422 1530 c 1,64,-1
 618 1530 l 1,65,66
 620 1525 620 1525 634 1501 c 0,67,68
 802 1214 802 1214 853 1160 c 1,69,-1
 759 1160 l 1,52,53
EndSplineSet
EndChar

StartChar: atilde
Encoding: 227 227 184
Width: 1040
GlyphClass: 2
Flags: W
LayerCount: 2
Fore
SplineSet
877 534 m 1,0,-1
 874 342 l 1,1,2
 874 163 874 163 907 98 c 0,3,4
 927 59 927 59 954 38 c 2,5,-1
 1001 0 l 1,6,-1
 711 0 l 1,7,-1
 680 116 l 1,8,9
 567 -20 567 -20 358 -20 c 0,10,11
 239 -20 239 -20 166 60 c 1,12,13
 102 132 102 132 102 230 c 128,-1,14
 102 328 102 328 148.5 401 c 128,-1,15
 195 474 195 474 271 522 c 0,16,17
 421 615 421 615 648 619 c 1,18,-1
 648 630 l 2,19,20
 648 873 648 873 573 915 c 0,21,22
 546 930 546 930 503.5 930 c 128,-1,23
 461 930 461 930 419 902 c 128,-1,24
 377 874 377 874 343 830 c 0,25,26
 275 741 275 741 246 620 c 1,27,28
 157 673 157 673 157 823 c 0,29,30
 157 884 157 884 173 960 c 1,31,32
 211 960 211 960 245 971 c 2,33,-1
 322 995 l 2,34,35
 435 1030 435 1030 543 1030 c 128,-1,36
 651 1030 651 1030 715.5 998 c 128,-1,37
 780 966 780 966 816 903 c 0,38,39
 877 796 877 796 877 534 c 1,0,-1
346.5 114 m 128,-1,41
 375 80 375 80 418 80 c 128,-1,42
 461 80 461 80 501 102.5 c 128,-1,43
 541 125 541 125 573 164 c 0,44,45
 648 253 648 253 648 373 c 2,46,-1
 648 521 l 1,47,48
 508 508 508 508 417 428 c 0,49,50
 318 342 318 342 318 210 c 0,51,40
 318 148 318 148 346.5 114 c 128,-1,41
172 1281 m 1,52,53
 222 1387 222 1387 293 1443.5 c 128,-1,54
 364 1500 364 1500 428.5 1500 c 128,-1,55
 493 1500 493 1500 526.5 1479.5 c 128,-1,56
 560 1459 560 1459 584 1434 c 2,57,58
 584 1434 584 1434 628 1388 c 0,59,60
 648 1368 648 1368 676.5 1368 c 128,-1,61
 705 1368 705 1368 726.5 1378 c 128,-1,62
 748 1388 748 1388 765 1403.5 c 128,-1,63
 782 1419 782 1419 796 1438 c 2,64,-1
 821 1472 l 1,65,-1
 901 1399 l 1,66,67
 853 1302 853 1302 784.5 1251 c 128,-1,68
 716 1200 716 1200 662 1200 c 128,-1,69
 608 1200 608 1200 581.5 1210 c 128,-1,70
 555 1220 555 1220 535 1234.5 c 128,-1,71
 515 1249 515 1249 500 1266 c 2,72,73
 500 1266 500 1266 470 1298 c 0,74,75
 437 1332 437 1332 407.5 1332 c 128,-1,76
 378 1332 378 1332 356.5 1322 c 128,-1,77
 335 1312 335 1312 318 1296.5 c 128,-1,78
 301 1281 301 1281 288 1262 c 1,79,80
 288 1262 288 1262 262 1228 c 1,81,-1
 172 1281 l 1,52,53
EndSplineSet
EndChar

StartChar: adieresis
Encoding: 228 228 185
Width: 1040
GlyphClass: 2
Flags: W
LayerCount: 2
Fore
SplineSet
877 534 m 1,0,-1
 874 342 l 1,1,2
 874 163 874 163 907 98 c 0,3,4
 927 59 927 59 954 38 c 2,5,-1
 1001 0 l 1,6,-1
 711 0 l 1,7,-1
 680 116 l 1,8,9
 567 -20 567 -20 358 -20 c 0,10,11
 239 -20 239 -20 166 60 c 1,12,13
 102 132 102 132 102 230 c 128,-1,14
 102 328 102 328 148.5 401 c 128,-1,15
 195 474 195 474 271 522 c 0,16,17
 421 615 421 615 648 619 c 1,18,-1
 648 630 l 2,19,20
 648 873 648 873 573 915 c 0,21,22
 546 930 546 930 503.5 930 c 128,-1,23
 461 930 461 930 419 902 c 128,-1,24
 377 874 377 874 343 830 c 0,25,26
 275 741 275 741 246 620 c 1,27,28
 157 673 157 673 157 823 c 0,29,30
 157 884 157 884 173 960 c 1,31,32
 211 960 211 960 245 971 c 2,33,-1
 322 995 l 2,34,35
 435 1030 435 1030 543 1030 c 128,-1,36
 651 1030 651 1030 715.5 998 c 128,-1,37
 780 966 780 966 816 903 c 0,38,39
 877 796 877 796 877 534 c 1,0,-1
346.5 114 m 128,-1,41
 375 80 375 80 418 80 c 128,-1,42
 461 80 461 80 501 102.5 c 128,-1,43
 541 125 541 125 573 164 c 0,44,45
 648 253 648 253 648 373 c 2,46,-1
 648 521 l 1,47,48
 508 508 508 508 417 428 c 0,49,50
 318 342 318 342 318 210 c 0,51,40
 318 148 318 148 346.5 114 c 128,-1,41
360 1215 m 128,-1,53
 334 1195 334 1195 301 1195 c 128,-1,54
 268 1195 268 1195 242 1215 c 128,-1,55
 216 1235 216 1235 198 1265 c 0,56,57
 161 1327 161 1327 161 1395 c 0,58,59
 161 1477 161 1477 237 1505 c 0,60,61
 263 1515 263 1515 302 1515 c 0,62,63
 410 1515 410 1515 435 1440 c 0,64,65
 443 1418 443 1418 443 1391.5 c 128,-1,66
 443 1365 443 1365 433 1330 c 128,-1,67
 423 1295 423 1295 404.5 1265 c 128,-1,52
 386 1235 386 1235 360 1215 c 128,-1,53
796 1215 m 128,-1,69
 770 1195 770 1195 737 1195 c 128,-1,70
 704 1195 704 1195 678 1215 c 128,-1,71
 652 1235 652 1235 634 1265 c 0,72,73
 597 1327 597 1327 597 1395 c 0,74,75
 597 1477 597 1477 672 1505 c 0,76,77
 699 1515 699 1515 738 1515 c 0,78,79
 846 1515 846 1515 871 1440 c 0,80,81
 879 1418 879 1418 879 1391.5 c 128,-1,82
 879 1365 879 1365 869 1330 c 128,-1,83
 859 1295 859 1295 840.5 1265 c 128,-1,68
 822 1235 822 1235 796 1215 c 128,-1,69
EndSplineSet
EndChar

StartChar: aring
Encoding: 229 229 186
Width: 1040
GlyphClass: 2
Flags: W
LayerCount: 2
Fore
SplineSet
877 534 m 1,0,-1
 874 342 l 1,1,2
 874 163 874 163 907 98 c 0,3,4
 927 59 927 59 954 38 c 2,5,-1
 1001 0 l 1,6,-1
 711 0 l 1,7,-1
 680 116 l 1,8,9
 567 -20 567 -20 358 -20 c 0,10,11
 239 -20 239 -20 166 60 c 1,12,13
 102 132 102 132 102 230 c 128,-1,14
 102 328 102 328 148.5 401 c 128,-1,15
 195 474 195 474 271 522 c 0,16,17
 421 615 421 615 648 619 c 1,18,-1
 648 630 l 2,19,20
 648 873 648 873 573 915 c 0,21,22
 546 930 546 930 503.5 930 c 128,-1,23
 461 930 461 930 419 902 c 128,-1,24
 377 874 377 874 343 830 c 0,25,26
 275 741 275 741 246 620 c 1,27,28
 157 673 157 673 157 823 c 0,29,30
 157 884 157 884 173 960 c 1,31,32
 211 960 211 960 245 971 c 2,33,-1
 322 995 l 2,34,35
 435 1030 435 1030 543 1030 c 128,-1,36
 651 1030 651 1030 715.5 998 c 128,-1,37
 780 966 780 966 816 903 c 0,38,39
 877 796 877 796 877 534 c 1,0,-1
346.5 114 m 128,-1,41
 375 80 375 80 418 80 c 128,-1,42
 461 80 461 80 501 102.5 c 128,-1,43
 541 125 541 125 573 164 c 0,44,45
 648 253 648 253 648 373 c 2,46,-1
 648 521 l 1,47,48
 508 508 508 508 417 428 c 0,49,50
 318 342 318 342 318 210 c 0,51,40
 318 148 318 148 346.5 114 c 128,-1,41
530 1529 m 256,52,53
 423 1529 423 1529 423 1375 c 0,54,55
 423 1267 423 1267 488 1233 c 0,56,57
 508 1223 508 1223 530 1223 c 0,58,59
 603 1223 603 1223 628 1310 c 0,60,61
 637 1338 637 1338 637 1375 c 0,62,63
 637 1529 637 1529 530 1529 c 256,52,53
801 1375 m 0,64,65
 801 1261 801 1261 720 1193 c 0,66,67
 645 1130 645 1130 530 1130 c 256,68,69
 415 1130 415 1130 340 1193 c 0,70,71
 259 1261 259 1261 259 1375 c 0,72,73
 259 1490 259 1490 340 1558 c 0,74,75
 415 1622 415 1622 530 1622 c 256,76,77
 645 1622 645 1622 720 1558 c 0,78,79
 801 1490 801 1490 801 1375 c 0,64,65
EndSplineSet
EndChar

StartChar: ae
Encoding: 230 230 187
Width: 1517
GlyphClass: 2
Flags: W
LayerCount: 2
Fore
SplineSet
134 823 m 0,0,1
 134 884 134 884 150 960 c 1,2,3
 188 960 188 960 222 971 c 2,4,-1
 299 995 l 2,5,6
 412 1030 412 1030 524 1030 c 0,7,8
 711 1030 711 1030 786 914 c 1,9,10
 914 1030 914 1030 1115 1030 c 0,11,12
 1266 1030 1266 1030 1351 942 c 0,13,14
 1418 872 1418 872 1418 780.5 c 128,-1,15
 1418 689 1418 689 1382.5 615.5 c 128,-1,16
 1347 542 1347 542 1278 489 c 0,17,18
 1136 379 1136 379 881 373 c 1,19,20
 902 172 902 172 1007 104 c 0,21,22
 1045 80 1045 80 1108 80 c 128,-1,23
 1171 80 1171 80 1242 146 c 128,-1,24
 1313 212 1313 212 1372 340 c 1,25,26
 1408 316 1408 316 1408 256.5 c 128,-1,27
 1408 197 1408 197 1392 152 c 128,-1,28
 1376 107 1376 107 1336 68 c 0,29,30
 1246 -20 1246 -20 1062 -20 c 0,31,32
 818 -20 818 -20 709 181 c 1,33,34
 591 -20 591 -20 335 -20 c 0,35,36
 216 -20 216 -20 143 60 c 1,37,38
 79 132 79 132 79 230 c 128,-1,39
 79 328 79 328 125.5 401 c 128,-1,40
 172 474 172 474 248 522 c 0,41,42
 398 615 398 615 625 619 c 1,43,-1
 625 630 l 2,44,45
 625 873 625 873 550 915 c 0,46,47
 523 930 523 930 480.5 930 c 128,-1,48
 438 930 438 930 396 902 c 128,-1,49
 354 874 354 874 320 830 c 0,50,51
 252 741 252 741 223 620 c 1,52,53
 134 673 134 673 134 823 c 0,0,1
875 468 m 1,54,55
 1191 489 1191 489 1191 774 c 0,56,57
 1191 881 1191 881 1127 918 c 0,58,59
 1105 930 1105 930 1069 930 c 128,-1,60
 1033 930 1033 930 996.5 908 c 128,-1,61
 960 886 960 886 933 836 c 0,62,63
 875 727 875 727 875 499 c 2,64,-1
 875 468 l 1,54,55
323.5 114 m 128,-1,66
 352 80 352 80 395 80 c 128,-1,67
 438 80 438 80 478 102.5 c 128,-1,68
 518 125 518 125 550 164 c 0,69,70
 625 253 625 253 625 373 c 2,71,-1
 625 521 l 1,72,73
 485 508 485 508 394 428 c 0,74,75
 295 342 295 342 295 210 c 0,76,65
 295 148 295 148 323.5 114 c 128,-1,66
EndSplineSet
EndChar

StartChar: ccedilla
Encoding: 231 231 188
Width: 872
GlyphClass: 2
Flags: W
LayerCount: 2
Fore
SplineSet
761 1070 m 1,0,1
 786 1010 786 1010 786 938.5 c 128,-1,2
 786 867 786 867 781 820 c 128,-1,3
 776 773 776 773 766 729 c 0,4,5
 745 636 745 636 701 580 c 1,6,7
 657 852 657 852 558 910 c 0,8,9
 523 930 523 930 482.5 930 c 128,-1,10
 442 930 442 930 412 911 c 128,-1,11
 382 892 382 892 361 856 c 0,12,13
 318 784 318 784 318 669.5 c 128,-1,14
 318 555 318 555 341 472.5 c 128,-1,15
 364 390 364 390 401.5 324.5 c 128,-1,16
 439 259 439 259 486.5 211.5 c 128,-1,17
 534 164 534 164 582 132 c 1,18,19
 679 70 679 70 754 70 c 1,20,21
 750 44 750 44 728 19 c 128,-1,22
 706 -6 706 -6 680 -20 c 1,23,24
 574 -20 574 -20 437 52 c 0,25,26
 182 187 182 187 93 446 c 0,27,28
 60 541 60 541 60 640.5 c 128,-1,29
 60 740 60 740 83 808.5 c 128,-1,30
 106 877 106 877 150 926 c 1,31,32
 240 1030 240 1030 400 1030 c 0,33,34
 454 1030 454 1030 505 1023 c 0,35,36
 601 1010 601 1010 639.5 1010 c 128,-1,37
 678 1010 678 1010 708 1020.5 c 128,-1,38
 738 1031 738 1031 761 1070 c 1,0,1
544 97 m 1,39,40
 519 36 519 36 519 -67 c 1,41,-1
 560 -92 l 1,42,43
 651 -145 651 -145 651 -230 c 0,44,45
 651 -327 651 -327 572 -392 c 1,46,47
 491 -460 491 -460 361 -460 c 1,48,49
 340 -447 340 -447 327 -428 c 2,50,-1
 310 -402 l 2,51,52
 305 -394 305 -394 301 -390 c 1,53,54
 421 -377 421 -377 471 -284 c 0,55,56
 486 -255 486 -255 486 -220 c 0,57,58
 486 -140 486 -140 384 -104 c 1,59,60
 441 5 441 5 456 128 c 1,61,-1
 544 97 l 1,39,40
EndSplineSet
EndChar

